<svg xmlns="http://www.w3.org/2000/svg" width="24" height="24" viewBox="0 0 24 24">
    <g fill="none" fill-rule="evenodd" stroke="#85CD5B" stroke-width="2">
        <path d="M9 1.772c.22 0 .442.084.61.253h0l.652.652c.614.613 1.446.958 2.314.959h.924c.226 0 .432.087.586.229.148.137.249.325.272.537h0l.005 1.02c0 .867.345 1.7.959 2.314h0l.653.653c.158.158.242.363.252.57.009.2-.05.4-.177.566h0l-.728.738c-.614.614-.959 1.447-.959 2.315h0v.922c0 .226-.086.432-.228.586-.137.148-.325.249-.537.272h0l-1.02.005c-.868 0-1.701.345-2.315.96h0l-.652.652c-.169.168-.39.253-.611.253-.221 0-.442-.084-.611-.253h0l-.653-.653c-.614-.614-1.447-.959-2.315-.959h0H4.5c-.226 0-.432-.086-.586-.228-.148-.137-.248-.326-.272-.537h0l-.005-1.022c0-.868-.346-1.7-.96-2.314h0l-.651-.652c-.159-.158-.243-.363-.252-.57-.01-.199.05-.4.177-.566h0l.727-.738c.614-.613.958-1.445.959-2.313h0V4.5c0-.239.097-.455.253-.611.156-.156.372-.253.611-.253h.923c.868 0 1.7-.345 2.313-.959h0l.653-.652c.169-.169.39-.253.61-.253z" transform="translate(3 3)"/>
        <path d="M6 9L8 11 12 7" transform="translate(3 3)"/>
    </g>
</svg>
