<svg xmlns="http://www.w3.org/2000/svg" width="24" height="24" viewBox="0 0 24 24">
    <g fill="none" fill-rule="evenodd">
        <circle cx="12" cy="12" r="12" fill="#F0F4F6"/>
        <path fill="#919EA4" fill-rule="nonzero" d="M17.073 7.364l-.001-.001c-.814-.814-2.003-1.339-3.03-1.339-1.088 0-2.109.423-2.876 1.19L5.95 12.429c-.612.613-.95 1.428-.95 2.296 0 .868.337 1.683.95 2.295v.001c.613.612 1.428.95 2.296.95h.002c.867 0 1.682-.338 2.294-.95l4.632-4.632c.162-.16.691-.75.693-1.608.001-.4-.114-.992-.67-1.547-.623-.624-1.281-.718-1.723-.687-.537.038-1.054.28-1.456.681l-3.77 3.77c-.263.264-.263.691 0 .955.264.264.691.264.955 0l3.77-3.77c.169-.17.386-.275.595-.29.236-.016.463.083.675.295.183.183.275.381.275.59-.001.345-.245.604-.296.654l-4.634 4.634c-.358.358-.833.555-1.34.555h-.003c-.507 0-.983-.197-1.34-.555-.358-.358-.555-.834-.555-1.34 0-.508.197-.984.555-1.342l5.215-5.216c.513-.512 1.195-.794 1.921-.794.667 0 1.52.388 2.076.943l.001.001c.541.541.877 1.311.877 2.01 0 .726-.282 1.408-.794 1.92l-1.822 1.822c-.264.264-.264.691 0 .955.263.263.69.263.954 0l1.822-1.822c.768-.767 1.19-1.788 1.19-2.875 0-1.06-.476-2.168-1.272-2.964z"/>
    </g>
</svg>
