<svg xmlns="http://www.w3.org/2000/svg" width="9" height="10" viewBox="0 0 9 10">
    <g fill="none" fill-rule="evenodd">
        <path stroke="#3C3F48" stroke-linejoin="round" d="M4.5 1.5h2.25c.966 0 1.75.784 1.75 1.75S7.716 5 6.75 5h-4.5C1.284 5 .5 5.784.5 6.75S1.284 8.5 2.25 8.5H4.5"/>
        <path fill="#67BFCD" d="M1 0h3c.552 0 1 .448 1 1v1c0 .552-.448 1-1 1H1c-.552 0-1-.448-1-1V1c0-.552.448-1 1-1zM5 7h3c.552 0 1 .448 1 1v1c0 .552-.448 1-1 1H5c-.552 0-1-.448-1-1V8c0-.552.448-1 1-1z"/>
    </g>
</svg>
