<svg xmlns="http://www.w3.org/2000/svg" width="172" height="129" viewBox="0 0 172 129">
    <g fill="none" fill-rule="evenodd">
        <path fill="#74C8DA" d="M15.201 63.299c1.493.683 2.976 1.475 4.22 2.815.212-.424.495-.802.842-1.118-1.357-1.392-2.924-2.223-4.424-2.914-.074.477-.303.9-.638 1.217M11.649 61.535c.052-.486.26-.923.583-1.255-1.308-.887-2.216-2.097-2.401-4.296H8.466c.216 2.913 1.519 4.478 3.183 5.551M36.355 92.43c.348.296.638.65.86 1.052 1.6-1.19 3.218-2.834 4.12-4.555-.47-.09-.88-.339-1.186-.684-.784 1.55-2.303 3.093-3.794 4.187M16.378 81.904c-.947-.053-1.782-.121-2.479-.19.016.102.032.204.032.31 0 .143-.014.282-.042.418.706.068 1.513.13 2.398.177.023-.237.054-.476.09-.715M14.132 59.678c-.031-1.125.015-2.353.171-3.693h-.726c-.152 1.337-.198 2.564-.167 3.688.111-.018.222-.035.338-.035.132 0 .26.017.384.04M21.866 82.01c-1.488.027-2.871.007-4.111-.04-.038.239-.056.474-.08.71.926.033 1.902.052 2.906.052.44 0 .89-.013 1.338-.02-.034-.202-.063-.406-.063-.617 0-.03.008-.056.01-.086M13 74.884c-.246-.053-.473-.151-.68-.282-.307 1.418-.4 2.634-.48 3.687-.049.618-.095 1.149-.173 1.627.047-.004.093-.015.141-.015.203 0 .395.038.58.091.08-.501.123-1.047.17-1.649.075-.993.165-2.137.442-3.459M14.46 63.75c-.223.08-.46.13-.71.13.253 2.319.44 4.404-.241 6.838.248.008.487.057.707.144.705-2.552.507-4.71.244-7.113M29.39 82.095c0 .035-.01.068-.011.102 2.72.287 6.61 1.442 10.434 3.778.199-.434.541-.785.967-1.001-4.272-2.662-8.676-3.927-11.635-4.176.15.406.245.84.245 1.297M43.818 87.14c-.068.486-.295.92-.636 1.243.77.645 1.506 1.366 2.223 2.125l.572-1.406c-.698-.701-1.42-1.358-2.16-1.962M19.5 55.985h-.718c-.017 2.445-1.016 4.096-3.065 4.991.09.222.138.462.147.713 2.401-.997 3.617-2.914 3.636-5.704M12.321 63.319c-.341-.313-.578-.73-.659-1.205-1.156.521-2.469.613-3.662.69-.071.005-.136.013-.205.017.26.4.448.85.541 1.336 1.239-.084 2.665-.217 3.985-.838M8.122 72.64c.938.725 2.013 1.091 3.17 1.091.08 0 .165-.018.246-.021-.101-.217-.161-.453-.183-.702-1.024.016-1.958-.294-2.792-.938-1.164-.9-1.946-2.324-2.366-3.765-.22.1-.45.178-.688.236.46 1.564 1.32 3.1 2.613 4.1M34.43 99.006c-.165.021-.328.05-.5.05-.308 0-.602-.047-.89-.118.146 2.38 1.26 5.313 5.506 8.453l.536-1.317c-3.474-2.654-4.483-5.056-4.652-7.068M25.915 75.164c.403.23.835.413 1.293.558.36-2.117.327-4.397-1.009-6.328-.215.453-.518.854-.887 1.187.785 1.39.843 2.985.603 4.583M29.38 85.796c-.47-.284-.918-.56-1.335-.84-.388.329-.84.577-1.339.728.617.467 1.295.88 1.964 1.286l.224.136c.584-.209 1.166-.382 1.748-.52-.426-.28-.852-.541-1.262-.79M31.432 87.135c-.59.116-1.174.267-1.758.454 1.549.986 2.91 2.095 3.494 4.01.247-.051.501-.078.762-.078.222 0 .437.029.65.066-.526-2.08-1.772-3.426-3.148-4.452M19.104 68.58c-.055-.258-.088-.523-.088-.798 0-.263.027-.518.078-.765-1.567.728-2.907 2.08-3.97 3.157-.259.262-.517.52-.763.754.423.205.764.546.973.968.242-.233.492-.481.766-.758 1.02-1.033 2.005-1.96 3.004-2.558M26.561 78.46c.182-.637.364-1.323.514-2.033-.448-.138-.881-.308-1.29-.52-.169.842-.397 1.674-.627 2.467.155-.018.306-.046.466-.046.325 0 .637.054.937.132M4.818 68.636c-.064.003-.124.019-.188.019-.411 0-.8-.083-1.171-.205-.446 5.18 2.021 10.535 6.263 13.217.083-.48.325-.9.67-1.213-3.45-2.285-5.959-6.994-5.574-11.818M42.871 88.628c-.204.132-.43.229-.675.284.364 1.607.9 3.198 1.957 4.68l.33-.816c-.837-1.314-1.295-2.722-1.612-4.148"/>
        <path fill="#74C8DA" d="M31.072 77.092c1.414.143 2.875.29 4.21.699 4.408 1.348 5.504 3.911 6.135 6.979.104-.017.206-.032.314-.032.145 0 .287.014.424.042-.653-3.266-1.805-6.194-6.66-7.68-1.405-.43-2.903-.579-4.352-.724-1.412-.141-2.755-.283-3.935-.655-.04.238-.085.472-.133.705 1.252.385 2.63.53 3.997.666M25.786 75.906c.05-.247.092-.495.13-.742-1.174-.673-2.077-1.778-2.568-3.659-.182.027-.363.056-.553.056-.062 0-.12-.015-.181-.019.574 2.322 1.728 3.613 3.172 4.364"/>
        <path fill="#74C8DA" d="M25.786 75.906c.409.213.84.382 1.289.52.048-.231.092-.468.133-.704-.459-.146-.89-.328-1.292-.558-.038.247-.08.495-.13.742M17.675 82.68c-.478-.016-.943-.037-1.388-.06-.291 2.902.396 5.728 3.07 7.94.085-.492.342-.92.705-1.234-2.075-1.851-2.632-4.188-2.387-6.645M30.358 94.152c.142-.444.36-.85.646-1.206-2.507-1.343-4.433-1.53-6.053-1.678-.51-.047-.97-.1-1.417-.173-.042.5-.25.95-.578 1.291.616.125 1.235.19 1.87.247 1.556.143 3.272.307 5.532 1.519M36.579 97.963c-.33.326-.721.592-1.153.78.893.97 2.371 2.164 5.233 3.538l.485-1.284.017-.042c-2.512-1.207-3.766-2.15-4.582-2.992M18.347 79.53c-.395-.283-.779-.575-1.15-.88-.363 1.07-.652 2.165-.82 3.255.438.025.894.048 1.377.065.13-.81.334-1.626.593-2.44M17.71 77.266c.36.311.729.616 1.116.906.726-1.892 1.659-3.72 2.47-5.302.258-.501.49-.96.707-1.396-.46-.098-.887-.282-1.268-.53-.204.41-.422.84-.659 1.3-.748 1.46-1.633 3.185-2.365 5.022M22.948 64.018c.473.02.926.116 1.339.294.337-1.977.189-4.364-1.35-8.328h-1.47c1.604 3.933 1.8 6.14 1.481 8.034"/>
        <path fill="#74C8DA" d="M16.378 81.904c-.037.239-.068.478-.09.715.444.024.91.045 1.387.06.024-.235.042-.47.08-.708-.484-.019-.94-.041-1.377-.067M12.454 84.034c-.205.066-.42.112-.646.112-.03 0-.056-.008-.086-.01.835 2.505 2.626 5.149 5.111 6.497.696.379 1.565.701 2.565.824-.046-.172-.077-.35-.077-.537 0-.07.013-.137.02-.206-.736-.106-1.461-.333-2.164-.714-2.222-1.205-3.91-3.64-4.723-5.966M30.641 86.586c.265.175.53.355.791.549 2.386-.469 4.91-.4 8.197-.149-.002-.045-.013-.088-.013-.134 0-.203.038-.396.092-.583-3.606-.274-6.373-.325-9.067.317M29.675 87.589c-.257-.163-.518-.323-.78-.483-1.472.525-2.972 1.28-4.628 2.356-.312.202-.624.38-.937.535.107.218.173.454.2.705.369-.18.744-.385 1.13-.635 1.817-1.181 3.422-1.97 5.015-2.478M43.236 85.37c.179.18.324.395.428.63 1.176-.334 2.23.121 3.321.62l.271-.67c-1.146-.522-2.493-1.12-4.02-.58"/>
        <path fill="#74C8DA" d="M30.641 86.586c-.582.138-1.163.312-1.747.52.263.16.525.32.78.482.585-.186 1.168-.337 1.758-.453-.26-.194-.526-.374-.79-.55M11.962 71.326c.326-.325.761-.533 1.241-.59-1.265-3.164-3.164-4.66-4.829-5.506-.046.481-.177.934-.387 1.346 1.419.775 2.932 2.096 3.975 4.75M21.905 81.618c.061-.476.208-.92.43-1.322-1.238-.592-2.424-1.311-3.508-2.124-.173.45-.336.903-.48 1.359 1.108.795 2.304 1.505 3.558 2.087M1.488 55.985h-.7l-.672.024c.041 1.104.3 3.936 1.736 6.325.312-.34.682-.617 1.1-.827-1.2-2.064-1.424-4.533-1.464-5.522M17.198 78.65c.159-.467.331-.928.513-1.384-1.068-.925-2-1.935-2.744-2.984-.324.336-.757.56-1.243.624.917 1.338 2.1 2.61 3.474 3.744"/>
        <path fill="#74C8DA" d="M18.826 78.173c-.387-.291-.756-.595-1.115-.907-.182.456-.354.917-.512 1.384.368.305.753.597 1.148.88.144-.455.306-.907.48-1.357M6.942 55.985h-.724c-.177 1.661-.622 3.34-1.275 5.143.248.02.487.064.72.13.658-1.84 1.105-3.56 1.28-5.273M26.134 96.946c-1.859-.82-3.122-2.478-3.855-4.087-.222.096-.466.15-.72.164.788 1.787 2.194 3.66 4.284 4.583.854.376 1.76.564 2.706.564.82 0 1.67-.157 2.539-.438-.164-.19-.306-.393-.43-.612-1.62.488-3.136.439-4.524-.174M23.765 85.352c-.211-.122-.408-.261-.592-.42-.971 1.087-2.005 2.29-2.294 3.959.178-.05.364-.084.558-.084.065 0 .128.013.193.019.308-1.405 1.22-2.452 2.128-3.465l.007-.01M37.697 95.286v.002c0 .245-.028.483-.072.714 1.186.259 2.79.699 4.982 1.393l.272-.669c-2.254-.714-3.925-1.17-5.182-1.44M13.446 71.226c-.018 0-.035.01-.054.011-.02 0-.036.009-.055.01-.484.036-.89.286-1.159.656-.191.263-.327.57-.327.92 0 .055.026.1.03.153.026.252.11.478.24.681.092.147.2.277.334.387.192.156.417.256.667.31.09.02.176.053.272.056.018 0 .034.011.052.011.491 0 .914-.237 1.208-.586.232-.277.39-.623.39-1.011 0-.196-.048-.38-.113-.555-.155-.412-.464-.749-.869-.918-.044-.02-.097-.015-.142-.03-.152-.048-.305-.095-.474-.095M12.16 61.846l.003.01c.032.5.294.92.68 1.193.247.173.53.293.85.305.019 0 .036.01.055.01.235 0 .455-.055.655-.146.092-.041.166-.11.248-.167.382-.268.64-.682.678-1.173.001-.008.005-.015.006-.023.002-.033.018-.062.018-.096 0-.215-.044-.42-.122-.608-.19-.46-.596-.787-1.084-.915-.13-.035-.256-.081-.399-.081-.114 0-.215.043-.323.065-.277.058-.528.171-.731.352-.331.294-.55.71-.55 1.187 0 .03.015.057.017.087M22.323 92.218c.4-.275.673-.707.698-1.22.001-.027.016-.05.016-.077 0-.004-.003-.008-.003-.013-.002-.256-.076-.487-.185-.702-.25-.489-.734-.828-1.31-.865-.036-.003-.067-.021-.103-.021-.22 0-.43.045-.622.126-.129.054-.233.146-.342.23-.34.264-.564.647-.607 1.098-.005.051-.03.095-.03.147l.002.008c0 .202.046.39.115.568.222.572.761.975 1.403 1.01.028 0 .052.015.081.015.23 0 .445-.052.642-.139.092-.04.164-.109.245-.165M4.63 67.622c.107 0 .209-.019.314-.032.11-.012.219-.025.325-.05.243-.059.47-.154.683-.271.473-.263.859-.658 1.109-1.139.195-.379.316-.8.316-1.255 0-.035-.009-.068-.01-.103-.007-.186-.031-.364-.073-.538-.12-.492-.366-.936-.71-1.286-.348-.35-.789-.6-1.28-.726-.217-.055-.44-.093-.674-.093-.023 0-.044.006-.067.006-.368.009-.718.088-1.036.23-.43.188-.795.488-1.076.856-.35.462-.568 1.03-.568 1.654 0 1.143.701 2.123 1.696 2.537.324.135.678.21 1.051.21M12.278 83.534c.537-.168.932-.599 1.063-1.151.029-.118.073-.232.073-.36 0-.13-.045-.247-.074-.368-.134-.548-.527-.975-1.06-1.142-.153-.048-.305-.095-.471-.095-.095 0-.177.038-.266.053-.254.045-.482.141-.68.29-.377.283-.633.709-.65 1.212 0 .018-.01.033-.01.05 0 .792.587 1.422 1.34 1.553.09.015.171.054.266.054.166 0 .317-.05.47-.096M41.521 85.294c-.058.008-.114.02-.17.034-.495.124-.907.454-1.098.92-.008.018-.005.042-.012.061-.063.171-.11.35-.11.543 0 .063.028.115.035.175.028.242.108.46.232.658.256.406.673.684 1.176.736.054.006.101.032.157.032.126 0 .236-.044.352-.07.252-.06.48-.163.671-.325l.01-.009c.341-.293.568-.713.568-1.197 0-.039-.02-.071-.022-.11-.015-.199-.056-.389-.137-.562-.109-.23-.278-.418-.478-.572-.132-.103-.27-.191-.43-.248-.168-.062-.344-.108-.534-.108-.074 0-.139.032-.21.042M20.048 67.782c0 .112.02.219.034.328.092.775.502 1.449 1.104 1.888.353.257.769.427 1.222.492l.059.006c.109.013.216.033.329.033.117 0 .228-.02.342-.035.613-.078 1.167-.346 1.586-.76.34-.336.584-.765.713-1.24.062-.228.105-.464.105-.712 0-1.055-.604-1.962-1.479-2.422-.381-.2-.808-.325-1.267-.325-.023 0-.044.007-.066.007-.69.017-1.312.289-1.786.725-.257.235-.467.519-.62.837-.066.137-.116.28-.159.43-.068.238-.117.486-.117.748M34.407 97.98c.109-.018.212-.05.317-.082.453-.138.86-.383 1.18-.717.357-.373.612-.844.714-1.37.032-.17.053-.344.053-.522 0-.068-.015-.13-.02-.198-.027-.365-.123-.708-.279-1.02-.21-.418-.515-.781-.9-1.044-.21-.145-.447-.25-.695-.331-.268-.088-.55-.147-.847-.147-.184 0-.363.02-.537.055-.59.117-1.106.43-1.494.862-.306.34-.531.754-.636 1.216-.045.196-.074.397-.074.607 0 .545.165 1.05.441 1.48.138.213.308.4.499.568.263.232.569.411.907.53.282.098.58.161.894.161.163 0 .321-.02.477-.048M28.364 82.095c0-.447-.118-.863-.308-1.236-.357-.698-.999-1.223-1.777-1.416-.21-.052-.428-.088-.655-.088-.274 0-.532.052-.78.128-.668.2-1.225.641-1.573 1.23-.222.375-.358.807-.376 1.27 0 .02-.006.04-.006.062 0 .017-.006.033-.006.05 0 .208.027.407.072.6.131.584.452 1.09.892 1.469.183.158.385.293.606.398.356.17.75.272 1.17.272.04 0 .078-.009.116-.011.544-.023 1.045-.2 1.462-.495.693-.491 1.149-1.291 1.16-2.2 0-.012.003-.022.003-.033M1.487 55.958l-.7.027h.701l-.001-.027M41.161 100.955l-.016.041.019-.04-.003-.001"/>
        <path fill="#F59B00" d="M23.02 48.61c0-11.7 5.45-22.112 13.934-28.887L25.69 0h-.836C9.8 10.9 0 28.605 0 48.61c0 1.757.08 3.493.227 5.21h23.167c-.241-1.702-.373-3.44-.373-5.21M119.99 48.61c0-20.005-9.802-37.71-24.852-48.61h-44.72v53.354H75.45v-29.53h11.923c5.942 6.562 9.595 15.239 9.595 24.786 0 1.77-.133 3.508-.373 5.21h23.166c.149-1.717.229-3.453.229-5.21M59.607 87.332c-3.288 0-6.545-.439-9.688-1.294l-.524 1.288c3.31.917 6.746 1.381 10.212 1.381 18.896 0 34.967-13.896 37.787-32.469h-1.393c-2.805 17.8-18.248 31.094-36.394 31.094"/>
        <path fill="#F59B00" d="M59.633 90.576c-3.72 0-7.4-.514-10.944-1.518l-.476 1.168c3.697 1.063 7.538 1.603 11.42 1.603 20.668 0 38.083-15.238 40.913-35.59H99.28c-2.818 19.647-19.664 34.337-39.647 34.337"/>
        <path fill="#F59B00" d="M59.658 93.82c-4.15 0-8.252-.591-12.196-1.75l-.43 1.053c4.082 1.211 8.328 1.827 12.626 1.827 22.443 0 41.202-16.58 44.039-38.711h-1.141C99.729 77.735 81.48 93.82 59.658 93.82"/>
        <path fill="#F59B00" d="M59.683 97.065c-4.582 0-9.103-.671-13.447-1.985l-.382.938c4.466 1.36 9.116 2.054 13.83 2.054 24.216 0 44.318-17.921 47.16-41.834h-1.014c-2.836 23.345-22.484 40.827-46.147 40.827"/>
        <path fill="#F59B00" d="M59.709 100.308c-5.013 0-9.955-.75-14.699-2.218l-.335.823c4.851 1.51 9.907 2.28 15.034 2.28 12.695 0 24.837-4.72 34.188-13.291 9.061-8.306 14.744-19.521 16.096-31.664h-.891c-2.843 25.193-23.89 44.07-49.393 44.07"/>
        <path fill="#F59B00" d="M59.735 103.553c-5.446 0-10.808-.83-15.95-2.456l-.288.708c5.234 1.661 10.694 2.51 16.238 2.51 13.526 0 26.45-5.046 36.39-14.205 9.651-8.893 15.66-20.893 17.016-33.871h-.768c-2.832 26.608-25.749 47.314-52.638 47.314"/>
        <path fill="#F59B00" d="M59.762 106.797c-5.878 0-11.66-.912-17.201-2.693l-.241.593c5.617 1.812 11.482 2.739 17.442 2.739 14.356 0 28.062-5.37 38.59-15.118 10.241-9.482 16.576-22.266 17.935-36.08h-.644c-2.835 28.428-27.18 50.559-55.881 50.559"/>
        <path fill="#F59B00" d="M59.786 110.041c-6.308 0-12.51-.991-18.45-2.932l-.195.48c6.002 1.964 12.27 2.967 18.645 2.967 15.19 0 29.676-5.691 40.793-16.028 10.832-10.071 17.493-23.64 18.854-38.29h-.52c-2.84 30.245-28.615 53.803-59.127 53.803"/>
        <path fill="#FFF" d="M107.443 92.784h3.036l8.101 18.475h-4.275l-1.505-3.432h-7.732l-1.504 3.432H99.34l8.102-18.475zm-.95 11.586h4.803l-2.374-5.516-2.43 5.516zM121.224 92.784h8.26c4.831 0 6.388 1.953 6.388 4.724 0 1.82-.766 3.062-1.795 3.958 1.504.714 2.401 2.006 2.401 4.303 0 3.88-3.035 5.49-7.204 5.49h-8.05V92.784zm4.09 3.826v3.38h3.827c1.637 0 2.481-.608 2.481-1.558 0-1.215-.58-1.822-2.824-1.822h-3.484zm0 7.074v3.748h3.538c2.453 0 3.35-.554 3.35-1.9 0-1.294-.817-1.848-3.14-1.848h-3.748zM140.15 92.784L144.241 92.784 144.241 107.432 154.218 107.432 154.218 111.259 140.15 111.259zM157.256 92.784L171.375 92.784 171.375 96.61 161.346 96.61 161.346 100.042 170.715 100.042 170.715 103.737 161.346 103.737 161.346 107.432 171.612 107.432 171.612 111.259 157.256 111.259zM50.618 82.451V63.977h7.469c5.885 0 7.469 2.955 7.469 6.017 0 2.375-1.399 4.54-3.616 5.41l5.147 7.047H62.15l-4.513-6.308h-2.93v6.308h-4.09zm4.09-14.648v4.514h3.458c2.006 0 3.14-.846 3.14-2.323 0-1.32-.686-2.191-3.299-2.191h-3.299zM69.862 63.977L83.981 63.977 83.981 67.803 73.952 67.803 73.952 71.235 83.321 71.235 83.321 74.93 73.952 74.93 73.952 78.625 84.218 78.625 84.218 82.451 69.862 82.451zM94.33 63.977h3.035l8.102 18.474h-4.275l-1.505-3.431h-7.733l-1.504 3.431h-4.222l8.102-18.474zm-.95 11.586h4.803l-2.375-5.516-2.428 5.516zM108.11 63.977h5.86c7.917 0 10.635 4.17 10.635 9 0 5.278-3.272 9.474-11.032 9.474h-5.463V63.977zm4.09 3.826v10.822h1.716c4.619 0 6.467-2.218 6.467-5.649 0-3.114-1.663-5.173-6.467-5.173H112.2zM140.497 63.759L142.864 64.524 135.228 85.115 132.883 84.21zM149.712 63.759L152.08 64.524 144.444 85.115 142.099 84.21z"/>
        <g fill="#FFF">
            <path d="M6.089 5.724c-.51.712-1.52 1.183-2.616 1.183C1.346 6.907 0 5.55 0 3.455 0 1.52 1.318 0 3.405 0c1.213 0 2.136.51 2.588 1.117l-.568.547c-.519-.519-1.115-.827-2-.827-1.568 0-2.51 1.078-2.51 2.618C.914 5.03 1.961 6.07 3.53 6.07c.933 0 1.598-.385 2.058-.904l.5.558zM10.08 0c1.896 0 3.416 1.443 3.416 3.454 0 1.982-1.52 3.454-3.416 3.454-1.903 0-3.424-1.443-3.424-3.454C6.656 1.501 8.156 0 10.08 0m0 6.07c1.415 0 2.502-1.086 2.502-2.616 0-1.538-1.155-2.617-2.502-2.617-1.376 0-2.51 1.079-2.51 2.617 0 1.53 1.145 2.617 2.51 2.617M14.84.088L15.649.088 18.207 3.474 20.679.088 21.468.088 21.468 6.821 20.593 6.821 20.593 1.598 18.293 4.695 18.081 4.695 15.716 1.598 15.716 6.821 14.84 6.821zM23.178 6.821V.088h2.618c2.25 0 2.76 1.086 2.76 2.116 0 1.086-.712 2.135-2.77 2.135h-1.73v2.482h-.878zm.877-5.916v2.627h1.712c1.318 0 1.884-.54 1.884-1.337 0-.751-.48-1.29-1.817-1.29h-1.779zM29.844 6.821V.088h2.578c2.05 0 2.608.962 2.608 2.019 0 .963-.674 1.703-1.645 1.905l2.155 2.81H34.47L32.47 4.185h-1.75v2.635h-.876zM30.72.905v2.463h1.732c1.019 0 1.681-.49 1.681-1.261 0-.702-.431-1.202-1.74-1.202H30.72zM36.654.088L41.502.088 41.502.906 37.53.906 37.53 3.001 41.232 3.001 41.232 3.8 37.53 3.8 37.53 6.004 41.589 6.004 41.589 6.821 36.654 6.821zM47.955 3.81L43.945 3.81 43.945 6.821 43.069 6.821 43.069.088 43.945.088 43.945 2.992 47.955 2.992 47.955.088 48.831.088 48.831 6.821 47.955 6.821zM50.541.088L55.389.088 55.389.906 51.417.906 51.417 3.001 55.119 3.001 55.119 3.8 51.417 3.8 51.417 6.004 55.476 6.004 55.476 6.821 50.541 6.821zM61.929 6.821L57.802 1.684 57.802 6.821 56.955 6.821 56.955.088 57.648.088 61.766 5.243 61.766.088 62.612.088 62.612 6.821zM64.071 1.847c0-1 .962-1.847 2.492-1.847 1.049 0 1.943.328 2.453.982l-.567.567c-.404-.404-1.03-.721-1.904-.721-.645 0-1.57.25-1.57 1 0 1.645 4.156.732 4.156 3.136 0 1.155-1.049 1.943-2.442 1.943-1.192 0-2.3-.606-2.762-1.298l.568-.616c.432.559 1.23 1.087 2.28 1.087.77 0 1.452-.384 1.452-1.05 0-1.672-4.156-.691-4.156-3.183M70.507 6.821L71.383 6.821 71.383.088 70.507.088zM76.151 0c1.896 0 3.416 1.443 3.416 3.454 0 1.982-1.52 3.454-3.416 3.454-1.904 0-3.424-1.443-3.424-3.454 0-1.953 1.5-3.454 3.424-3.454m0 6.07c1.414 0 2.502-1.086 2.502-2.616 0-1.538-1.155-2.617-2.502-2.617-1.375 0-2.51 1.079-2.51 2.617 0 1.53 1.145 2.617 2.51 2.617M85.887 6.821L81.76 1.684 81.76 6.821 80.913 6.821 80.913.088 81.605.088 85.723 5.243 85.723.088 86.569.088 86.569 6.821zM90.77.088L96.33.088 96.33.906 93.982.906 93.982 6.821 93.107 6.821 93.107.906 90.77.906zM97.348.088L102.197.088 102.197.906 98.224.906 98.224 3.001 101.926 3.001 101.926 3.8 98.224 3.8 98.224 6.004 102.283 6.004 102.283 6.821 97.348 6.821zM109.486 5.724c-.51.712-1.519 1.183-2.616 1.183-2.127 0-3.472-1.356-3.472-3.452 0-1.935 1.317-3.455 3.405-3.455 1.212 0 2.135.51 2.587 1.117l-.567.547c-.52-.519-1.116-.827-2.001-.827-1.567 0-2.51 1.078-2.51 2.618 0 1.576 1.047 2.615 2.616 2.615.933 0 1.598-.385 2.058-.904l.5.558zM115.554 3.81L111.544 3.81 111.544 6.821 110.668 6.821 110.668.088 111.544.088 111.544 2.992 115.554 2.992 115.554.088 116.431.088 116.431 6.821 115.554 6.821zM123.114 6.821L118.987 1.684 118.987 6.821 118.14 6.821 118.14.088 118.833.088 122.951 5.243 122.951.088 123.796.088 123.796 6.821zM128.567 0c1.896 0 3.416 1.443 3.416 3.454 0 1.982-1.52 3.454-3.416 3.454-1.903 0-3.424-1.443-3.424-3.454 0-1.953 1.5-3.454 3.424-3.454m0 6.07c1.414 0 2.501-1.086 2.501-2.616 0-1.538-1.154-2.617-2.501-2.617-1.376 0-2.51 1.079-2.51 2.617 0 1.53 1.144 2.617 2.51 2.617M133.328.088L134.204.088 134.204 6.004 138.196 6.004 138.196 6.821 133.328 6.821zM142.004 0c1.895 0 3.415 1.443 3.415 3.454 0 1.982-1.52 3.454-3.415 3.454-1.904 0-3.424-1.443-3.424-3.454 0-1.953 1.5-3.454 3.424-3.454m0 6.07c1.414 0 2.501-1.086 2.501-2.616 0-1.538-1.155-2.617-2.501-2.617-1.375 0-2.511 1.079-2.511 2.617 0 1.53 1.145 2.617 2.51 2.617M149.842 3.377h2.694v2.511c-.596.645-1.635 1.02-2.598 1.02-2.039 0-3.54-1.357-3.54-3.454 0-1.933 1.472-3.454 3.434-3.454 1.135 0 2.02.376 2.54 1.02l-.548.568c-.404-.442-1.05-.751-1.933-.751-1.54 0-2.579 1.058-2.579 2.617 0 1.626 1.106 2.617 2.646 2.617.595 0 1.25-.174 1.741-.577V4.175h-1.857v-.798zM156.632 4.272L156.632 6.822 155.756 6.822 155.756 4.272 153.072.089 154.141.089 156.217 3.349 158.326.089 159.345.089z" transform="translate(12 122)"/>
        </g>
    </g>
</svg>
