<svg xmlns="http://www.w3.org/2000/svg" width="169" height="41" viewBox="0 0 169 41">
    <g fill="none" fill-rule="evenodd">
        <path fill="#F8FAFB" fill-rule="nonzero" d="M10.904 29.04v-5.76h3.864c5.232 0 7.008-2.784 7.008-5.52 0-1.464-.384-2.616-1.344-3.744-.984-1.128-2.928-1.776-5.64-1.776H8v16.8h2.904zm3.816-8.472h-3.816v-5.616h3.984c2.568 0 3.864.936 3.864 2.784 0 1.896-1.344 2.832-4.032 2.832zm10.17 8.472l1.607-3.72h7.656l1.632 3.72h3.048l-7.368-16.8h-2.208l-7.368 16.8h3zm8.183-6.216h-5.52l2.76-6.384 2.76 6.384zm14.561 6.456c1.944 0 3.552-.48 4.824-1.44 1.272-.96 1.92-2.256 1.92-3.888 0-1.632-.984-3.096-2.904-3.744 1.44-.744 2.328-1.992 2.328-3.432 0-1.464-.6-2.64-1.776-3.504C50.85 12.432 49.338 12 47.538 12c-3.192 0-5.592 1.104-7.2 3.312l2.256 1.56c1.176-1.44 2.688-2.16 4.536-2.16 2.184 0 3.744.696 3.744 2.232 0 1.272-1.44 2.16-3.48 2.16H44.73v2.736h2.808c2.472 0 3.912.792 3.912 2.136 0 1.464-1.56 2.592-3.888 2.592-2.376 0-4.2-.816-5.472-2.448l-2.256 1.584c1.536 2.376 4.128 3.576 7.8 3.576zm13.073-.24V17.376l5.232 6.696h.744l5.112-6.672v11.64H74.7v-16.8h-2.544l-5.784 7.8-6-7.8h-2.568v16.8h2.904zm30.93 0v-2.736H81.82V21.84h8.952V19.2H81.82v-4.224h9.576V12.24h-12.48v16.8h12.72zm10.505 0V14.976h5.64V12.24H93.598v2.736h5.64V29.04h2.904zm21.569 0v-16.8h-2.904v7.224c-1.2.792-2.592 1.176-4.176 1.176-2.808 0-4.032-1.296-4.032-4.584V12.24h-2.904v5.472c0 3.84 2.568 5.64 6.48 5.64.84 0 1.68-.096 2.568-.312.888-.216 1.56-.456 2.064-.744v6.744h2.904zm6.617 0l9.24-11.64v11.64h2.904v-16.8h-2.448l-9.216 11.64V12.24h-2.904v16.8h2.424zm19.265 0v-5.856l1.512-1.464 6.504 7.32h3.864l-8.184-9.264 7.632-7.536h-3.792l-7.536 7.368V12.24h-2.904v16.8h2.904z"/>
        <g fill="#F15454" transform="matrix(1 0 0 -1 0 31)">
            <path d="M4 0L6 0 6 22 4 22z"/>
            <circle cx="5" cy="26" r="5"/>
        </g>
        <g fill="#F15454" transform="translate(159 10)">
            <path d="M4 0L6 0 6 22 4 22z"/>
            <circle cx="5" cy="26" r="5"/>
        </g>
    </g>
</svg>
