<svg xmlns="http://www.w3.org/2000/svg" width="90" height="53" viewBox="0 0 90 53">
    <g fill="none" fill-rule="evenodd">
        <path fill="#8EDAE5" d="M7.124 29.664c.7.32 1.394.692 1.978 1.32.099-.2.232-.376.394-.524-.636-.653-1.37-1.043-2.073-1.366-.035.224-.142.422-.3.57M5.46 28.838c.024-.228.121-.433.273-.589-.614-.415-1.039-.982-1.125-2.012h-.64c.101 1.364.712 2.098 1.491 2.6M17.037 43.316c.163.139.3.305.403.493.75-.557 1.509-1.328 1.931-2.135-.22-.042-.412-.158-.555-.32-.368.727-1.08 1.45-1.779 1.962M7.676 38.384c-.444-.026-.835-.057-1.162-.09.007.048.015.096.015.145 0 .067-.007.132-.02.196.331.033.709.061 1.124.084.011-.112.026-.224.043-.335M6.623 27.967c-.015-.527.007-1.103.08-1.73h-.34c-.071.626-.093 1.2-.078 1.728.052-.008.104-.016.158-.016.062 0 .121.007.18.018M10.247 38.433c-.697.012-1.345.003-1.926-.019-.018.112-.027.222-.038.333.434.015.892.024 1.362.024.207 0 .418-.006.627-.01-.015-.094-.029-.19-.029-.288 0-.014.004-.027.004-.04M6.092 35.094c-.115-.025-.221-.071-.318-.133-.144.665-.188 1.235-.225 1.728-.023.29-.045.539-.081.763.022-.002.043-.007.066-.007.095 0 .185.017.272.042.037-.235.058-.49.079-.772.036-.466.078-1.002.207-1.621M6.777 29.875c-.105.038-.216.062-.333.062.119 1.086.206 2.063-.113 3.204.117.004.228.027.331.068.33-1.197.238-2.208.115-3.334M13.773 38.473c0 .016-.004.032-.005.048 1.275.134 3.098.676 4.89 1.77.093-.203.254-.368.453-.469-2.002-1.247-4.066-1.84-5.452-1.957.07.19.114.393.114.608M20.535 40.837c-.032.228-.138.432-.298.583.36.302.706.64 1.042.995l.267-.658c-.326-.33-.664-.637-1.011-.92M9.139 26.236h-.337c-.008 1.146-.476 1.92-1.436 2.34.042.104.065.216.069.334 1.125-.468 1.695-1.366 1.704-2.674M5.774 29.674c-.16-.147-.27-.343-.309-.565-.54.244-1.157.287-1.716.324l-.096.007c.122.188.21.4.254.626.58-.039 1.249-.102 1.867-.392M3.807 34.042c.44.34.943.511 1.485.511.038 0 .077-.008.115-.01-.047-.101-.075-.212-.086-.329-.479.008-.917-.138-1.308-.44-.545-.421-.912-1.088-1.109-1.764-.102.047-.21.084-.322.11.216.734.619 1.453 1.225 1.922M16.136 46.398c-.078.01-.155.023-.235.023-.144 0-.283-.022-.417-.055.068 1.115.59 2.49 2.58 3.962l.251-.618c-1.627-1.244-2.1-2.37-2.18-3.312M12.145 35.224c.188.108.391.194.606.262.169-.992.153-2.06-.473-2.965-.101.212-.242.4-.416.556.368.651.396 1.399.283 2.147M13.769 40.207c-.22-.133-.43-.262-.626-.393-.182.154-.393.27-.627.34.289.22.606.413.92.603l.105.064c.274-.098.546-.179.819-.244-.2-.13-.399-.253-.591-.37M14.73 40.835c-.276.054-.55.125-.823.212.725.463 1.363.982 1.637 1.88.116-.024.235-.037.357-.037.104 0 .205.014.305.031-.247-.975-.83-1.605-1.476-2.086M8.953 32.14c-.026-.122-.041-.246-.041-.375 0-.123.013-.243.036-.358-.734.34-1.362.975-1.86 1.48-.121.122-.242.243-.358.353.198.096.358.255.456.453.114-.109.231-.225.36-.355.477-.484.939-.918 1.407-1.199M12.448 36.77c.085-.3.17-.62.24-.954-.21-.065-.412-.144-.604-.243-.08.395-.186.784-.294 1.156.073-.009.144-.022.218-.022.153 0 .299.026.44.062M2.258 32.165c-.03.002-.058.009-.088.009-.192 0-.375-.038-.549-.096-.208 2.428.948 4.937 2.936 6.194.038-.224.151-.422.313-.568-1.617-1.071-2.792-3.278-2.612-5.539M20.091 41.534c-.095.062-.202.108-.316.133.17.754.422 1.499.917 2.193l.155-.382c-.393-.616-.608-1.275-.756-1.944M14.561 36.128c.663.067 1.348.136 1.974.327 2.065.632 2.58 1.834 2.875 3.271.048-.007.097-.015.147-.015.068 0 .135.007.199.02-.307-1.53-.846-2.902-3.122-3.599-.658-.201-1.36-.271-2.039-.34-.662-.066-1.291-.132-1.844-.306-.02.11-.04.221-.063.33.587.181 1.233.248 1.873.312"/>
        <path fill="#8EDAE5" d="M12.084 35.573c.024-.116.044-.232.061-.349-.55-.315-.973-.833-1.203-1.714-.085.013-.17.026-.259.026-.03 0-.056-.007-.085-.008.269 1.087.81 1.693 1.486 2.045"/>
        <path fill="#8EDAE5" d="M12.084 35.573c.192.1.394.178.604.243.023-.109.044-.22.063-.33-.215-.068-.418-.154-.606-.262-.017.117-.037.233-.06.349M8.284 38.747c-.225-.008-.442-.017-.651-.028-.136 1.36.185 2.684 1.439 3.72.04-.23.16-.43.33-.578-.973-.867-1.234-1.962-1.118-3.114M14.227 44.123c.066-.208.169-.398.303-.565-1.175-.63-2.078-.717-2.836-.786-.24-.022-.456-.047-.665-.082-.02.235-.117.446-.271.605.29.06.579.089.877.116.729.068 1.533.144 2.592.712M17.142 45.909c-.154.153-.338.278-.54.365.419.455 1.111 1.015 2.453 1.659l.227-.602.008-.02c-1.178-.565-1.765-1.007-2.148-1.402M8.598 37.27c-.185-.132-.365-.269-.538-.412-.17.502-.306 1.015-.384 1.526.204.011.418.022.645.03.06-.38.156-.762.277-1.143M8.3 36.21c.169.146.341.288.523.425.34-.888.777-1.744 1.158-2.486.12-.234.229-.449.33-.654-.215-.046-.415-.132-.594-.249-.096.193-.198.395-.308.61-.351.684-.765 1.493-1.109 2.354M10.755 30.001c.221.01.433.055.627.138.158-.927.089-2.045-.633-3.903h-.688c.75 1.843.842 2.878.694 3.765"/>
        <path fill="#8EDAE5" d="M7.676 38.384c-.017.111-.032.223-.043.335.208.01.426.02.65.028.012-.11.02-.22.038-.333-.227-.008-.44-.019-.645-.03M5.837 39.381c-.096.031-.197.052-.303.052-.014 0-.027-.003-.04-.003.39 1.173 1.23 2.412 2.395 3.044.326.177.733.33 1.202.386-.022-.08-.036-.164-.036-.251 0-.034.006-.065.01-.097-.346-.05-.686-.156-1.015-.335-1.041-.564-1.832-1.705-2.213-2.796M14.36 40.577c.124.082.249.167.37.258 1.119-.22 2.302-.188 3.842-.07-.001-.021-.007-.041-.007-.063 0-.095.018-.186.044-.273-1.69-.128-2.987-.152-4.25.148M13.907 41.047c-.12-.076-.243-.15-.366-.226-.69.246-1.392.6-2.169 1.104-.146.095-.292.178-.438.252.05.101.08.212.093.33.173-.085.35-.181.53-.298.851-.554 1.604-.923 2.35-1.162M20.262 40.007c.084.085.152.185.2.296.552-.157 1.046.057 1.557.29l.127-.313c-.537-.245-1.168-.525-1.884-.273"/>
        <path fill="#8EDAE5" d="M14.36 40.577c-.273.065-.545.146-.819.244.123.075.246.15.366.226.274-.088.547-.158.824-.212-.122-.091-.247-.176-.371-.258M5.606 33.426c.153-.152.357-.25.582-.276-.593-1.483-1.483-2.184-2.263-2.581-.022.226-.083.438-.182.63.665.364 1.374.983 1.863 2.227M10.266 38.25c.028-.224.097-.432.201-.62-.58-.278-1.136-.615-1.644-.995-.081.21-.157.422-.225.636.52.373 1.08.705 1.668.978M.698 26.236H.37l-.315.012c.019.517.14 1.845.813 2.964.146-.16.32-.29.515-.387-.561-.968-.667-2.125-.685-2.589M8.06 36.858c.074-.218.155-.435.24-.648-.5-.434-.937-.907-1.286-1.399-.151.158-.354.263-.582.293.43.627.984 1.223 1.628 1.754"/>
        <path fill="#8EDAE5" d="M8.823 36.635c-.181-.137-.355-.28-.523-.425-.085.213-.166.43-.24.648.173.143.353.28.538.413.068-.213.144-.426.225-.636M3.254 26.236h-.34c-.083.78-.291 1.566-.597 2.411.116.01.228.03.337.06.309-.862.518-1.668.6-2.47M12.248 45.432c-.872-.384-1.463-1.16-1.807-1.915-.105.045-.218.07-.337.077.37.837 1.027 1.715 2.007 2.147.4.177.825.265 1.268.265.385 0 .783-.073 1.19-.205-.077-.089-.143-.184-.201-.287-.759.228-1.47.206-2.12-.082M11.137 39.999c-.099-.057-.19-.122-.277-.196-.456.509-.94 1.072-1.075 1.854.084-.023.17-.04.261-.04.031 0 .06.007.09.01.145-.658.572-1.15.998-1.624l.003-.004zM17.666 44.655c0 .115-.013.227-.034.335.556.121 1.308.328 2.336.653l.127-.314c-1.056-.334-1.84-.548-2.429-.674M6.302 33.379c-.01 0-.017.005-.026.005-.01 0-.017.005-.026.005-.226.017-.417.134-.543.307-.09.124-.153.267-.153.432 0 .025.012.046.015.071.011.118.05.224.111.32.044.069.094.13.157.18.09.074.195.121.313.146.042.01.082.025.127.026.009 0 .016.005.025.005.23 0 .428-.11.566-.274.109-.13.182-.292.182-.474 0-.092-.022-.178-.052-.26-.073-.193-.218-.351-.408-.43-.02-.01-.045-.007-.067-.014-.07-.023-.142-.045-.221-.045M5.7 28.983v.005c.015.234.138.431.32.56.114.08.247.136.397.142.01 0 .017.005.026.005.11 0 .213-.026.307-.069.043-.02.078-.051.116-.078.18-.126.3-.32.318-.55 0-.004.002-.007.003-.01 0-.016.009-.03.009-.045 0-.101-.022-.197-.058-.285-.09-.216-.279-.37-.508-.43-.061-.016-.12-.037-.187-.037-.053 0-.101.02-.152.03-.129.028-.246.08-.342.165-.156.138-.258.333-.258.557 0 .014.008.026.008.04M10.462 43.217c.187-.129.315-.331.327-.572 0-.013.007-.024.007-.036l-.001-.006c-.001-.12-.036-.228-.087-.329-.117-.23-.344-.388-.614-.406-.017 0-.03-.01-.048-.01-.103 0-.202.022-.291.06-.06.025-.11.068-.16.108-.16.123-.265.303-.286.514-.002.024-.013.044-.013.069v.003c.001.095.022.184.055.267.104.268.356.457.657.473.014 0 .025.007.038.007.107 0 .208-.024.3-.065.044-.019.077-.051.116-.077M2.17 31.69c.05 0 .098-.009.147-.014.052-.006.103-.012.152-.024.114-.028.22-.072.32-.128.223-.123.403-.307.52-.533.092-.177.149-.375.149-.588 0-.017-.005-.032-.006-.049-.003-.086-.014-.17-.033-.251-.056-.231-.172-.44-.334-.603-.162-.165-.369-.282-.6-.34-.1-.026-.206-.044-.315-.044-.01 0-.02.003-.031.003-.173.004-.337.041-.486.107-.201.089-.372.23-.504.402-.165.216-.266.483-.266.775 0 .535.328.994.794 1.188.152.064.318.1.493.1M5.754 39.147c.252-.079.437-.28.498-.54.014-.055.034-.108.034-.168 0-.061-.02-.115-.035-.172-.062-.257-.246-.457-.496-.535-.071-.023-.143-.045-.221-.045-.044 0-.083.018-.124.025-.12.02-.226.066-.32.136-.176.133-.296.332-.303.568 0 .008-.005.015-.005.023 0 .371.274.666.628.727.042.008.08.026.124.026.078 0 .15-.023.22-.045M19.458 39.972c-.027.004-.053.01-.079.016-.232.058-.425.212-.515.43-.004.01-.003.02-.006.03-.029.08-.051.164-.051.254 0 .029.013.054.016.082.014.114.051.216.11.308.119.191.315.321.55.345.026.003.048.015.074.015.059 0 .11-.02.165-.033.118-.027.225-.076.314-.152l.005-.004c.16-.137.266-.334.266-.561 0-.018-.009-.033-.01-.051-.007-.094-.026-.182-.064-.263-.051-.109-.13-.197-.224-.27-.062-.047-.127-.089-.202-.116-.079-.028-.161-.05-.25-.05-.035 0-.065.015-.099.02M9.396 31.765c0 .053.009.103.015.154.044.363.236.679.518.884.166.121.36.2.572.231l.028.003c.05.006.101.015.154.015.055 0 .107-.01.16-.016.288-.036.547-.162.744-.356.16-.158.273-.358.334-.581.029-.107.05-.218.05-.334 0-.494-.284-.92-.694-1.135-.178-.094-.379-.152-.594-.152-.01 0-.02.003-.031.003-.323.008-.615.136-.837.34-.12.11-.219.243-.29.392-.03.064-.055.132-.075.201-.032.113-.054.229-.054.351M16.124 45.917c.052-.009.1-.024.15-.038.211-.065.402-.18.552-.336.168-.175.287-.396.335-.642.015-.08.024-.161.024-.245 0-.032-.007-.062-.009-.093-.013-.17-.057-.332-.13-.478-.099-.196-.242-.366-.422-.49-.1-.067-.21-.116-.326-.154-.126-.041-.258-.07-.397-.07-.086 0-.17.01-.252.026-.276.056-.518.202-.7.405-.143.16-.248.353-.298.569-.02.092-.034.187-.034.285 0 .256.077.493.206.693.065.1.145.188.234.267.124.108.267.193.425.248.132.046.272.076.419.076.076 0 .15-.01.223-.023M13.292 38.473c0-.21-.055-.405-.144-.58-.167-.327-.468-.573-.832-.663-.1-.024-.201-.041-.307-.041-.129 0-.25.024-.367.06-.312.093-.573.3-.736.576-.104.176-.167.378-.177.595l-.003.03-.002.023c0 .097.013.19.034.282.061.273.212.51.418.687.085.074.18.138.284.187.167.08.351.128.549.128.018 0 .035-.005.053-.006.255-.01.49-.093.686-.232.324-.23.538-.605.543-1.031l.001-.015M.697 26.224l-.327.013h.328v-.013M19.29 47.311l-.008.02.009-.02h-.001"/>
        <path fill="#F59C00" d="M10.789 22.78c0-5.482 2.554-10.362 6.53-13.537L12.038 0h-.392C4.593 5.108 0 13.406 0 22.78c0 .824.037 1.638.107 2.442h10.856c-.113-.798-.174-1.612-.174-2.441M56.231 22.78c0-9.374-4.593-17.672-11.646-22.78H23.628v25.004h11.731V11.165h5.587c2.785 3.075 4.497 7.141 4.497 11.616 0 .829-.062 1.643-.175 2.441h10.857c.07-.804.106-1.618.106-2.441M27.934 40.927c-1.54 0-3.067-.206-4.54-.606l-.246.603c1.552.43 3.162.648 4.786.648 8.856 0 16.387-6.513 17.709-15.217h-.653c-1.315 8.342-8.552 14.572-17.056 14.572"/>
        <path fill="#F59C00" d="M27.946 42.447c-1.743 0-3.468-.24-5.129-.711l-.222.547c1.732.498 3.532.751 5.351.751 9.686 0 17.848-7.14 19.174-16.679h-.594c-1.32 9.208-9.215 16.092-18.58 16.092"/>
        <path fill="#F59C00" d="M27.958 43.968c-1.945 0-3.867-.278-5.715-.82l-.201.493c1.913.567 3.902.856 5.916.856 10.518 0 19.309-7.77 20.638-18.142h-.535c-1.325 10.075-9.876 17.613-20.103 17.613"/>
        <path fill="#F59C00" d="M27.97 45.488c-2.147 0-4.266-.314-6.302-.93l-.179.44c2.093.637 4.272.962 6.481.962 11.349 0 20.769-8.398 22.102-19.605h-.476C48.267 37.295 39.06 45.488 27.97 45.488"/>
        <path fill="#F59C00" d="M27.982 47.008c-2.35 0-4.665-.351-6.888-1.04l-.157.386c2.273.708 4.642 1.069 7.045 1.069 5.95 0 11.64-2.212 16.022-6.23 4.246-3.891 6.91-9.147 7.543-14.838h-.418c-1.332 11.806-11.195 20.653-23.147 20.653"/>
        <path fill="#F59C00" d="M27.994 48.529c-2.552 0-5.065-.39-7.474-1.151l-.135.332c2.452.778 5.011 1.175 7.61 1.175 6.338 0 12.394-2.364 17.053-6.656 4.523-4.168 7.338-9.791 7.974-15.874h-.36C51.335 38.825 40.595 48.53 27.994 48.53"/>
        <path fill="#F59C00" d="M28.006 50.049c-2.754 0-5.463-.427-8.06-1.263l-.113.279c2.633.85 5.38 1.283 8.173 1.283 6.729 0 13.152-2.516 18.086-7.084 4.8-4.444 7.768-10.435 8.405-16.909h-.302C52.866 39.677 41.457 50.05 28.006 50.05"/>
        <path fill="#F59C00" d="M28.018 51.57c-2.956 0-5.862-.466-8.646-1.375l-.091.225c2.812.92 5.75 1.391 8.737 1.391 7.118 0 13.907-2.668 19.117-7.512 5.076-4.72 8.198-11.078 8.835-17.944h-.243C54.397 40.53 42.317 51.57 28.018 51.57"/>
        <path fill="#FFF" d="M29.436 31.789L25.6 31.789 25.6 38.657 23.682 38.657 23.682 29.995 31.354 29.995 31.354 38.657 29.436 38.657zM35.378 31.789v2.352h1.646c1.2 0 1.708-.446 1.708-1.176 0-.68-.421-1.176-1.634-1.176h-1.72zm-1.918 6.868v-8.662h3.589c2.945 0 3.675 1.56 3.675 2.982 0 1.46-.94 2.958-3.675 2.958h-1.671v2.722H33.46zM46.368 36.95c1.362 0 2.463-1.015 2.463-2.624 0-1.609-1.201-2.623-2.463-2.623-1.312 0-2.475 1.014-2.475 2.623 0 1.609 1.163 2.624 2.475 2.624m0-7.104c2.475 0 4.455 1.906 4.455 4.48 0 2.55-1.98 4.48-4.455 4.48S41.9 36.9 41.9 34.325c0-2.5 1.955-4.48 4.467-4.48M58.274 29.893L59.384 30.252 55.803 39.906 54.705 39.482zM62.595 29.893L63.705 30.252 60.124 39.906 59.025 39.482zM44.834 52.164h-1.918V48.91c-.47.248-1.3.483-2.117.483-1.93 0-3.44-.841-3.44-2.97v-2.92h1.931v1.707c0 1.783.532 2.389 1.77 2.389.618 0 1.36-.198 1.856-.52v-3.576h1.918v8.662zM46.123 43.502L53.597 43.502 53.597 45.296 50.813 45.296 50.813 52.164 48.894 52.164 48.894 45.296 46.123 45.296zM54.885 43.502L61.505 43.502 61.505 45.296 56.803 45.296 56.803 46.905 61.196 46.905 61.196 48.638 56.803 48.638 56.803 50.37 61.617 50.37 61.617 52.164 54.885 52.164zM69.167 48.699L65.318 48.699 65.318 52.164 63.401 52.164 63.401 43.502 65.318 43.502 65.318 46.905 69.167 46.905 69.167 43.502 71.085 43.502 71.085 52.164 69.167 52.164zM73.178 52.164L73.178 43.502 75.096 43.502 75.096 48.81 79.291 43.502 80.888 43.502 80.888 52.164 78.969 52.164 78.969 46.88 74.75 52.164zM82.98 43.502L89.601 43.502 89.601 45.296 84.898 45.296 84.898 46.905 89.291 46.905 89.291 48.638 84.898 48.638 84.898 50.37 89.712 50.37 89.712 52.164 82.98 52.164z"/>
    </g>
</svg>
