<svg xmlns="http://www.w3.org/2000/svg" width="192" height="129" viewBox="0 0 192 129">
    <g fill="none" fill-rule="evenodd">
        <path fill="#8EDAE5" d="M15.198 63.283c1.493.684 2.974 1.476 4.22 2.814.21-.424.494-.8.841-1.117-1.357-1.391-2.925-2.223-4.424-2.913-.074.477-.302.9-.637 1.216M11.647 61.52c.051-.485.26-.922.583-1.254-1.309-.887-2.216-2.097-2.4-4.295H8.463c.217 2.912 1.519 4.477 3.183 5.55M36.347 92.408c.347.295.637.65.86 1.052 1.6-1.19 3.217-2.834 4.118-4.555-.47-.09-.88-.338-1.184-.683-.785 1.55-2.302 3.091-3.794 4.186M16.375 81.885c-.947-.055-1.782-.122-2.478-.19.015.1.03.203.03.309 0 .142-.014.282-.041.417.706.07 1.512.131 2.398.179.023-.238.054-.477.09-.715M14.129 59.663c-.031-1.124.015-2.352.171-3.692h-.725c-.152 1.338-.199 2.563-.168 3.688.111-.018.223-.034.338-.034.132 0 .26.015.384.038M21.86 81.99c-1.488.027-2.87.007-4.109-.04-.038.239-.056.474-.08.71.926.033 1.902.052 2.906.052.44 0 .89-.013 1.338-.02-.034-.202-.063-.406-.063-.617 0-.03.008-.056.009-.085M12.997 74.866c-.246-.053-.473-.15-.678-.281-.308 1.418-.402 2.633-.482 3.685-.047.618-.095 1.149-.172 1.627.047-.004.092-.015.14-.015.204 0 .396.038.582.09.078-.5.122-1.047.168-1.647.076-.994.165-2.137.442-3.459M14.457 63.734c-.224.08-.46.131-.71.131.253 2.318.44 4.402-.241 6.836.25.008.487.057.707.144.705-2.552.507-4.709.244-7.11M29.383 82.075c0 .035-.01.068-.01.103 2.72.285 6.608 1.442 10.43 3.776.2-.434.542-.784.967-1-4.27-2.661-8.673-3.926-11.631-4.176.15.406.244.84.244 1.297M43.807 87.119c-.067.487-.294.92-.635 1.243.769.644 1.506 1.365 2.223 2.124l.57-1.405c-.697-.702-1.417-1.358-2.158-1.962M19.496 55.971h-.718c-.017 2.444-1.016 4.095-3.064 4.991.089.222.138.462.146.712 2.402-.997 3.616-2.914 3.636-5.703M12.318 63.304c-.34-.313-.577-.73-.659-1.205-1.154.521-2.468.613-3.66.692-.072.004-.136.01-.206.015.26.4.449.851.542 1.336 1.238-.084 2.664-.218 3.983-.838M8.12 72.623c.939.724 2.013 1.09 3.17 1.09.08 0 .164-.018.245-.021-.1-.217-.16-.453-.182-.701-1.023.015-1.958-.295-2.791-.938-1.164-.9-1.946-2.323-2.366-3.764-.22.1-.449.178-.688.236.461 1.563 1.32 3.098 2.613 4.098M34.422 98.982c-.165.022-.329.05-.5.05-.307 0-.603-.048-.889-.117.145 2.378 1.26 5.311 5.505 8.45l.535-1.317c-3.473-2.653-4.482-5.054-4.65-7.066M25.91 75.145c.401.23.833.413 1.292.558.36-2.116.327-4.395-1.008-6.325-.216.453-.518.853-.888 1.185.785 1.391.844 2.985.604 4.582M29.374 85.776c-.47-.285-.918-.56-1.336-.84-.387.329-.839.577-1.337.728.616.466 1.292.879 1.962 1.284l.225.137c.583-.208 1.164-.382 1.746-.52-.424-.28-.85-.54-1.26-.79M31.425 87.114c-.59.116-1.173.267-1.757.453 1.547.987 2.908 2.095 3.493 4.01.247-.051.5-.078.76-.078.224 0 .44.03.65.066-.524-2.08-1.77-3.424-3.146-4.45M19.1 68.563c-.056-.257-.088-.523-.088-.797 0-.262.027-.518.078-.765-1.567.727-2.906 2.08-3.969 3.156-.259.262-.517.52-.763.754.422.205.764.545.973.967.242-.232.493-.48.766-.757 1.02-1.033 2.004-1.96 3.003-2.558M26.556 78.441c.18-.637.363-1.322.512-2.033-.448-.138-.88-.307-1.288-.52-.17.843-.397 1.674-.627 2.468.154-.02.306-.048.465-.048.325 0 .636.055.938.133M4.818 68.62c-.064.002-.124.018-.188.018-.411 0-.8-.082-1.171-.204-.445 5.179 2.02 10.532 6.262 13.213.08-.479.323-.9.669-1.212-3.45-2.285-5.957-6.993-5.572-11.816M42.861 88.607c-.203.131-.43.229-.675.283.364 1.607.9 3.197 1.956 4.679l.332-.816c-.838-1.314-1.297-2.72-1.613-4.146"/>
        <path fill="#8EDAE5" d="M31.064 77.074c1.414.142 2.876.289 4.21.697 4.407 1.348 5.503 3.912 6.133 6.978.104-.016.207-.032.315-.032.145 0 .287.015.423.043-.653-3.266-1.804-6.192-6.66-7.678-1.403-.43-2.9-.579-4.349-.724-1.411-.142-2.754-.283-3.934-.655-.04.237-.085.472-.134.705 1.252.386 2.63.529 3.996.666M25.78 75.888c.05-.247.092-.495.13-.743-1.173-.672-2.077-1.777-2.567-3.657-.182.027-.364.056-.553.056-.062 0-.12-.015-.181-.018.574 2.32 1.726 3.611 3.171 4.362"/>
        <path fill="#8EDAE5" d="M25.78 75.888c.409.213.84.382 1.288.52.049-.233.093-.468.134-.705-.458-.144-.89-.327-1.292-.558-.038.248-.08.496-.13.743M17.671 82.66c-.478-.016-.942-.037-1.387-.06-.291 2.902.395 5.727 3.069 7.938.086-.491.342-.92.705-1.234-2.075-1.85-2.632-4.187-2.387-6.644M30.35 94.13c.142-.445.36-.85.646-1.206-2.505-1.343-4.431-1.53-6.05-1.678-.51-.047-.97-.1-1.417-.173-.042.5-.25.95-.579 1.29.617.126 1.235.19 1.87.248 1.556.144 3.272.307 5.53 1.518M36.57 97.939c-.33.327-.72.592-1.152.78.893.97 2.37 2.164 5.232 3.538l.485-1.285.017-.041c-2.513-1.207-3.766-2.15-4.582-2.992M18.343 79.511c-.395-.283-.78-.575-1.148-.88-.364 1.07-.654 2.164-.82 3.254.437.025.893.048 1.376.066.128-.81.333-1.627.592-2.44M17.707 77.247c.36.312.728.616 1.115.907.726-1.893 1.658-3.72 2.47-5.302.257-.5.49-.958.705-1.395-.459-.098-.886-.282-1.267-.531-.205.411-.422.84-.658 1.3-.749 1.46-1.632 3.185-2.365 5.021M22.943 64.003c.472.02.926.116 1.338.294.338-1.978.19-4.363-1.349-8.326h-1.469c1.602 3.931 1.798 6.138 1.48 8.032"/>
        <path fill="#8EDAE5" d="M16.375 81.885c-.037.238-.068.477-.091.715.444.024.91.044 1.388.06.023-.236.041-.47.08-.71-.485-.018-.94-.04-1.377-.065M12.452 84.014c-.206.066-.42.11-.646.11-.03 0-.057-.007-.086-.008.834 2.505 2.625 5.147 5.11 6.496.696.377 1.564.701 2.564.823-.046-.173-.078-.35-.078-.536 0-.071.014-.138.022-.208-.738-.105-1.463-.332-2.165-.713-2.22-1.204-3.908-3.639-4.721-5.964M30.634 86.565c.266.174.53.355.791.55 2.386-.47 4.909-.402 8.195-.15-.003-.045-.014-.088-.014-.134 0-.203.039-.396.093-.583-3.605-.273-6.372-.324-9.065.317M29.668 87.568c-.256-.164-.518-.323-.78-.483-1.471.525-2.97 1.28-4.627 2.355-.311.203-.624.38-.936.537.107.216.173.453.2.703.368-.179.744-.385 1.13-.635 1.816-1.18 3.421-1.97 5.013-2.477M43.226 85.348c.179.182.323.396.428.631 1.176-.333 2.23.122 3.32.62l.272-.67c-1.147-.52-2.493-1.119-4.02-.58"/>
        <path fill="#8EDAE5" d="M30.634 86.565c-.582.138-1.163.311-1.746.52.263.16.524.32.78.483.584-.188 1.167-.338 1.757-.453-.26-.195-.525-.376-.79-.55M11.96 71.308c.326-.324.76-.532 1.24-.588-1.265-3.164-3.162-4.66-4.827-5.506-.046.482-.178.934-.388 1.346 1.419.774 2.932 2.095 3.974 4.748M21.9 81.598c.062-.475.208-.919.43-1.322-1.238-.59-2.424-1.31-3.508-2.122-.173.45-.335.902-.48 1.357 1.109.796 2.304 1.505 3.558 2.087M1.489 55.971h-.7l-.673.025c.042 1.103.3 3.935 1.736 6.323.312-.34.683-.617 1.099-.826-1.198-2.065-1.424-4.533-1.462-5.522M17.194 78.63c.16-.466.331-.927.513-1.383-1.067-.925-2-1.934-2.744-2.983-.323.337-.756.56-1.241.624.916 1.338 2.1 2.61 3.472 3.743"/>
        <path fill="#8EDAE5" d="M18.822 78.154c-.386-.291-.756-.595-1.115-.907-.182.456-.354.917-.512 1.383.368.306.753.598 1.148.881.144-.455.307-.908.48-1.357M6.942 55.971h-.725c-.177 1.662-.622 3.34-1.273 5.143.246.02.486.063.717.13.66-1.84 1.107-3.56 1.28-5.273M26.128 96.923c-1.858-.82-3.12-2.477-3.855-4.087-.222.097-.465.15-.718.165.788 1.786 2.192 3.658 4.282 4.58.853.377 1.76.565 2.705.565.82 0 1.671-.156 2.538-.438-.163-.188-.305-.392-.429-.612-1.619.488-3.135.44-4.523-.173M23.76 85.331c-.211-.121-.408-.26-.591-.418-.973 1.085-2.005 2.287-2.294 3.955.178-.049.363-.083.557-.083.066 0 .129.013.193.02.307-1.405 1.22-2.452 2.127-3.465l.008-.009zM37.688 95.264v.002c0 .244-.027.482-.072.713 1.186.259 2.79.699 4.982 1.392l.272-.669c-2.254-.713-3.925-1.17-5.182-1.438M13.444 71.208c-.02 0-.036.01-.055.012-.02 0-.036.01-.055.01-.483.036-.89.285-1.159.656-.19.263-.326.57-.326.92 0 .054.025.1.03.153.026.251.11.477.239.68.093.148.2.278.334.387.192.157.417.257.667.31.09.02.176.053.272.056.019 0 .034.01.053.01.491 0 .914-.235 1.207-.585.232-.277.389-.622.389-1.011 0-.196-.047-.38-.112-.553-.154-.414-.464-.75-.869-.92-.043-.018-.097-.015-.142-.029-.152-.048-.305-.096-.473-.096M12.159 61.831l.001.01c.032.5.295.92.681 1.193.246.173.528.293.849.305.02 0 .036.01.056.01.234 0 .453-.055.653-.146.093-.042.167-.11.25-.168.381-.268.64-.68.677-1.172 0-.008.005-.015.005-.023.003-.033.02-.061.02-.096 0-.215-.046-.42-.124-.608-.19-.46-.594-.786-1.083-.915-.13-.034-.257-.081-.398-.081-.115 0-.216.043-.324.066-.276.059-.527.17-.73.35-.333.295-.551.712-.551 1.188 0 .031.016.057.018.087M22.318 92.196c.4-.275.673-.707.699-1.22 0-.027.014-.05.014-.077l-.002-.013c-.002-.255-.077-.487-.185-.701-.25-.49-.734-.828-1.31-.866-.036-.002-.066-.02-.102-.02-.22 0-.431.044-.622.125-.13.055-.233.146-.343.23-.339.265-.563.648-.607 1.098-.004.051-.03.095-.03.147 0 .003.003.005.003.008 0 .201.046.39.115.568.222.572.76.974 1.403 1.008.028.002.052.017.08.017.23 0 .445-.052.642-.14.091-.04.164-.108.245-.164M4.63 67.606c.107 0 .209-.019.313-.032.11-.012.22-.025.325-.05.243-.059.47-.153.684-.272.473-.263.857-.657 1.106-1.138.197-.378.318-.8.318-1.254 0-.036-.01-.069-.01-.105-.007-.183-.032-.363-.073-.536-.12-.493-.366-.936-.711-1.286-.346-.35-.788-.6-1.28-.725-.216-.056-.44-.094-.673-.094-.022 0-.044.006-.066.006-.368.01-.719.089-1.037.23-.429.188-.794.488-1.075.856-.35.462-.568 1.03-.568 1.654 0 1.141.701 2.121 1.695 2.535.324.135.679.211 1.051.211M12.275 83.514c.537-.168.932-.6 1.063-1.15.029-.12.073-.233.073-.36 0-.131-.045-.247-.075-.369-.132-.547-.526-.974-1.06-1.141-.151-.048-.303-.096-.47-.096-.094 0-.176.038-.265.054-.254.044-.482.14-.68.29-.377.283-.633.709-.65 1.211 0 .018-.01.033-.01.05 0 .792.586 1.422 1.34 1.552.09.016.17.054.264.054.167 0 .32-.048.47-.095M41.511 85.273c-.057.008-.113.02-.169.034-.496.125-.907.454-1.098.92-.009.019-.006.042-.013.062-.062.17-.11.35-.11.542 0 .062.029.115.035.175.029.243.109.46.233.658.255.406.674.684 1.175.736.054.005.101.032.158.032.125 0 .235-.044.351-.07.252-.06.48-.164.67-.325l.012-.009c.34-.293.567-.712.567-1.197 0-.038-.02-.07-.022-.11-.014-.199-.056-.388-.137-.56-.108-.232-.278-.42-.478-.574-.131-.103-.27-.191-.43-.249-.168-.06-.344-.107-.533-.107-.074 0-.139.032-.21.042M20.044 67.766c0 .112.02.219.033.327.094.775.502 1.45 1.105 1.888.353.257.768.427 1.22.492l.06.006c.108.013.216.033.328.033.117 0 .23-.02.343-.035.613-.077 1.167-.346 1.585-.76.34-.336.584-.764.713-1.24.062-.228.105-.464.105-.711 0-1.055-.604-1.962-1.478-2.422-.381-.2-.808-.324-1.268-.324-.023 0-.044.005-.066.006-.689.017-1.312.29-1.785.725-.257.236-.466.518-.62.836-.065.138-.116.282-.159.43-.068.24-.116.488-.116.749M34.399 97.957c.109-.02.213-.05.317-.083.453-.138.859-.383 1.179-.716.358-.373.612-.843.714-1.37.033-.17.053-.343.053-.522 0-.068-.015-.131-.02-.198-.027-.365-.122-.708-.278-1.02-.21-.418-.515-.78-.9-1.043-.21-.145-.448-.25-.696-.33-.267-.089-.549-.148-.846-.148-.184 0-.363.02-.537.054-.59.118-1.106.431-1.493.863-.307.34-.53.753-.636 1.214-.045.196-.073.399-.073.608 0 .545.164 1.052.44 1.479.138.214.308.401.499.569.263.231.569.411.907.529.28.098.579.162.893.162.163 0 .322-.02.477-.048M28.357 82.075c0-.446-.117-.862-.308-1.235-.357-.699-.998-1.223-1.776-1.416-.21-.052-.428-.088-.655-.088-.274 0-.532.052-.781.127-.666.2-1.223.642-1.571 1.23-.222.377-.357.807-.377 1.27 0 .02-.005.04-.006.062 0 .017-.005.033-.005.05 0 .208.027.408.071.602.132.583.453 1.09.893 1.466.182.158.384.293.605.399.357.17.75.272 1.171.272.04 0 .076-.01.115-.012.543-.023 1.045-.199 1.462-.495.692-.49 1.148-1.291 1.16-2.2l.002-.032M1.487 55.945l-.698.026h.7l-.002-.026M41.152 100.93l-.017.043.02-.042h-.003"/>
        <path fill="#F59C00" d="M23.016 48.599c0-11.697 5.448-22.108 13.93-28.88L25.683 0h-.836C9.797 10.898 0 28.6 0 48.6c0 1.755.08 3.492.228 5.209h23.16c-.24-1.703-.372-3.44-.372-5.21M119.96 48.599c0-20-9.798-37.7-24.846-48.599H50.406v53.342h25.027V23.819h11.92c5.94 6.56 9.592 15.234 9.592 24.78 0 1.768-.133 3.506-.373 5.209h23.16c.149-1.717.228-3.454.228-5.21M59.593 87.31c-3.287 0-6.544-.438-9.686-1.293l-.524 1.288c3.31.916 6.745 1.381 10.21 1.381 18.892 0 34.96-13.893 37.779-32.461h-1.393C93.174 74.02 77.734 87.31 59.593 87.31"/>
        <path fill="#F59C00" d="M59.619 90.554c-3.72 0-7.399-.513-10.942-1.518l-.475 1.168c3.696 1.063 7.536 1.602 11.417 1.602 20.663 0 38.074-15.233 40.903-35.581h-1.266C96.44 75.868 79.597 90.554 59.62 90.554"/>
        <path fill="#F59C00" d="M59.644 93.798c-4.15 0-8.25-.592-12.193-1.75l-.429 1.053c4.081 1.21 8.326 1.826 12.622 1.826 22.437 0 41.192-16.575 44.028-38.702h-1.14c-2.828 21.492-21.07 37.573-42.888 37.573"/>
        <path fill="#F59C00" d="M59.67 97.041c-4.582 0-9.102-.67-13.445-1.983l-.381.936c4.464 1.36 9.114 2.054 13.825 2.054 24.21 0 44.308-17.916 47.15-41.823h-1.014C102.97 79.565 83.326 97.04 59.669 97.04"/>
        <path fill="#F59C00" d="M59.695 100.284c-5.012 0-9.953-.75-14.695-2.218l-.335.823c4.85 1.51 9.903 2.28 15.03 2.28 12.692 0 24.83-4.72 34.18-13.289 9.059-8.302 14.74-19.515 16.093-31.655h-.892c-2.842 25.186-23.884 44.059-49.381 44.059"/>
        <path fill="#F59C00" d="M59.72 103.528c-5.443 0-10.805-.83-15.944-2.455l-.289.708c5.233 1.66 10.691 2.507 16.234 2.507 13.523 0 26.443-5.043 36.381-14.2 9.649-8.891 15.656-20.888 17.012-33.863h-.768c-2.83 26.603-25.742 47.303-52.625 47.303"/>
        <path fill="#F59C00" d="M59.747 106.77c-5.875 0-11.656-.91-17.196-2.692l-.24.594c5.615 1.812 11.477 2.737 17.436 2.737 14.354 0 28.056-5.367 38.582-15.113 10.239-9.48 16.572-22.26 17.93-36.071h-.644c-2.834 28.42-27.174 50.546-55.868 50.546"/>
        <path fill="#F59C00" d="M59.772 110.014c-6.306 0-12.507-.991-18.445-2.931l-.194.48c6 1.964 12.266 2.968 18.64 2.968 15.185 0 29.667-5.692 40.782-16.026 10.83-10.069 17.489-23.635 18.849-38.28h-.52c-2.839 30.238-28.608 53.79-59.112 53.79"/>
        <path fill="#FFF" d="M62.798 67.817L54.614 67.817 54.614 82.468 50.523 82.468 50.523 63.989 66.889 63.989 66.889 82.468 62.798 82.468zM75.473 67.817v5.016h3.511c2.561 0 3.644-.95 3.644-2.508 0-1.452-.898-2.508-3.485-2.508h-3.67zm-4.091 14.65V63.99h7.655c6.283 0 7.84 3.327 7.84 6.363 0 3.114-2.006 6.309-7.84 6.309h-3.564v5.807h-4.091zM98.918 78.826c2.905 0 5.254-2.165 5.254-5.597 0-3.432-2.561-5.597-5.254-5.597-2.798 0-5.28 2.165-5.28 5.597 0 3.432 2.482 5.597 5.28 5.597m0-15.154c5.28 0 9.504 4.066 9.504 9.557 0 5.438-4.224 9.556-9.504 9.556-5.28 0-9.53-4.065-9.53-9.556 0-5.333 4.171-9.557 9.53-9.557M124.318 63.772L126.687 64.538 119.047 85.133 116.703 84.228zM133.536 63.772L135.904 64.538 128.265 85.133 125.92 84.228zM95.646 111.284h-4.092v-6.944c-1.004.529-2.772 1.03-4.515 1.03-4.118 0-7.338-1.795-7.338-6.337v-6.228h4.118v3.642c0 3.802 1.135 5.095 3.775 5.095 1.32 0 2.904-.422 3.96-1.109v-7.628h4.092v18.479zM98.395 92.804L114.34 92.804 114.34 96.632 108.4 96.632 108.4 111.283 104.308 111.283 104.308 96.632 98.395 96.632zM117.089 92.804L131.212 92.804 131.212 96.632 121.18 96.632 121.18 100.063 130.552 100.063 130.552 103.76 121.18 103.76 121.18 107.455 131.449 107.455 131.449 111.283 117.089 111.283zM147.557 103.891L139.346 103.891 139.346 111.284 135.255 111.284 135.255 92.805 139.346 92.805 139.346 100.063 147.557 100.063 147.557 92.805 151.648 92.805 151.648 111.284 147.557 111.284zM156.114 111.284L156.114 92.805 160.205 92.805 160.205 104.129 169.155 92.805 172.561 92.805 172.561 111.284 168.468 111.284 168.468 100.011 159.466 111.284zM177.025 92.804L191.148 92.804 191.148 96.632 181.116 96.632 181.116 100.063 190.488 100.063 190.488 103.76 181.116 103.76 181.116 107.455 191.385 107.455 191.385 111.283 177.025 111.283z"/>
        <g fill="#FFF">
            <path d="M0 .082L5.153.082 5.153.839 2.977.839 2.977 6.322 2.166 6.322 2.166.839 0 .839zM6.097.082L10.591.082 10.591.839 6.909.839 6.909 2.782 10.34 2.782 10.34 3.522 6.909 3.522 6.909 5.564 10.671 5.564 10.671 6.322 6.097 6.322zM14.825 3.148L17.151 6.322 16.18 6.322 14.325 3.8 12.471 6.322 11.499 6.322 13.835 3.148 11.597.081 12.56.081 14.334 2.496 16.099.081 17.08.081zM22.722 3.532L19.005 3.532 19.005 6.322 18.194 6.322 18.194.082 19.005.082 19.005 2.774 22.722 2.774 22.722.082 23.534.082 23.534 6.322 22.722 6.322zM27.955 0c1.757 0 3.166 1.337 3.166 3.202 0 1.837-1.41 3.2-3.166 3.2-1.765 0-3.174-1.336-3.174-3.2 0-1.81 1.391-3.202 3.174-3.202m0 5.626c1.31 0 2.318-1.007 2.318-2.424 0-1.427-1.07-2.425-2.318-2.425-1.274 0-2.327.998-2.327 2.425 0 1.417 1.061 2.424 2.327 2.424M36.236.84h-2.692v.382c0 4.315-.9 5.118-1.783 5.118-.116 0-.25-.009-.375-.018v-.785c.67.098 1.347-.329 1.347-4.44V.082h4.315v6.241h-.812V.84zM41.468 0c1.758 0 3.167 1.337 3.167 3.202 0 1.837-1.41 3.2-3.167 3.2-1.764 0-3.173-1.336-3.173-3.2 0-1.81 1.39-3.202 3.173-3.202m0 5.626c1.311 0 2.32-1.007 2.32-2.424 0-1.427-1.07-2.425-2.32-2.425-1.274 0-2.326.998-2.326 2.425 0 1.417 1.061 2.424 2.326 2.424M45.881.082L50.32.082 50.32.839 46.693.839 46.693 6.322 45.881 6.322zM51.246 6.322L51.246.082 52.058.082 52.058 4.914 55.838.082 56.533.082 56.533 6.322 55.722 6.322 55.722 1.49 51.934 6.322zM62.024 4.013h-1.676l-1.9 2.309h-.98l2.025-2.443c-1-.195-1.605-.874-1.605-1.836 0-1.08.784-1.961 2.46-1.961h2.488v6.24h-.812v-2.31zm0-.758V.84h-1.756c-1.106 0-1.533.524-1.533 1.22 0 .633.507 1.133 1.381 1.195h1.908zM71.856.839L68.174.839 68.174 6.322 67.361 6.322 67.361.081 72.668.081 72.668 6.322 71.856 6.322zM77.089 0c1.757 0 3.166 1.337 3.166 3.202 0 1.837-1.409 3.2-3.166 3.2-1.764 0-3.173-1.336-3.173-3.2 0-1.81 1.39-3.202 3.173-3.202m0 5.626c1.31 0 2.318-1.007 2.318-2.424 0-1.427-1.07-2.425-2.318-2.425-1.275 0-2.327.998-2.327 2.425 0 1.417 1.062 2.424 2.327 2.424M86.03 3.532L82.313 3.532 82.313 6.322 81.501 6.322 81.501.082 82.313.082 82.313 2.774 86.03 2.774 86.03.082 86.842.082 86.842 6.322 86.03 6.322zM88.427 6.322L88.427.082 89.238.082 89.238 4.914 93.018.082 93.713.082 93.713 6.322 92.902 6.322 92.902 1.49 89.113 6.322zM95.308.082L96.057.082 98.429 3.219 100.72.082 101.45.082 101.45 6.322 100.64 6.322 100.64 1.48 98.508 4.352 98.311 4.352 96.12 1.48 96.12 6.322 95.308 6.322zM105.122.064h.642l2.738 6.258h-.848l-.695-1.578h-3.058l-.687 1.578h-.828l2.736-6.258zm-.918 3.967h2.452l-1.23-2.835-1.222 2.835zM113.965 3.532L110.248 3.532 110.248 6.322 109.436 6.322 109.436.082 110.248.082 110.248 2.774 113.965 2.774 113.965.082 114.777.082 114.777 6.322 113.965 6.322zM116.362 6.322L116.362.082 117.174.082 117.174 4.914 120.954.082 121.648.082 121.648 6.322 120.838 6.322 120.838 1.49 117.048 6.322zM127.14 4.013h-1.676l-1.9 2.309h-.98l2.024-2.443c-1-.195-1.604-.874-1.604-1.836 0-1.08.783-1.961 2.46-1.961h2.488v6.24h-.812v-2.31zm0-.758V.84h-1.756c-1.106 0-1.534.524-1.534 1.22 0 .633.508 1.133 1.382 1.195h1.908z" transform="translate(51 122)"/>
        </g>
    </g>
</svg>
