<svg xmlns="http://www.w3.org/2000/svg" width="20" height="20" viewBox="0 0 20 20">
    <path fill="#40BAD4" d="M9.96 15.428H3.126C1.402 15.428 0 14.026 0 12.303v-4.61C0 5.97 1.402 4.568 3.125 4.568h6.836c.431 0 .781.35.781.782 0 .431-.35.78-.781.78H3.125c-.862 0-1.563.702-1.563 1.563v4.61c0 .861.701 1.562 1.563 1.562h6.836c.431 0 .781.35.781.781 0 .432-.35.782-.781.782zm6.915-10.86h-.703c-.432 0-.781.35-.781.782 0 .431.35.78.78.78h.704c.862 0 1.563.702 1.563 1.563v4.61c0 .861-.701 1.562-1.563 1.562h-.703c-.432 0-.781.35-.781.781 0 .432.35.782.78.782h.704c1.723 0 3.125-1.402 3.125-3.125v-4.61c0-1.723-1.402-3.125-3.125-3.125zm-.703 13.87c-1.292 0-2.344-1.052-2.344-2.344V3.906c0-1.292 1.052-2.344 2.344-2.344.431 0 .781-.35.781-.78 0-.432-.35-.782-.781-.782-1.277 0-2.412.615-3.125 1.565C12.334.615 11.198 0 9.922 0 9.49 0 9.14.35 9.14.781c0 .432.35.781.78.781 1.293 0 2.345 1.052 2.345 2.344v12.188c0 1.292-1.052 2.343-2.344 2.343-.432 0-.781.35-.781.782 0 .431.35.781.78.781 1.277 0 2.413-.615 3.126-1.565.713.95 1.848 1.565 3.125 1.565.431 0 .781-.35.781-.781 0-.432-.35-.782-.781-.782z"/>
</svg>
