<svg xmlns="http://www.w3.org/2000/svg" width="20" height="20" viewBox="0 0 20 20">
    <g fill="#00AFDD">
        <path d="M2.402 10.922c-.038-.321-.058-.64-.058-.922 0-4.195 3.46-7.656 7.656-7.656 1.957 0 3.79.789 5.137 2.02l-.676.687c-.152.152-.211.375-.152.586.07.199.234.351.445.398.118.024 3.993 1.272 3.746 1.223.314.104.778-.23.691-.692l-.832-4.175c-.046-.211-.199-.387-.41-.446-.199-.058-.422 0-.574.153l-.574.562C15.03 1.008 12.6 0 10 0 4.504 0 0 4.504 0 10v.023c0 .33.015.586.033.781.023.26.214.471.469.522l1.203.24c.392.08.744-.25.697-.644zM19.502 8.673l-1.207-.246c-.393-.08-.747.249-.7.645.043.342.061.675.061.928 0 4.195-3.46 7.656-7.656 7.656-1.957 0-3.79-.789-5.137-2.031l.676-.676c.152-.152.211-.375.152-.586-.07-.199-.234-.351-.445-.398-.118-.024-3.993-1.272-3.746-1.223-.2-.035-.398.024-.527.164-.14.13-.2.34-.164.528l.832 4.136c.046.211.199.387.41.445.244.062.449-.012.574-.152l.563-.562C4.957 18.953 7.387 20 10 20c5.496 0 10-4.504 10-10v-.035c0-.26-.01-.515-.031-.768-.022-.26-.212-.472-.467-.524z"/>
    </g>
</svg>
