<svg xmlns="http://www.w3.org/2000/svg" width="54" height="53" viewBox="0 0 54 53">
    <g fill="none" fill-rule="evenodd" stroke="#000" stroke-width="2">
        <path stroke-linejoin="round" d="M19 43L0 43 0 0 33 0 33 8" transform="translate(1 1)"/>
        <path d="M6 8L11 8M14 8L27 8M6 30L11 30M14 30L19 30M6 13.5L19 13.5M6 19L11 19M14 19L19 19M6 24.5L19 24.5" transform="translate(1 1)"/>
        <g>
            <path stroke-linejoin="round" d="M0 0L33 0 33 37 27 43 0 43z" transform="translate(1 1) translate(19 8)"/>
            <path stroke-linejoin="round" d="M33 37L27 37 27 43.5" transform="translate(1 1) translate(19 8)"/>
            <path d="M6 8L11 8M14 8L27 8M6 30L11 30M14 30L27 30M22 13.5L27 13.5M6 13.5L19 13.5M6 19L11 19M14 19L27 19M22 24.5L27 24.5M6 24.5L19 24.5" transform="translate(1 1) translate(19 8)"/>
        </g>
    </g>
</svg>
