<svg xmlns="http://www.w3.org/2000/svg" width="55" height="32" viewBox="0 0 55 32">
    <g fill="none" fill-rule="evenodd">
        <path fill="#8EDAE5" d="M4.301 17.91c.423.194.842.418 1.194.797.06-.12.14-.227.239-.316-.384-.394-.828-.63-1.252-.825-.021.135-.086.255-.18.344M3.296 17.411c.015-.137.074-.26.165-.355-.37-.25-.627-.593-.68-1.215h-.386c.062.824.43 1.267.901 1.57M10.287 26.153c.098.084.18.184.243.298.453-.337.91-.802 1.166-1.29-.133-.024-.25-.095-.335-.193-.223.44-.652.875-1.074 1.185M4.634 23.175c-.268-.015-.504-.034-.7-.054.003.029.008.058.008.088 0 .04-.004.08-.012.118.2.02.428.037.679.05.006-.067.015-.135.025-.202M3.999 16.886c-.009-.318.004-.666.048-1.045h-.205c-.043.378-.056.725-.047 1.044.03-.005.063-.01.095-.01.038 0 .073.004.109.01M6.187 23.205c-.421.007-.812.002-1.163-.011-.01.067-.016.134-.023.2.262.01.538.015.823.015.124 0 .252-.004.378-.006-.01-.057-.018-.114-.018-.174 0-.009.003-.016.003-.024M3.678 21.189c-.07-.015-.134-.043-.192-.08-.087.401-.113.745-.136 1.043-.013.175-.027.325-.049.46.014 0 .026-.004.04-.004.058 0 .112.01.165.026.022-.142.034-.297.047-.466.022-.282.047-.605.125-.98M4.092 18.038c-.064.023-.13.037-.202.037.072.656.125 1.246-.068 1.935.071.002.138.016.2.04.2-.722.144-1.332.07-2.012M8.316 23.229c0 .01-.003.02-.003.029.77.08 1.87.408 2.952 1.069.057-.123.153-.222.274-.284-1.209-.753-2.455-1.11-3.292-1.181.042.115.069.237.069.367M12.398 24.656c-.019.138-.083.26-.18.352.218.182.427.387.63.601l.161-.397c-.197-.199-.401-.385-.61-.556M5.518 15.84h-.204c-.004.693-.287 1.16-.867 1.414.025.062.04.13.042.2.68-.281 1.023-.824 1.029-1.613M3.486 17.916c-.096-.088-.163-.206-.186-.34-.327.147-.699.173-1.036.195l-.058.004c.073.114.127.241.153.378.35-.023.754-.061 1.127-.237M2.298 20.554c.266.205.57.308.897.308.023 0 .047-.005.07-.006-.029-.061-.046-.128-.052-.198-.29.004-.554-.084-.79-.266-.33-.254-.55-.657-.67-1.065-.061.028-.126.05-.194.067.13.442.373.877.74 1.16M9.742 28.014c-.047.006-.093.014-.141.014-.087 0-.171-.014-.252-.033.04.673.356 1.503 1.558 2.391l.151-.372c-.983-.751-1.268-1.43-1.316-2M7.333 21.268c.114.065.236.116.366.157.101-.599.092-1.244-.286-1.79-.06.128-.146.242-.25.336.221.393.238.844.17 1.297M8.313 24.276c-.132-.08-.26-.158-.378-.238-.11.093-.237.164-.378.206.174.132.366.25.555.364l.064.039c.165-.06.33-.108.494-.148-.12-.079-.24-.152-.357-.223M8.894 24.655c-.167.033-.332.075-.498.128.438.28.824.593.99 1.135.069-.014.14-.022.215-.022.063 0 .124.008.183.019-.148-.59-.5-.97-.89-1.26M5.406 19.405c-.016-.073-.025-.148-.025-.226 0-.074.007-.147.022-.217-.444.206-.823.59-1.123.894-.074.074-.147.147-.217.213.12.058.217.155.276.274.068-.066.14-.136.217-.214.288-.293.567-.555.85-.724M7.516 22.2c.05-.18.102-.374.145-.575-.127-.04-.25-.087-.365-.147-.048.238-.112.473-.177.698.043-.005.086-.013.131-.013.092 0 .18.015.266.037M1.364 19.42c-.018.001-.036.006-.054.006-.116 0-.226-.023-.331-.058-.126 1.466.572 2.98 1.772 3.74.023-.136.092-.255.19-.343-.977-.647-1.686-1.98-1.577-3.344M12.13 25.077c-.057.038-.121.065-.19.08.102.455.254.905.553 1.325l.094-.231c-.237-.372-.367-.77-.456-1.174M8.792 21.813c.4.04.814.082 1.191.198 1.247.381 1.558 1.107 1.736 1.975.03-.005.059-.01.089-.01.041 0 .081.005.12.013-.185-.925-.51-1.753-1.885-2.173-.397-.122-.82-.164-1.23-.205-.4-.04-.78-.08-1.114-.186-.012.067-.024.134-.038.2.354.11.744.15 1.13.188M7.296 21.478c.014-.07.026-.14.037-.21-.332-.19-.588-.503-.726-1.036-.052.008-.103.016-.157.016-.017 0-.034-.004-.051-.005.162.657.488 1.022.897 1.235"/>
        <path fill="#8EDAE5" d="M7.296 21.478c.116.06.238.108.365.147.014-.066.026-.133.038-.2-.13-.04-.252-.092-.366-.157-.01.07-.023.14-.037.21M5.001 23.394c-.135-.004-.267-.01-.392-.017-.083.822.112 1.621.868 2.247.024-.14.097-.26.2-.35-.588-.523-.745-1.184-.676-1.88M8.59 26.64c.04-.125.102-.24.183-.34-.71-.38-1.255-.434-1.713-.476-.144-.013-.275-.028-.4-.049-.013.142-.071.27-.165.366.175.035.35.053.53.07.44.04.926.086 1.565.43M10.35 27.719c-.093.092-.204.167-.326.22.253.275.67.613 1.48 1.002l.138-.364.005-.012c-.712-.341-1.066-.608-1.297-.846M5.191 22.503c-.111-.08-.22-.163-.325-.249-.103.303-.185.613-.232.921.124.007.253.014.39.019.036-.23.094-.46.167-.69M5.011 21.862c.102.089.206.175.316.257.206-.536.47-1.053.699-1.5l.2-.395c-.13-.028-.251-.08-.359-.15l-.186.367c-.212.413-.462.902-.67 1.421M6.493 18.114c.134.006.262.033.379.083.096-.56.054-1.235-.382-2.356h-.416c.454 1.112.51 1.737.42 2.273"/>
        <path fill="#8EDAE5" d="M4.634 23.175c-.01.067-.019.135-.025.202.125.007.257.013.392.017.007-.067.012-.133.023-.2l-.39-.019M3.524 23.778c-.058.018-.119.03-.183.03l-.024-.001c.236.708.743 1.456 1.446 1.838.197.107.443.198.726.233-.013-.05-.022-.1-.022-.152 0-.02.004-.039.006-.059-.209-.03-.414-.094-.613-.201-.628-.341-1.106-1.03-1.336-1.688M8.67 24.5c.075.049.15.1.224.155.675-.133 1.39-.114 2.32-.042-.002-.013-.005-.025-.005-.038 0-.058.011-.112.026-.165-1.02-.078-1.803-.092-2.565.09M8.397 24.783l-.221-.136c-.417.148-.84.362-1.31.666-.088.058-.176.108-.264.152.03.061.048.128.056.2.104-.051.21-.11.32-.18.514-.335.968-.558 1.419-.702M12.234 24.155c.05.052.091.112.12.179.334-.095.632.034.94.175l.077-.19c-.324-.147-.705-.316-1.137-.164"/>
        <path fill="#8EDAE5" d="M8.67 24.5c-.165.039-.329.088-.494.147.074.045.148.09.22.136.166-.053.33-.095.498-.128-.074-.055-.149-.106-.224-.155M3.385 20.182c.092-.092.215-.151.351-.167-.358-.895-.895-1.319-1.366-1.558-.013.136-.05.264-.11.38.402.22.83.594 1.125 1.345M6.198 23.094c.018-.135.06-.26.122-.374-.35-.168-.686-.371-.993-.6-.049.126-.095.254-.136.383.314.225.652.426 1.007.59M.421 15.84H.223l-.19.008c.012.312.084 1.114.491 1.79.088-.097.193-.175.311-.234-.339-.585-.403-1.283-.414-1.563M4.866 22.254c.045-.132.094-.263.145-.392-.302-.261-.566-.547-.776-.844-.092.095-.214.158-.352.177.26.378.595.738.983 1.059"/>
        <path fill="#8EDAE5" d="M5.327 22.119c-.11-.082-.214-.168-.316-.257-.051.13-.1.26-.145.392.105.086.214.169.325.25.041-.13.087-.258.136-.385M1.965 15.84H1.76c-.05.471-.176.946-.36 1.456.069.006.137.018.202.037.187-.52.313-1.007.363-1.492M7.395 27.43c-.526-.231-.883-.7-1.091-1.156-.063.028-.132.043-.204.047.223.505.62 1.035 1.212 1.296.242.107.499.16.766.16.232 0 .473-.044.718-.124-.046-.053-.086-.11-.121-.173-.458.138-.888.124-1.28-.05M6.724 24.15c-.06-.034-.115-.073-.167-.118-.275.307-.567.647-.649 1.12.05-.014.103-.024.158-.024.018 0 .036.004.054.005.087-.397.346-.693.602-.98l.002-.003zM10.666 26.961v.001c0 .07-.007.136-.02.202.336.073.79.198 1.41.394l.077-.19c-.638-.201-1.11-.33-1.467-.407M3.805 20.153c-.006 0-.01.003-.016.003-.005 0-.01.003-.015.004-.137.01-.252.08-.328.185-.054.075-.093.161-.093.26 0 .016.008.029.01.044.006.07.03.135.067.192.026.042.056.079.094.11.054.044.118.072.189.088.026.005.05.014.077.015l.015.003c.139 0 .259-.066.341-.165.066-.079.11-.177.11-.287 0-.055-.013-.107-.031-.156-.044-.117-.131-.212-.246-.26-.012-.006-.027-.005-.04-.009-.043-.013-.087-.027-.134-.027M3.441 17.5v.002c.01.142.084.26.193.338.07.049.15.083.24.086.006 0 .01.003.016.003.066 0 .129-.016.185-.041.027-.012.048-.032.07-.048.109-.076.182-.193.193-.332l.001-.006c0-.01.005-.017.005-.027 0-.061-.012-.12-.034-.172-.054-.13-.169-.223-.307-.26-.037-.01-.073-.022-.113-.022-.032 0-.06.012-.091.018-.078.017-.15.049-.207.1-.094.083-.156.201-.156.336 0 .009.005.016.005.024M6.316 26.093c.114-.078.19-.2.198-.345 0-.008.004-.014.004-.022v-.004c0-.072-.022-.137-.053-.198-.07-.139-.208-.234-.37-.245-.01 0-.02-.006-.03-.006-.062 0-.121.013-.175.036-.037.015-.066.041-.097.065-.096.075-.16.183-.172.31-.001.015-.009.027-.009.042l.001.002c0 .057.013.111.033.161.063.162.215.276.397.286.008 0 .014.004.023.004.064 0 .125-.014.181-.04.026-.01.046-.03.07-.046M1.31 19.134c.03 0 .06-.006.089-.01.031-.003.062-.006.092-.014.069-.016.133-.043.193-.076.134-.075.243-.186.314-.323.055-.107.09-.226.09-.354l-.003-.03c-.002-.052-.01-.103-.02-.152-.035-.14-.105-.265-.202-.364-.098-.099-.223-.17-.362-.205-.062-.016-.125-.027-.19-.027l-.02.002c-.104.003-.203.025-.293.065-.122.053-.225.138-.304.242-.1.131-.161.292-.161.469 0 .323.198.6.48.717.091.038.192.06.297.06M3.474 23.636c.152-.048.264-.17.3-.326.009-.033.022-.065.022-.101 0-.037-.013-.07-.022-.105-.037-.155-.148-.276-.3-.323-.042-.013-.085-.027-.133-.027-.026 0-.05.011-.075.015-.072.013-.136.04-.192.082-.107.08-.18.201-.184.343l-.003.015c0 .224.166.402.38.439.025.004.048.015.074.015.047 0 .09-.014.133-.027M11.748 24.134c-.016.002-.032.006-.047.01-.14.035-.257.128-.311.26-.003.005-.002.012-.004.017-.017.049-.031.1-.031.154 0 .017.008.032.01.05.008.068.03.13.066.186.072.115.19.193.332.208.016.001.03.009.045.009.035 0 .067-.013.1-.02.07-.017.135-.046.19-.092l.003-.002c.096-.083.16-.202.16-.34 0-.01-.006-.02-.006-.03-.004-.057-.016-.11-.039-.159-.03-.066-.079-.118-.135-.162-.038-.03-.077-.054-.122-.07-.047-.018-.097-.031-.15-.031-.022 0-.04.009-.06.012M5.673 19.179c0 .032.005.062.01.093.026.219.141.41.312.534.1.073.217.12.345.14h.017c.03.005.061.01.093.01.033 0 .065-.006.097-.01.173-.022.33-.098.449-.215.096-.095.165-.216.201-.35.018-.065.03-.132.03-.202 0-.298-.17-.555-.418-.685-.108-.057-.229-.092-.359-.092l-.019.002c-.195.004-.37.082-.505.205-.073.067-.132.147-.175.237-.019.038-.033.08-.045.121-.02.068-.033.138-.033.212M9.735 27.724c.031-.006.06-.015.09-.024.128-.039.243-.108.334-.202.101-.106.173-.24.202-.388.01-.048.015-.097.015-.148 0-.02-.004-.037-.005-.056-.008-.103-.035-.2-.08-.288-.059-.12-.145-.222-.254-.296-.06-.04-.127-.07-.197-.093-.076-.025-.155-.042-.24-.042-.051 0-.102.005-.151.015-.167.034-.313.122-.423.244-.087.097-.15.214-.18.344-.013.056-.02.113-.02.172 0 .154.046.298.124.419.039.06.087.113.141.16.075.066.161.117.257.15.08.028.164.046.253.046.046 0 .09-.006.134-.013M8.026 23.229c0-.126-.034-.244-.088-.35-.1-.197-.282-.346-.502-.4-.06-.015-.121-.025-.186-.025-.077 0-.15.014-.22.035-.19.057-.347.182-.445.349-.063.106-.101.228-.107.36l-.002.017-.001.014c0 .059.008.115.02.17.037.165.128.308.253.415.051.045.108.083.171.113.1.048.212.077.331.077l.033-.003c.154-.007.296-.057.414-.14.196-.14.325-.366.328-.623v-.01M.42 15.833l-.197.008h.198v-.008M11.647 28.565l-.005.012.005-.012"/>
        <path fill="#F59C00" d="M6.514 13.754c0-3.31 1.542-6.256 3.942-8.173L7.27 0h-.237C2.773 3.083 0 8.093 0 13.753c0 .497.023.989.065 1.475h6.554c-.068-.482-.105-.974-.105-1.475M33.951 13.754c0-5.66-2.773-10.67-7.032-13.754H14.266v15.097h7.083V6.74h3.373c1.682 1.857 2.715 4.312 2.715 7.013 0 .5-.037.993-.105 1.475h6.555c.042-.486.064-.978.064-1.475M16.866 24.71c-.93 0-1.852-.123-2.741-.365l-.149.364c.937.26 1.91.39 2.89.39 5.347 0 9.894-3.931 10.692-9.186h-.394C26.37 20.949 22 24.71 16.866 24.71"/>
        <path fill="#F59C00" d="M16.873 25.628c-1.052 0-2.094-.145-3.096-.43l-.135.331c1.046.301 2.133.454 3.231.454 5.848 0 10.776-4.311 11.577-10.07h-.359c-.797 5.56-5.563 9.715-11.218 9.715"/>
        <path fill="#F59C00" d="M16.88 26.547c-1.174 0-2.335-.168-3.45-.496l-.122.298c1.155.343 2.356.517 3.572.517 6.35 0 11.659-4.69 12.461-10.953h-.323c-.8 6.082-5.963 10.634-12.138 10.634"/>
        <path fill="#F59C00" d="M16.888 27.464c-1.297 0-2.576-.19-3.805-.56l-.108.264c1.263.385 2.579.581 3.913.581 6.852 0 12.54-5.07 13.344-11.836h-.287c-.802 6.605-6.362 11.551-13.057 11.551"/>
        <path fill="#F59C00" d="M16.895 28.382c-1.419 0-2.817-.212-4.16-.627l-.094.233c1.373.427 2.803.645 4.254.645 3.592 0 7.027-1.336 9.674-3.761 2.563-2.35 4.171-5.523 4.554-8.96h-.252c-.805 7.129-6.76 12.47-13.976 12.47"/>
        <path fill="#F59C00" d="M16.902 29.3c-1.54 0-3.058-.235-4.513-.694l-.081.2c1.48.47 3.025.71 4.594.71 3.827 0 7.484-1.428 10.297-4.02 2.73-2.516 4.43-5.911 4.814-9.583h-.217C30.995 23.442 24.51 29.3 16.902 29.3"/>
        <path fill="#F59C00" d="M16.91 30.218c-1.663 0-3.3-.258-4.867-.762l-.068.168c1.59.513 3.248.775 4.935.775 4.062 0 7.94-1.52 10.919-4.277 2.898-2.683 4.69-6.3 5.075-10.21h-.183c-.802 8.044-7.69 14.306-15.811 14.306"/>
        <path fill="#F59C00" d="M16.917 31.136c-1.785 0-3.54-.28-5.22-.83l-.056.136c1.698.556 3.472.84 5.276.84 4.297 0 8.396-1.61 11.542-4.535 3.065-2.85 4.95-6.69 5.334-10.834h-.147c-.803 8.558-8.096 15.223-16.73 15.223"/>
        <path fill="#FFF" d="M17.773 19.193L15.457 19.193 15.457 23.34 14.299 23.34 14.299 18.11 18.931 18.11 18.931 23.34 17.773 23.34zM21.36 19.193v1.42h.994c.725 0 1.031-.269 1.031-.71 0-.41-.254-.71-.986-.71H21.36zm-1.158 4.147v-5.23h2.167c1.778 0 2.219.942 2.219 1.8 0 .882-.568 1.787-2.219 1.787H21.36v1.643h-1.158zM27.996 22.31c.822 0 1.487-.614 1.487-1.585s-.725-1.584-1.487-1.584c-.792 0-1.495.613-1.495 1.584 0 .971.703 1.584 1.495 1.584m0-4.289c1.494 0 2.69 1.151 2.69 2.705 0 1.54-1.196 2.705-2.69 2.705-1.495 0-2.697-1.15-2.697-2.705 0-1.51 1.18-2.705 2.697-2.705M35.184 18.049L35.855 18.266 33.693 24.094 33.029 23.838zM37.793 18.049L38.464 18.266 36.301 24.094 35.638 23.838zM27.07 31.495H25.91V29.53c-.284.15-.784.292-1.277.292-1.166 0-2.077-.508-2.077-1.794v-1.763h1.165v1.031c0 1.076.322 1.442 1.069 1.442.373 0 .822-.12 1.12-.314v-2.159h1.159v5.23zM27.848 26.265L32.36 26.265 32.36 27.349 30.679 27.349 30.679 31.495 29.521 31.495 29.521 27.349 27.848 27.349zM33.138 26.265L37.135 26.265 37.135 27.349 34.296 27.349 34.296 28.32 36.949 28.32 36.949 29.366 34.296 29.366 34.296 30.412 37.203 30.412 37.203 31.495 33.138 31.495zM41.761 29.403L39.438 29.403 39.438 31.495 38.28 31.495 38.28 26.265 39.438 26.265 39.438 28.32 41.761 28.32 41.761 26.265 42.919 26.265 42.919 31.495 41.761 31.495zM44.183 31.495L44.183 26.265 45.341 26.265 45.341 29.47 47.874 26.265 48.838 26.265 48.838 31.495 47.68 31.495 47.68 28.305 45.132 31.495zM50.101 26.265L54.098 26.265 54.098 27.349 51.259 27.349 51.259 28.32 53.912 28.32 53.912 29.366 51.259 29.366 51.259 30.412 54.166 30.412 54.166 31.495 50.101 31.495z"/>
    </g>
</svg>
