<svg xmlns="http://www.w3.org/2000/svg" width="20" height="20" viewBox="0 0 20 20">
    <g fill="none" fill-rule="evenodd">
        <g>
            <g>
                <path d="M0 0H20V20H0z" transform="translate(-547 -462) translate(547 462)"/>
                <g fill="#3E51B5" fill-rule="nonzero">
                    <path d="M11 4c0 2.21-1.79 4-4 4S3 6.21 3 4s1.79-4 4-4 4 1.79 4 4zM10.306 9H3.694C1.657 9 0 10.657 0 12.694v2.723c0 .322.261.583.583.583h12.834c.322 0 .583-.261.583-.583v-2.723C14 10.657 12.343 9 10.306 9zM18.809 6.587l-2.8-2.438C15.896 4.051 15.749 4 15.6 4c-.397 0-.601.317-.601.562V6.25h-3.2c-.442 0-.8.336-.8.75s.358.75.8.75H15v1.687c0 .312.27.563.6.563.149 0 .295-.052.409-.15l2.8-2.438C18.93 7.306 19 7.156 19 7c0-.156-.07-.306-.191-.413z" transform="translate(-547 -462) translate(547 462) translate(1 2)"/>
                </g>
            </g>
        </g>
    </g>
</svg>
