<svg xmlns="http://www.w3.org/2000/svg" width="120" height="19" viewBox="0 0 120 19">
    <g fill="none" fill-rule="evenodd">
        <path fill="#252627" fill-rule="nonzero" d="M0 18.21V0h1.787v16.604h8.445v1.606H0zm13.896 0V0h10.231v1.606h-8.444v6.631h6.916v1.606h-6.916v6.76h8.936v1.607H13.896zm12.937 0L33.516 0h1.917l6.683 18.21h-1.891l-2.099-5.802h-7.33l-2.072 5.802h-1.891zm4.507-7.357h6.243l-2.384-6.605c-.31-.855-.699-2.383-.699-2.383h-.052s-.388 1.528-.7 2.383l-2.408 6.605zm14.44 7.357V0h5.854c5.491 0 9.143 3.342 9.143 9.092 0 5.776-3.652 9.118-9.143 9.118h-5.855zm1.787-1.606h3.885c4.481 0 7.46-2.616 7.46-7.512 0-4.844-2.979-7.486-7.46-7.486h-3.885v14.998zM65.4 18.21V0H75.63v1.606h-8.444v6.631h6.916v1.606h-6.916v6.76h8.936v1.607H65.4zm15.009 0V0h5.517c1.736 0 2.59.181 3.342.518 1.632.777 2.694 2.357 2.694 4.559 0 2.46-1.399 4.455-3.471 5.025v.052s.207.233.492.725l3.963 7.33h-2.072l-4.093-7.666h-4.585v7.667H80.41zm1.787-9.273h4.326c2.202 0 3.6-1.529 3.6-3.808 0-1.45-.699-2.642-1.916-3.186-.518-.233-1.088-.337-2.383-.337h-3.627v7.33z"/>
        <path fill="#09A" fill-rule="nonzero" d="M100.264 18.247L103.462 18.247 103.462 0 100.264 0zM115.11 0l4.341 4.421v9.405l-4.34 4.42h-9.392V0h9.391zm1.7 3.22h-7.922v12.344h7.923V3.22z"/>
        <path fill="#00696D" fill-rule="nonzero" d="M116.254 17.118L119.451 14.009 119.451 4.238 116.254 1.129 116.254 2.754z"/>
    </g>
</svg>
