<svg xmlns="http://www.w3.org/2000/svg" width="72" height="28" viewBox="0 0 72 28">
    <g fill="none" fill-rule="evenodd">
        <path fill="#FB9F46" d="M5.337 0L0 9.083 10.676 9.083z"/>
        <path fill="#28305F" d="M16.006 18.167L10.672 9.075 21.349 9.075z"/>
        <path fill="#F14942" d="M0.01 27.253L10.683 27.252 5.345 18.166z"/>
        <path fill="#28305F" d="M5.347 18.167L10.683 27.252 16.022 18.167zM.004 9.082L5.342 18.167 10.681 9.082zM48.32 27.24H40.55V8.99h7.46c3.623 0 5.736 2 5.736 5.127 0 2.026-1.353 3.333-2.294 3.768 1.121.513 2.553 1.667 2.553 4.103 0 3.41-2.372 5.252-5.683 5.252m-.6-15.069h-3.55v4.201h3.55c1.54 0 2.4-.845 2.4-2.102 0-1.253-.86-2.099-2.4-2.099m.232 7.405h-3.782v4.49h3.782c1.645 0 2.431-1.027 2.431-2.257 0-1.232-.786-2.233-2.43-2.233M32.166 20.373h-3.573v6.867h-3.625V8.99h7.198c3.838 0 6.132 2.591 6.132 5.692 0 3.1-2.294 5.691-6.132 5.691m-.182-8.202h-3.391v4.997h3.391c1.645 0 2.688-1 2.688-2.486 0-1.486-1.043-2.511-2.688-2.511M67.51 27.253L62.734 18.95 60.337 21.769 60.337 27.253 56.709 27.253 56.709 9.003 60.337 9.003 60.337 16.95 66.883 9.003 71.291 9.003 65.137 16.258 71.734 27.253z"/>
    </g>
</svg>
