<svg width="160" height="116" viewBox="0 0 160 116" fill="none" xmlns="http://www.w3.org/2000/svg">
<path fill-rule="evenodd" clip-rule="evenodd" d="M12.7051 52.9052C13.9535 53.477 15.1921 54.1389 16.2327 55.2578C16.4092 54.9031 16.6466 54.5879 16.9365 54.3239C15.8022 53.1606 14.4914 52.4654 13.238 51.8887C13.1763 52.2871 12.9857 52.6406 12.7051 52.9052Z" fill="#8EDAE5"/>
<path fill-rule="evenodd" clip-rule="evenodd" d="M9.73657 51.4317C9.77975 51.0258 9.9537 50.66 10.2245 50.3824C9.13023 49.6416 8.37153 48.63 8.21732 46.7925H7.07556C7.25691 49.2265 8.34562 50.5348 9.73657 51.4317Z" fill="#8EDAE5"/>
<path fill-rule="evenodd" clip-rule="evenodd" d="M30.386 77.2538C30.6765 77.5005 30.9189 77.7966 31.1046 78.1328C32.4425 77.1385 33.7946 75.7635 34.5478 74.3251C34.1548 74.2505 33.8125 74.0426 33.5584 73.7539C32.9014 75.0505 31.6332 76.3384 30.386 77.2538Z" fill="#8EDAE5"/>
<path fill-rule="evenodd" clip-rule="evenodd" d="M13.689 68.4565C12.8976 68.4109 12.1999 68.3547 11.6177 68.2974C11.63 68.3819 11.6436 68.467 11.6436 68.5558C11.6436 68.6749 11.6312 68.7914 11.6084 68.9049C12.1987 68.9629 12.8729 69.0141 13.6131 69.0542C13.6328 68.855 13.6587 68.6557 13.689 68.4565Z" fill="#8EDAE5"/>
<path fill-rule="evenodd" clip-rule="evenodd" d="M11.8118 49.8786C11.7859 48.9386 11.8247 47.9122 11.9549 46.792H11.3485C11.2215 47.9103 11.1826 48.9349 11.2085 49.8749C11.301 49.8601 11.3948 49.8465 11.491 49.8465C11.6014 49.8465 11.7075 49.8595 11.8118 49.8786Z" fill="#8EDAE5"/>
<path fill-rule="evenodd" clip-rule="evenodd" d="M18.2756 68.5434C17.0314 68.5663 15.8761 68.5496 14.8398 68.5107C14.8084 68.71 14.7929 68.9067 14.7732 69.1041C15.5467 69.1313 16.3628 69.1473 17.2023 69.1473C17.5699 69.1473 17.9468 69.1368 18.3206 69.1307C18.2922 68.9616 18.2682 68.7914 18.2682 68.615C18.2682 68.5903 18.2749 68.5681 18.2756 68.5434Z" fill="#8EDAE5"/>
<path fill-rule="evenodd" clip-rule="evenodd" d="M10.8651 62.5887C10.6597 62.5442 10.4697 62.4622 10.2982 62.353C10.041 63.5386 9.96267 64.5545 9.89543 65.4341C9.85595 65.951 9.81586 66.3945 9.75171 66.7942C9.79119 66.7911 9.82881 66.7819 9.86952 66.7819C10.0392 66.7819 10.1995 66.8133 10.355 66.8578C10.4204 66.4389 10.4574 65.9818 10.4956 65.4804C10.5591 64.6495 10.6338 63.6934 10.8651 62.5887Z" fill="#8EDAE5"/>
<path fill-rule="evenodd" clip-rule="evenodd" d="M12.0859 53.2817C11.899 53.349 11.701 53.3915 11.4919 53.3915C11.704 55.329 11.8595 57.0716 11.2908 59.1065C11.4993 59.1127 11.6979 59.154 11.8817 59.2268C12.4714 57.0931 12.3061 55.2901 12.0859 53.2817Z" fill="#8EDAE5"/>
<path fill-rule="evenodd" clip-rule="evenodd" d="M24.5643 68.6156C24.5643 68.6446 24.5563 68.6724 24.5556 68.7014C26.8293 68.9401 30.0806 69.9067 33.2752 71.8583C33.4423 71.4956 33.7286 71.2026 34.0838 71.0219C30.5136 68.7976 26.833 67.7397 24.3601 67.5312C24.4859 67.8705 24.5643 68.2326 24.5643 68.6156Z" fill="#8EDAE5"/>
<path fill-rule="evenodd" clip-rule="evenodd" d="M36.6234 72.8315C36.5672 73.2387 36.3773 73.6013 36.0923 73.8709C36.735 74.4094 37.3512 75.012 37.9502 75.6461L38.4276 74.4717C37.8447 73.8851 37.2421 73.3367 36.6234 72.8315Z" fill="#8EDAE5"/>
<path fill-rule="evenodd" clip-rule="evenodd" d="M16.2982 46.792H15.698C15.6845 48.8356 14.8493 50.2154 13.137 50.9649C13.211 51.1499 13.2523 51.3504 13.2591 51.5595C15.2669 50.7261 16.2822 49.1236 16.2982 46.792Z" fill="#8EDAE5"/>
<path fill-rule="evenodd" clip-rule="evenodd" d="M10.2979 52.9222C10.0136 52.6613 9.81494 52.3122 9.74709 51.9155C8.78175 52.351 7.68379 52.4275 6.68637 52.4935C6.62654 52.4972 6.57349 52.5028 6.51489 52.5065C6.73263 52.8408 6.88993 53.2177 6.96826 53.6229C8.00269 53.5526 9.19503 53.441 10.2979 52.9222Z" fill="#8EDAE5"/>
<path fill-rule="evenodd" clip-rule="evenodd" d="M6.78894 60.7126C7.57293 61.3184 8.47104 61.6243 9.43885 61.6243C9.50547 61.6243 9.57579 61.6095 9.64302 61.6064C9.55913 61.4257 9.50917 61.2283 9.49066 61.0204C8.63573 61.0334 7.85421 60.7743 7.1578 60.2364C6.18444 59.4839 5.53122 58.294 5.17962 57.0894C4.99642 57.1732 4.80459 57.2386 4.60474 57.2867C4.99026 58.5938 5.70825 59.8768 6.78894 60.7126Z" fill="#8EDAE5"/>
<path fill-rule="evenodd" clip-rule="evenodd" d="M28.7773 82.7489C28.6392 82.7674 28.5022 82.7914 28.3591 82.7914C28.1019 82.7914 27.8552 82.7513 27.6158 82.6934C27.7367 84.6814 28.6688 87.1333 32.218 89.7579L32.6652 88.6569C29.7618 86.4388 28.9186 84.431 28.7773 82.7489Z" fill="#8EDAE5"/>
<path fill-rule="evenodd" clip-rule="evenodd" d="M21.6606 62.8218C21.9961 63.0142 22.3576 63.1672 22.7406 63.2881C23.0417 61.519 23.0139 59.6136 21.8981 58C21.7173 58.3787 21.465 58.7131 21.156 58.9912C21.8123 60.154 21.861 61.4863 21.6606 62.8218Z" fill="#8EDAE5"/>
<path fill-rule="evenodd" clip-rule="evenodd" d="M24.5566 71.7089C24.1643 71.4708 23.7892 71.2414 23.4401 71.0063C23.1163 71.2815 22.7388 71.4887 22.3218 71.6152C22.8368 72.005 23.4025 72.3498 23.9626 72.6891C24.0255 72.7273 24.0878 72.7656 24.1501 72.8032C24.638 72.6292 25.1234 72.4843 25.6101 72.3683C25.2554 72.1345 24.8995 71.9168 24.5566 71.7089Z" fill="#8EDAE5"/>
<path fill-rule="evenodd" clip-rule="evenodd" d="M26.2714 72.8286C25.778 72.9255 25.2907 73.0513 24.8021 73.2073C26.0956 74.0321 27.2337 74.9585 27.7228 76.5592C27.9288 76.5167 28.141 76.4944 28.3588 76.4944C28.5451 76.4944 28.7252 76.5185 28.9022 76.5493C28.463 74.8105 27.4218 73.6866 26.2714 72.8286Z" fill="#8EDAE5"/>
<path fill-rule="evenodd" clip-rule="evenodd" d="M15.9678 57.3191C15.9209 57.1039 15.8938 56.8818 15.8938 56.6524C15.8938 56.4334 15.9166 56.2193 15.9592 56.0127C14.649 56.6209 13.5295 57.7515 12.6412 58.6515C12.4247 58.8705 12.2088 59.0858 12.0028 59.2819C12.3563 59.4534 12.6418 59.7377 12.8164 60.09C13.0187 59.8963 13.2285 59.6884 13.4567 59.4571C14.3091 58.5935 15.1326 57.8194 15.9678 57.3191Z" fill="#8EDAE5"/>
<path fill-rule="evenodd" clip-rule="evenodd" d="M22.2007 65.5776C22.3518 65.0447 22.5042 64.4722 22.6294 63.8776C22.2543 63.7623 21.8935 63.621 21.5524 63.4434C21.4105 64.1478 21.2199 64.8423 21.0281 65.506C21.157 65.49 21.2834 65.4666 21.4167 65.4666C21.6887 65.4666 21.9484 65.5122 22.2007 65.5776Z" fill="#8EDAE5"/>
<path fill-rule="evenodd" clip-rule="evenodd" d="M4.02754 57.3663C3.9745 57.3687 3.92392 57.3817 3.87025 57.3817C3.52668 57.3817 3.20161 57.3132 2.89134 57.2114C2.51939 61.541 4.58084 66.0161 8.12639 68.2577C8.19424 67.8573 8.39657 67.5057 8.68586 67.2442C5.80094 65.3339 3.70556 61.3979 4.02754 57.3663Z" fill="#8EDAE5"/>
<path fill-rule="evenodd" clip-rule="evenodd" d="M35.8323 74.0762C35.6621 74.186 35.4721 74.2674 35.2679 74.313C35.572 75.6565 36.0205 76.9858 36.9032 78.2244L37.1807 77.5422C36.48 76.4442 36.0963 75.2679 35.8323 74.0762Z" fill="#8EDAE5"/>
<path fill-rule="evenodd" clip-rule="evenodd" d="M25.9699 64.4342C27.1518 64.5526 28.3737 64.6753 29.4896 65.0171C33.1733 66.144 34.0899 68.2875 34.6167 70.8504C34.703 70.8375 34.7894 70.8239 34.8794 70.8239C35.0009 70.8239 35.1194 70.8363 35.2335 70.8597C34.6876 68.1296 33.7253 65.6832 29.666 64.4409C28.4928 64.0819 27.2412 63.9567 26.0297 63.8352C24.8497 63.7168 23.7271 63.599 22.7408 63.2881C22.7069 63.4861 22.6699 63.6829 22.6292 63.8772C23.6759 64.1998 24.8282 64.3194 25.9699 64.4342Z" fill="#8EDAE5"/>
<path fill-rule="evenodd" clip-rule="evenodd" d="M21.5521 63.4434C21.5935 63.2368 21.6292 63.0295 21.6607 62.8223C20.6799 62.2604 19.9243 61.3363 19.5147 59.7646C19.3624 59.7875 19.2107 59.8115 19.0527 59.8115C19.0009 59.8115 18.9522 59.7986 18.901 59.7961C19.3809 61.7354 20.3444 62.8155 21.5521 63.4434Z" fill="#8EDAE5"/>
<path fill-rule="evenodd" clip-rule="evenodd" d="M21.5522 63.4434C21.894 63.6211 22.2548 63.7623 22.6292 63.8777C22.6699 63.6834 22.707 63.4866 22.7409 63.2886C22.3578 63.1677 21.9964 63.0147 21.6608 62.8223C21.6294 63.0295 21.5936 63.2368 21.5522 63.4434Z" fill="#8EDAE5"/>
<path fill-rule="evenodd" clip-rule="evenodd" d="M14.7733 69.1048C14.3736 69.0912 13.985 69.0739 13.613 69.0542C13.37 71.4802 13.9436 73.842 16.179 75.6907C16.2506 75.2799 16.4646 74.9209 16.7687 74.6594C15.0336 73.113 14.5679 71.1588 14.7733 69.1048Z" fill="#8EDAE5"/>
<path fill-rule="evenodd" clip-rule="evenodd" d="M25.3733 78.6926C25.4918 78.3213 25.6744 77.9826 25.9131 77.6853C23.8183 76.5621 22.2084 76.4066 20.8551 76.2827C20.4288 76.2432 20.0433 76.1994 19.6701 76.1377C19.6356 76.5553 19.4616 76.9322 19.1865 77.2165C19.7022 77.3214 20.2191 77.3744 20.7502 77.4232C22.0505 77.5435 23.4852 77.6798 25.3733 78.6926Z" fill="#8EDAE5"/>
<path fill-rule="evenodd" clip-rule="evenodd" d="M30.5731 81.8779C30.2974 82.1512 29.9705 82.3732 29.6096 82.5299C30.3566 83.3404 31.5915 84.3391 33.9836 85.4876L34.3894 84.4137L34.403 84.3792C32.3021 83.37 31.2547 82.5817 30.5731 81.8779Z" fill="#8EDAE5"/>
<path fill-rule="evenodd" clip-rule="evenodd" d="M15.3344 66.4717C15.0044 66.2349 14.683 65.9906 14.3746 65.7358C14.0705 66.6309 13.8281 67.545 13.6893 68.4561C14.0545 68.477 14.4357 68.4962 14.8397 68.511C14.9471 67.8343 15.1185 67.1515 15.3344 66.4717Z" fill="#8EDAE5"/>
<path fill-rule="evenodd" clip-rule="evenodd" d="M14.8029 64.5795C15.1033 64.8398 15.4117 65.0945 15.7355 65.3375C16.3425 63.7547 17.1215 62.2281 17.8 60.905C18.0153 60.4862 18.209 60.1037 18.3897 59.7386C18.0061 59.6565 17.6489 59.5029 17.3306 59.2944C17.1592 59.6386 16.9772 59.9976 16.7804 60.3819C16.1543 61.602 15.416 63.0442 14.8029 64.5795Z" fill="#8EDAE5"/>
<path fill-rule="evenodd" clip-rule="evenodd" d="M19.1806 53.5073C19.5754 53.5234 19.9541 53.6042 20.2989 53.7528C20.5814 52.0997 20.4574 50.1055 19.1713 46.7925H17.9432C19.2824 50.079 19.4458 51.9239 19.1806 53.5073Z" fill="#8EDAE5"/>
<path fill-rule="evenodd" clip-rule="evenodd" d="M13.689 68.4565C13.6588 68.6558 13.6329 68.855 13.6132 69.0543C13.9845 69.074 14.3737 69.0906 14.7734 69.1048C14.7932 68.9068 14.808 68.7107 14.84 68.5114C14.4354 68.496 14.0548 68.4775 13.689 68.4565Z" fill="#8EDAE5"/>
<path fill-rule="evenodd" clip-rule="evenodd" d="M10.4094 70.2363C10.2379 70.2912 10.059 70.3289 9.86965 70.3289C9.84497 70.3289 9.82215 70.3227 9.7981 70.3221C10.4951 72.4156 11.9922 74.6245 14.0697 75.752C14.6513 76.0679 15.3773 76.3386 16.2131 76.4404C16.1749 76.2961 16.1484 76.148 16.1484 75.9926C16.1484 75.9328 16.1601 75.8766 16.1663 75.8187C15.5494 75.7305 14.9437 75.5411 14.3565 75.2228C12.4998 74.2155 11.0891 72.1806 10.4094 70.2363Z" fill="#8EDAE5"/>
<path fill-rule="evenodd" clip-rule="evenodd" d="M25.6104 72.3687C25.8324 72.5143 26.0539 72.6654 26.2716 72.8282C28.2658 72.4359 30.3754 72.4927 33.1227 72.703C33.1203 72.6654 33.111 72.6296 33.111 72.5914C33.111 72.4211 33.1431 72.2601 33.1881 72.1041C30.1743 71.8752 27.8612 71.8327 25.6104 72.3687Z" fill="#8EDAE5"/>
<path fill-rule="evenodd" clip-rule="evenodd" d="M24.8023 73.2066C24.5882 73.0703 24.3699 72.9371 24.1503 72.8032C22.9203 73.2424 21.6669 73.8728 20.2821 74.7722C20.0218 74.9418 19.7609 75.0898 19.5 75.2206C19.5888 75.4019 19.6443 75.5993 19.6665 75.8084C19.975 75.6592 20.2889 75.4871 20.6109 75.278C22.1296 74.291 23.4718 73.6316 24.8023 73.2066Z" fill="#8EDAE5"/>
<path fill-rule="evenodd" clip-rule="evenodd" d="M36.1372 71.3515C36.2865 71.5032 36.4074 71.6821 36.495 71.8789C37.4782 71.6001 38.359 71.9807 39.2707 72.397L39.4977 71.8376C38.5392 71.4015 37.4134 70.9018 36.1372 71.3515Z" fill="#8EDAE5"/>
<path fill-rule="evenodd" clip-rule="evenodd" d="M25.6104 72.3687C25.1238 72.484 24.6383 72.629 24.1504 72.8035C24.37 72.9368 24.5883 73.0706 24.8024 73.2069C25.2909 73.0503 25.7782 72.925 26.2717 72.8282C26.0539 72.6653 25.8325 72.5142 25.6104 72.3687Z" fill="#8EDAE5"/>
<path fill-rule="evenodd" clip-rule="evenodd" d="M9.99767 59.6141C10.2709 59.3433 10.6342 59.1687 11.0358 59.1218C9.97793 56.4769 8.39144 55.2272 6.99925 54.519C6.96101 54.9218 6.85121 55.3 6.67542 55.6441C7.86158 56.2918 9.12671 57.3959 9.99767 59.6141Z" fill="#8EDAE5"/>
<path fill-rule="evenodd" clip-rule="evenodd" d="M18.3087 68.2163C18.3599 67.819 18.4827 67.4477 18.6683 67.1109C17.6333 66.6168 16.6414 66.0154 15.7353 65.3369C15.591 65.7126 15.4552 66.0907 15.3344 66.4713C16.2608 67.1368 17.2601 67.7296 18.3087 68.2163Z" fill="#8EDAE5"/>
<path fill-rule="evenodd" clip-rule="evenodd" d="M1.24423 46.792H0.658858L0.0969238 46.813C0.131466 47.7351 0.346741 50.1025 1.54771 52.0992C1.80863 51.8149 2.1189 51.5829 2.46679 51.4084C1.46506 49.6825 1.27631 47.6185 1.24423 46.792Z" fill="#8EDAE5"/>
<path fill-rule="evenodd" clip-rule="evenodd" d="M14.3746 65.7359C14.5072 65.346 14.651 64.9599 14.8027 64.5793C13.9108 63.8058 13.1311 62.962 12.5093 62.0854C12.2391 62.3667 11.8771 62.553 11.4712 62.6073C12.2373 63.7256 13.2267 64.7884 14.3746 65.7359Z" fill="#8EDAE5"/>
<path fill-rule="evenodd" clip-rule="evenodd" d="M15.7352 65.3372C15.412 65.0942 15.103 64.84 14.8026 64.5791C14.6509 64.9603 14.5071 65.3458 14.3745 65.7357C14.6829 65.991 15.0043 66.2353 15.3343 66.4722C15.4552 66.0916 15.5909 65.7128 15.7352 65.3372Z" fill="#8EDAE5"/>
<path fill-rule="evenodd" clip-rule="evenodd" d="M5.80295 46.792H5.19722C5.04918 48.1811 4.67723 49.5838 4.13257 51.0913C4.33859 51.1086 4.53906 51.1444 4.73275 51.1999C5.28358 49.6615 5.65738 48.2243 5.80295 46.792Z" fill="#8EDAE5"/>
<path fill-rule="evenodd" clip-rule="evenodd" d="M21.8434 81.028C20.2896 80.342 19.2342 78.9573 18.6204 77.6113C18.4348 77.6927 18.2318 77.7372 18.0197 77.7495C18.6784 79.2422 19.8523 80.8078 21.5997 81.5788C22.3128 81.8934 23.0715 82.0507 23.8611 82.0507C24.547 82.0507 25.2582 81.9199 25.983 81.6849C25.8466 81.527 25.7276 81.3567 25.6246 81.1729C24.2712 81.5806 23.003 81.5405 21.8434 81.028Z" fill="#8EDAE5"/>
<path fill-rule="evenodd" clip-rule="evenodd" d="M19.8631 71.3375C19.6867 71.2364 19.522 71.1198 19.369 70.9878C18.556 71.8952 17.6931 72.9 17.4513 74.2946C17.6006 74.2539 17.7548 74.2249 17.917 74.2249C17.9725 74.2249 18.0249 74.236 18.0786 74.2416C18.3352 73.0671 19.0982 72.1918 19.8569 71.3449L19.8631 71.3375Z" fill="#8EDAE5"/>
<path fill-rule="evenodd" clip-rule="evenodd" d="M31.5072 79.6411V79.643C31.5072 79.8471 31.4844 80.0458 31.4468 80.2394C32.4386 80.4553 33.7796 80.8236 35.6122 81.4028L35.8392 80.8439C33.9548 80.2475 32.5583 79.8656 31.5072 79.6411Z" fill="#8EDAE5"/>
<path fill-rule="evenodd" clip-rule="evenodd" d="M11.2389 59.5308C11.2228 59.5308 11.2093 59.5394 11.1932 59.54C11.1766 59.5406 11.163 59.548 11.147 59.5493C10.7435 59.5789 10.4037 59.7874 10.1785 60.097C10.0188 60.3172 9.90527 60.5732 9.90527 60.8662C9.90527 60.9112 9.92686 60.9495 9.93118 60.9939C9.95215 61.2042 10.0225 61.393 10.1304 61.5632C10.2081 61.6866 10.2976 61.7952 10.4098 61.8864C10.5702 62.0172 10.7584 62.1011 10.9675 62.1461C11.0433 62.1628 11.1149 62.1893 11.1945 62.1924C11.2105 62.1924 11.2234 62.201 11.2389 62.201C11.6497 62.201 12.0031 62.0043 12.248 61.7119C12.4423 61.48 12.5731 61.1913 12.5731 60.8662C12.5731 60.7021 12.5342 60.5485 12.4799 60.4042C12.351 60.0582 12.0919 59.7769 11.7533 59.635C11.7169 59.6196 11.6725 59.6227 11.6343 59.6109C11.5072 59.5702 11.3795 59.5308 11.2389 59.5308Z" fill="#8EDAE5"/>
<path fill-rule="evenodd" clip-rule="evenodd" d="M10.1645 51.6911C10.1645 51.6936 10.1657 51.6967 10.1657 51.6998C10.1922 52.1174 10.4118 52.4689 10.735 52.6966C10.9404 52.8415 11.1767 52.9414 11.4444 52.9513C11.461 52.9519 11.4746 52.9606 11.4913 52.9606C11.6868 52.9606 11.87 52.9137 12.0378 52.8378C12.1155 52.8033 12.1772 52.7459 12.2457 52.6978C12.5652 52.4739 12.7811 52.1285 12.8125 51.7176C12.8131 51.7109 12.8162 51.7053 12.8168 51.6985C12.8187 51.6708 12.8329 51.6473 12.8329 51.6183C12.8329 51.4382 12.7946 51.2674 12.7299 51.1101C12.5713 50.7258 12.2327 50.4525 11.8244 50.3452C11.7152 50.3162 11.6091 50.2773 11.4913 50.2773C11.3957 50.2773 11.3105 50.3131 11.2205 50.3322C10.9898 50.3816 10.7801 50.4747 10.6098 50.6259C10.3322 50.872 10.1497 51.2205 10.1497 51.6183C10.1497 51.6442 10.1632 51.6658 10.1645 51.6911Z" fill="#8EDAE5"/>
<path fill-rule="evenodd" clip-rule="evenodd" d="M18.6577 77.0756C18.992 76.8462 19.2203 76.4853 19.2418 76.0554C19.2425 76.0332 19.2542 76.0141 19.2542 75.9918C19.2542 75.9875 19.2523 75.9844 19.2523 75.9807C19.2505 75.7673 19.1882 75.5736 19.0975 75.3948C18.889 74.9852 18.4838 74.7027 18.002 74.6706C17.9724 74.6687 17.9471 74.6533 17.9169 74.6533C17.7325 74.6533 17.5567 74.6909 17.3969 74.7588C17.289 74.8044 17.202 74.8809 17.1107 74.9513C16.827 75.1721 16.6394 75.4922 16.603 75.8691C16.5993 75.9117 16.5784 75.9481 16.5784 75.9918C16.5784 75.9943 16.5802 75.9962 16.5802 75.998C16.5808 76.1664 16.6185 76.3249 16.6764 76.473C16.8621 76.9516 17.3124 77.2878 17.849 77.3162C17.8731 77.3174 17.8928 77.3298 17.9169 77.3298C18.1081 77.3298 18.2882 77.2866 18.4529 77.2138C18.5294 77.1799 18.5899 77.1225 18.6577 77.0756Z" fill="#8EDAE5"/>
<path fill-rule="evenodd" clip-rule="evenodd" d="M3.87007 56.5194C3.96012 56.5194 4.04525 56.5034 4.13222 56.4929C4.22413 56.4824 4.31542 56.4719 4.40363 56.4503C4.60718 56.4016 4.79655 56.3227 4.97543 56.2234C5.37082 56.0038 5.69219 55.6744 5.90068 55.2716C6.06476 54.9558 6.16653 54.6029 6.16653 54.2236C6.16653 54.1934 6.15851 54.1662 6.15728 54.136C6.15173 53.9824 6.13137 53.8325 6.09683 53.6876C5.9969 53.2755 5.79088 52.9048 5.50221 52.6124C5.21291 52.3194 4.84405 52.1103 4.43262 52.0061C4.25189 51.9598 4.06499 51.9277 3.87007 51.9277C3.85095 51.9277 3.83306 51.9327 3.81455 51.9333C3.50675 51.9407 3.21376 52.0073 2.94729 52.1245C2.58891 52.2824 2.28419 52.5328 2.04918 52.8406C1.75557 53.2268 1.57422 53.7024 1.57422 54.2236C1.57422 55.1778 2.16021 55.997 2.99108 56.343C3.26187 56.4559 3.55857 56.5194 3.87007 56.5194Z" fill="#8EDAE5"/>
<path fill-rule="evenodd" clip-rule="evenodd" d="M10.2621 69.8183C10.7105 69.6776 11.0412 69.3174 11.1504 68.8566C11.1744 68.7573 11.2114 68.6623 11.2114 68.5556C11.2114 68.4464 11.1738 68.3496 11.1491 68.2478C11.0381 67.7901 10.7093 67.433 10.2633 67.2936C10.1363 67.2535 10.0092 67.2134 9.86919 67.2134C9.79085 67.2134 9.72239 67.2455 9.64775 67.2584C9.43556 67.2954 9.24496 67.3762 9.07903 67.5008C8.76444 67.7377 8.5504 68.0936 8.53683 68.5137C8.53622 68.5285 8.5282 68.5408 8.5282 68.5556C8.5282 69.2175 9.01796 69.7436 9.64837 69.8528C9.723 69.8658 9.79085 69.8978 9.86919 69.8978C10.0086 69.8978 10.1357 69.8577 10.2621 69.8183Z" fill="#8EDAE5"/>
<path fill-rule="evenodd" clip-rule="evenodd" d="M34.7036 71.2892C34.6555 71.296 34.6086 71.3058 34.5624 71.3176C34.1478 71.4218 33.8037 71.6969 33.6439 72.0861C33.6371 72.1022 33.639 72.1219 33.6334 72.138C33.5816 72.2811 33.5415 72.431 33.5415 72.5913C33.5415 72.6431 33.5656 72.6876 33.5711 72.7375C33.5946 72.9405 33.6618 73.123 33.7654 73.2877C33.9788 73.6276 34.3286 73.8595 34.7474 73.9027C34.7931 73.9076 34.8325 73.9299 34.88 73.9299C34.9843 73.9299 35.0762 73.8928 35.1736 73.8706C35.384 73.8213 35.5746 73.7343 35.7337 73.5992C35.7368 73.5968 35.7405 73.5949 35.7436 73.5924C36.028 73.3469 36.2173 72.9966 36.2173 72.5913C36.2173 72.5593 36.2013 72.5321 36.1988 72.5C36.1871 72.3335 36.1526 72.175 36.0847 72.0306C35.994 71.8369 35.8522 71.6809 35.685 71.5513C35.5752 71.4656 35.4599 71.3916 35.326 71.3435C35.1854 71.2929 35.0379 71.2534 34.88 71.2534C34.8177 71.2534 34.7641 71.2806 34.7036 71.2892Z" fill="#8EDAE5"/>
<path fill-rule="evenodd" clip-rule="evenodd" d="M16.7566 56.6528C16.7566 56.7465 16.7732 56.836 16.7843 56.9267C16.8627 57.5743 17.2044 58.1381 17.7077 58.5045C18.0032 58.7198 18.3505 58.8617 18.7286 58.9159C18.7446 58.9178 18.7613 58.919 18.778 58.9209C18.8686 58.932 18.9587 58.9486 19.0524 58.9486C19.1505 58.9486 19.2443 58.9314 19.3393 58.9196C19.8512 58.8549 20.3145 58.6303 20.6642 58.2843C20.9492 58.003 21.1528 57.6453 21.2601 57.2474C21.3119 57.0568 21.3483 56.8594 21.3483 56.6528C21.3483 55.7713 20.8431 55.0126 20.1122 54.6283C19.7939 54.4606 19.4367 54.3569 19.0524 54.3569C19.0333 54.3569 19.016 54.3619 18.9969 54.3625C18.4214 54.3767 17.9008 54.6043 17.5048 54.9682C17.2902 55.1656 17.115 55.4018 16.9873 55.6677C16.9324 55.7824 16.8898 55.9027 16.8541 56.0267C16.7967 56.2272 16.7566 56.4344 16.7566 56.6528Z" fill="#8EDAE5"/>
<path fill-rule="evenodd" clip-rule="evenodd" d="M28.7574 81.8924C28.8487 81.8764 28.9356 81.8499 29.0226 81.8233C29.4013 81.7074 29.7406 81.5032 30.0083 81.2244C30.3075 80.9129 30.5197 80.5194 30.6054 80.0796C30.6332 79.9377 30.6492 79.7921 30.6492 79.6428C30.6492 79.5861 30.6369 79.533 30.6332 79.4775C30.6103 79.1722 30.5308 78.8854 30.4006 78.6251C30.2248 78.2747 29.9694 77.9718 29.6487 77.7522C29.4717 77.6313 29.2737 77.5438 29.0664 77.4759C28.8425 77.4025 28.6075 77.3525 28.3589 77.3525C28.2053 77.3525 28.0554 77.3692 27.9098 77.3982C27.4164 77.4969 26.9852 77.7584 26.6614 78.1193C26.4054 78.4042 26.2179 78.749 26.1297 79.1346C26.0927 79.2986 26.0686 79.4677 26.0686 79.6428C26.0686 80.0987 26.2062 80.5218 26.4369 80.879C26.5522 81.0578 26.6947 81.2145 26.8538 81.3545C27.074 81.5482 27.3294 81.6987 27.6119 81.7968C27.8469 81.8789 28.0961 81.9325 28.3589 81.9325C28.4952 81.9325 28.6278 81.9152 28.7574 81.8924Z" fill="#8EDAE5"/>
<path fill-rule="evenodd" clip-rule="evenodd" d="M23.7066 68.6155C23.7066 68.2423 23.6085 67.8944 23.4494 67.5829C23.1508 66.9988 22.6148 66.5602 21.9646 66.3992C21.7882 66.3554 21.6063 66.3252 21.4169 66.3252C21.188 66.3252 20.9722 66.369 20.7637 66.4313C20.2067 66.5985 19.741 66.9679 19.4504 67.4595C19.2648 67.7748 19.1519 68.1344 19.1352 68.5217C19.1346 68.539 19.1309 68.5557 19.1303 68.5735C19.1303 68.5877 19.126 68.6013 19.126 68.6155C19.126 68.7888 19.1488 68.956 19.1858 69.1182C19.2956 69.6055 19.5645 70.0293 19.9316 70.3445C20.0845 70.4765 20.2529 70.5894 20.438 70.6776C20.7359 70.8194 21.0653 70.9052 21.4169 70.9052C21.4496 70.9052 21.4804 70.8972 21.5131 70.8953C21.9671 70.8762 22.3866 70.7288 22.7351 70.4814C23.3136 70.0712 23.6949 69.402 23.7041 68.6426C23.7041 68.6334 23.7066 68.6247 23.7066 68.6155Z" fill="#8EDAE5"/>
<path fill-rule="evenodd" clip-rule="evenodd" d="M1.24318 46.7695L0.65904 46.7917H1.24441C1.24441 46.7849 1.24318 46.7756 1.24318 46.7695Z" fill="#8EDAE5"/>
<path fill-rule="evenodd" clip-rule="evenodd" d="M34.4032 84.3782L34.389 84.4134L34.4051 84.3789C34.4044 84.3789 34.4038 84.3782 34.4032 84.3782Z" fill="#8EDAE5"/>
<path fill-rule="evenodd" clip-rule="evenodd" d="M19.2415 40.6289C19.2415 30.8502 23.7961 22.1467 30.8866 16.4842L21.4713 0H20.7724C8.19091 9.11061 0 23.909 0 40.6289C0 42.0963 0.0666179 43.5483 0.190601 44.9837H19.553C19.3513 43.5601 19.2415 42.1074 19.2415 40.6289Z" fill="#F59C00"/>
<path fill-rule="evenodd" clip-rule="evenodd" d="M100.288 40.6289C100.288 23.909 92.0965 9.11061 79.5162 0H42.1399V44.5939H63.0622V19.9126H73.0271C77.9939 25.3974 81.0466 32.6483 81.0466 40.6289C81.0466 42.1074 80.9355 43.5601 80.7351 44.9837H100.097C100.221 43.5483 100.288 42.0963 100.288 40.6289Z" fill="#F59C00"/>
<path fill-rule="evenodd" clip-rule="evenodd" d="M49.8204 72.9923C47.0724 72.9923 44.3491 72.6259 41.7226 71.911L41.2841 72.9873C44.0512 73.7534 46.9231 74.142 49.8204 74.142C65.6138 74.142 79.0465 62.5277 81.4034 47.0039H80.2389C77.8943 61.8819 64.9864 72.9923 49.8204 72.9923Z" fill="#F59C00"/>
<path fill-rule="evenodd" clip-rule="evenodd" d="M49.8415 75.7037C46.7326 75.7037 43.6565 75.275 40.6945 74.4349L40.2972 75.4114C43.387 76.2996 46.5976 76.7505 49.8415 76.7505C67.1165 76.7505 81.6725 64.0154 84.0374 47.0044H82.9789C80.6239 63.4263 66.5441 75.7037 49.8415 75.7037Z" fill="#F59C00"/>
<path fill-rule="evenodd" clip-rule="evenodd" d="M49.8629 78.4155C46.3933 78.4155 42.9655 77.9208 39.6692 76.9523L39.3108 77.8332C42.7225 78.8448 46.2711 79.3598 49.8629 79.3598C68.6208 79.3598 84.3001 65.5027 86.6705 47.0039H85.7169C83.3538 64.9716 68.1027 78.4155 49.8629 78.4155Z" fill="#F59C00"/>
<path fill-rule="evenodd" clip-rule="evenodd" d="M49.8839 81.1271C46.054 81.1271 42.2753 80.5664 38.6446 79.469L38.3257 80.2518C42.0581 81.3886 45.9448 81.9684 49.8839 81.9684C70.124 81.9684 86.9253 66.9905 89.3019 47.0039H88.4538C86.0839 66.5162 69.6614 81.1271 49.8839 81.1271Z" fill="#F59C00"/>
<path fill-rule="evenodd" clip-rule="evenodd" d="M49.9053 83.838C45.7152 83.838 41.5849 83.2113 37.6199 81.9838L37.3398 82.6722C41.3943 83.9336 45.6196 84.5776 49.9053 84.5776C60.5161 84.5776 70.6642 80.6324 78.4807 73.4685C86.0535 66.5273 90.8031 57.1533 91.9338 47.0039H91.1887C88.8126 68.0601 71.2212 83.838 49.9053 83.838Z" fill="#F59C00"/>
<path fill-rule="evenodd" clip-rule="evenodd" d="M49.927 86.5501C45.376 86.5501 40.8935 85.8562 36.5967 84.4979L36.3555 85.0894C40.73 86.4773 45.2934 87.1861 49.927 87.1861C61.2323 87.1861 72.0336 82.97 80.3424 75.3145C88.4087 67.8811 93.4303 57.852 94.564 47.0044H93.9225C91.5558 69.2449 72.4013 86.5501 49.927 86.5501Z" fill="#F59C00"/>
<path fill-rule="evenodd" clip-rule="evenodd" d="M49.949 89.2612C45.0372 89.2612 40.2043 88.4994 35.5732 87.0098L35.3715 87.5063C40.0668 89.0213 44.9675 89.7948 49.949 89.7948C61.9489 89.7948 73.4041 85.3079 82.2038 77.1602C90.7636 69.2351 96.0585 58.5498 97.1941 47.0039H96.6556C94.2857 70.7637 73.937 89.2612 49.949 89.2612Z" fill="#F59C00"/>
<path fill-rule="evenodd" clip-rule="evenodd" d="M49.9701 91.9728C44.698 91.9728 39.5142 91.1438 34.5499 89.5221L34.3871 89.9231C39.4032 91.5651 44.6419 92.4046 49.9701 92.4046C62.6651 92.4046 74.7729 87.6464 84.0649 79.007C93.1181 70.5891 98.6857 59.248 99.8225 47.0039H99.3882C97.0147 72.2835 75.4718 91.9728 49.9701 91.9728Z" fill="#F59C00"/>
<path fill-rule="evenodd" clip-rule="evenodd" d="M52.4994 56.6952H45.6575V68.9437H42.2372V53.4951H55.9198V68.9437H52.4994V56.6952Z" fill="#3C3F48"/>
<path fill-rule="evenodd" clip-rule="evenodd" d="M63.0959 56.6952V60.889H66.0314C68.1724 60.889 69.0773 60.0939 69.0773 58.7918C69.0773 57.5785 68.3266 56.6952 66.164 56.6952H63.0959ZM59.6755 68.9437V53.4951H66.0758C71.3281 53.4951 72.6302 56.2764 72.6302 58.8147C72.6302 61.4183 70.9531 64.0892 66.0758 64.0892H63.0959V68.9437H59.6755Z" fill="#3C3F48"/>
<path fill-rule="evenodd" clip-rule="evenodd" d="M82.6965 65.8989C85.125 65.8989 87.089 64.0891 87.089 61.2196C87.089 58.3507 84.9473 56.5409 82.6965 56.5409C80.3575 56.5409 78.2825 58.3507 78.2825 61.2196C78.2825 64.0891 80.3575 65.8989 82.6965 65.8989ZM82.6965 53.2305C87.1105 53.2305 90.6419 56.6292 90.6419 61.2197C90.6419 65.7663 87.1105 69.2089 82.6965 69.2089C78.2824 69.2089 74.7295 65.8108 74.7295 61.2197C74.7295 56.7618 78.2164 53.2305 82.6965 53.2305Z" fill="#3C3F48"/>
<path fill-rule="evenodd" clip-rule="evenodd" d="M103.931 53.313L105.911 53.9539L99.5245 71.1715L97.5648 70.4147L103.931 53.313Z" fill="#3C3F48"/>
<path fill-rule="evenodd" clip-rule="evenodd" d="M111.637 53.313L113.617 53.9539L107.231 71.1715L105.27 70.4147L111.637 53.313Z" fill="#3C3F48"/>
<path fill-rule="evenodd" clip-rule="evenodd" d="M79.9606 93.034H76.5396V87.229C75.7008 87.6713 74.2222 88.0901 72.7653 88.0901C69.3227 88.0901 66.6309 86.5893 66.6309 82.7927V77.5854H70.0734V80.6301C70.0734 83.8087 71.0221 84.89 73.2297 84.89C74.3326 84.89 75.657 84.5371 76.5396 83.9629V77.5854H79.9606V93.034Z" fill="#3C3F48"/>
<path fill-rule="evenodd" clip-rule="evenodd" d="M82.2592 77.5854H95.5889V80.7856H90.6234V93.034H87.2024V80.7856H82.2592V77.5854Z" fill="#3C3F48"/>
<path fill-rule="evenodd" clip-rule="evenodd" d="M97.8872 77.5854H109.694V80.7856H101.308V83.6538H109.143V86.7448H101.308V89.8339H109.893V93.034H97.8872V77.5854Z" fill="#3C3F48"/>
<path fill-rule="evenodd" clip-rule="evenodd" d="M123.359 86.854H116.495V93.034H113.074V77.5854H116.495V83.6538H123.359V77.5854H126.779V93.034H123.359V86.854Z" fill="#3C3F48"/>
<path fill-rule="evenodd" clip-rule="evenodd" d="M130.512 93.034V77.5854H133.933V87.0526L141.415 77.5854H144.262V93.034H140.841V83.61L133.315 93.034H130.512Z" fill="#3C3F48"/>
<path fill-rule="evenodd" clip-rule="evenodd" d="M147.995 77.5854H159.801V80.7856H151.415V83.6538H159.25V86.7448H151.415V89.8339H160V93.034H147.995V77.5854Z" fill="#3C3F48"/>
<path d="M39.4432 106.183V111.034H40.3672V106.183H42.5782V105.314H37.2542V106.183H39.4432ZM47.4709 109.395C47.1189 109.912 46.4809 110.264 45.8099 110.264C44.6109 110.264 43.7749 109.604 43.7199 108.471H48.2299C48.2629 108.262 48.2849 108.031 48.2849 107.778C48.2849 106.997 48.0319 106.37 47.5369 105.897C47.0419 105.424 46.4039 105.182 45.6449 105.182C44.7209 105.182 44.0059 105.457 43.4999 106.018C42.9829 106.579 42.7299 107.294 42.7299 108.163C42.7299 109.065 43.0049 109.78 43.5659 110.319C44.1269 110.858 44.8639 111.133 45.7769 111.133C46.7779 111.133 47.5369 110.737 48.0649 109.945L47.4709 109.395ZM45.5789 106.029C46.6019 106.029 47.2509 106.623 47.3059 107.635H43.7089C43.8519 106.667 44.5339 106.029 45.5789 106.029ZM53.0028 105.314L51.3418 107.415L49.6918 105.314H48.5368L50.7038 108.086L48.4158 111.034H49.5158L51.3088 108.735L53.0798 111.034H54.2348L51.9358 108.075L54.1248 105.314H53.0028ZM60.0885 111.034V105.314H59.1645V107.69H55.8645V105.314H54.9405V111.034H55.8645V108.559H59.1645V111.034H60.0885ZM61.1098 108.163C61.1098 109.032 61.3958 109.736 61.9568 110.297C62.5178 110.858 63.2438 111.133 64.1348 111.133C65.0258 111.133 65.7628 110.858 66.3348 110.297C66.8958 109.736 67.1818 109.032 67.1818 108.163C67.1818 107.294 66.8958 106.579 66.3348 106.018C65.7738 105.457 65.0368 105.182 64.1348 105.182C63.2438 105.182 62.5178 105.457 61.9568 106.018C61.3958 106.579 61.1098 107.294 61.1098 108.163ZM62.0888 108.163C62.0888 107.536 62.2868 107.019 62.6718 106.634C63.0568 106.249 63.5408 106.051 64.1348 106.051C64.7288 106.051 65.2238 106.249 65.6198 106.634C66.0048 107.03 66.2028 107.536 66.2028 108.163C66.2028 108.79 66.0158 109.296 65.6308 109.681C65.2458 110.066 64.7398 110.264 64.1348 110.264C63.5298 110.264 63.0458 110.066 62.6608 109.67C62.2758 109.274 62.0888 108.768 62.0888 108.163ZM73.0502 111.034V105.314H68.7822V106.491C68.7822 109.835 68.1662 110.154 67.4292 110.154V111.034C68.1442 111.122 68.6612 110.902 69.0792 110.242C69.4972 109.582 69.7062 108.306 69.7062 106.458V106.194H72.1262V111.034H73.0502ZM74.0756 108.163C74.0756 109.032 74.3616 109.736 74.9226 110.297C75.4836 110.858 76.2096 111.133 77.1006 111.133C77.9916 111.133 78.7286 110.858 79.3006 110.297C79.8616 109.736 80.1476 109.032 80.1476 108.163C80.1476 107.294 79.8616 106.579 79.3006 106.018C78.7396 105.457 78.0026 105.182 77.1006 105.182C76.2096 105.182 75.4836 105.457 74.9226 106.018C74.3616 106.579 74.0756 107.294 74.0756 108.163ZM75.0546 108.163C75.0546 107.536 75.2526 107.019 75.6376 106.634C76.0226 106.249 76.5066 106.051 77.1006 106.051C77.6946 106.051 78.1896 106.249 78.5856 106.634C78.9706 107.03 79.1686 107.536 79.1686 108.163C79.1686 108.79 78.9816 109.296 78.5966 109.681C78.2116 110.066 77.7056 110.264 77.1006 110.264C76.4956 110.264 76.0116 110.066 75.6266 109.67C75.2416 109.274 75.0546 108.768 75.0546 108.163ZM82.097 111.034V106.183H85.342V105.314H81.173V111.034H82.097ZM90.3732 106.755V111.034H91.2972V105.314H90.4392L86.9632 109.604V105.314H86.0392V111.034H86.8862L90.3732 106.755ZM94.9119 105.314C93.1959 105.314 92.4369 106.062 92.4369 107.151C92.4369 108.031 93.0199 108.702 93.8999 108.867L92.0739 111.034H93.1959L94.8899 109.01H96.2869V111.034H97.2109V105.314H94.9119ZM93.4159 107.173C93.4159 106.524 93.8779 106.194 94.8019 106.194H96.2869V108.13H94.7799C93.9439 108.13 93.4159 107.734 93.4159 107.173ZM106.934 111.034V105.314H101.852V111.034H102.776V106.183H106.01V111.034H106.934ZM107.956 108.163C107.956 109.032 108.242 109.736 108.803 110.297C109.364 110.858 110.09 111.133 110.981 111.133C111.872 111.133 112.609 110.858 113.181 110.297C113.742 109.736 114.028 109.032 114.028 108.163C114.028 107.294 113.742 106.579 113.181 106.018C112.62 105.457 111.883 105.182 110.981 105.182C110.09 105.182 109.364 105.457 108.803 106.018C108.242 106.579 107.956 107.294 107.956 108.163ZM108.935 108.163C108.935 107.536 109.133 107.019 109.518 106.634C109.903 106.249 110.387 106.051 110.981 106.051C111.575 106.051 112.07 106.249 112.466 106.634C112.851 107.03 113.049 107.536 113.049 108.163C113.049 108.79 112.862 109.296 112.477 109.681C112.092 110.066 111.586 110.264 110.981 110.264C110.376 110.264 109.892 110.066 109.507 109.67C109.122 109.274 108.935 108.768 108.935 108.163ZM120.202 111.034V105.314H119.278V107.69H115.978V105.314H115.054V111.034H115.978V108.559H119.278V111.034H120.202ZM125.876 106.755V111.034H126.8V105.314H125.942L122.466 109.604V105.314H121.542V111.034H122.389L125.876 106.755ZM129.062 111.034V106.942L131.086 109.582L133.022 106.942V111.034H133.946V105.314H133.154L131.097 108.108L128.985 105.314H128.138V111.034H129.062ZM135.732 106.689C136.293 106.26 136.865 106.051 137.437 106.051C138.57 106.051 138.966 106.645 138.966 107.756C138.603 107.646 138.163 107.591 137.624 107.591C135.908 107.591 134.885 108.163 134.885 109.362C134.885 110.418 135.721 111.111 136.964 111.111C137.888 111.111 138.603 110.715 138.966 110.187V111.034H139.89V107.503C139.89 106.018 139.076 105.182 137.547 105.182C136.7 105.182 135.787 105.501 135.259 105.996L135.732 106.689ZM137.184 110.275C136.392 110.275 135.864 109.912 135.864 109.329C135.864 108.713 136.491 108.405 137.745 108.405C138.24 108.405 138.647 108.46 138.966 108.57V109.153C138.845 109.428 138.636 109.692 138.317 109.923C137.998 110.154 137.613 110.275 137.184 110.275ZM146.316 111.034V105.314H145.392V107.69H142.092V105.314H141.168V111.034H142.092V108.559H145.392V111.034H146.316ZM151.99 106.755V111.034H152.914V105.314H152.056L148.58 109.604V105.314H147.656V111.034H148.503L151.99 106.755ZM156.529 105.314C154.813 105.314 154.054 106.062 154.054 107.151C154.054 108.031 154.637 108.702 155.517 108.867L153.691 111.034H154.813L156.507 109.01H157.904V111.034H158.828V105.314H156.529ZM155.033 107.173C155.033 106.524 155.495 106.194 156.419 106.194H157.904V108.13H156.397C155.561 108.13 155.033 107.734 155.033 107.173Z" fill="#3C3F48"/>
</svg>
