<svg width="320" height="231" viewBox="0 0 320 231" fill="none" xmlns="http://www.w3.org/2000/svg">
<path fill-rule="evenodd" clip-rule="evenodd" d="M25.4102 105.811C27.9071 106.955 30.3843 108.278 32.4655 110.516C32.8183 109.807 33.2933 109.176 33.8731 108.648C31.6044 106.322 28.9828 104.931 26.476 103.778C26.3527 104.575 25.9715 105.282 25.4102 105.811Z" fill="#8EDAE5"/>
<path fill-rule="evenodd" clip-rule="evenodd" d="M19.4731 102.863C19.5595 102.052 19.9074 101.32 20.449 100.765C18.2604 99.2833 16.743 97.26 16.4346 93.585H14.1511C14.5138 98.453 16.6912 101.07 19.4731 102.863Z" fill="#8EDAE5"/>
<path fill-rule="evenodd" clip-rule="evenodd" d="M60.7719 154.508C61.353 155.001 61.8378 155.593 62.2091 156.266C64.8849 154.277 67.5891 151.527 69.0954 148.65C68.3096 148.501 67.6249 148.085 67.1166 147.508C65.8028 150.101 63.2664 152.677 60.7719 154.508Z" fill="#8EDAE5"/>
<path fill-rule="evenodd" clip-rule="evenodd" d="M27.3781 136.913C25.7953 136.822 24.4 136.709 23.2354 136.595C23.2601 136.764 23.2873 136.934 23.2873 137.112C23.2873 137.35 23.2626 137.583 23.2169 137.81C24.3976 137.926 25.7459 138.028 27.2263 138.108C27.2658 137.71 27.3176 137.311 27.3781 136.913Z" fill="#8EDAE5"/>
<path fill-rule="evenodd" clip-rule="evenodd" d="M23.6234 99.7572C23.5716 97.8771 23.6493 95.8243 23.9096 93.584H22.6969C22.4428 95.8206 22.3651 97.8697 22.4169 99.7498C22.602 99.7202 22.7895 99.6931 22.9819 99.6931C23.2028 99.6931 23.4149 99.719 23.6234 99.7572Z" fill="#8EDAE5"/>
<path fill-rule="evenodd" clip-rule="evenodd" d="M36.551 137.087C34.0627 137.133 31.7521 137.1 29.6795 137.022C29.6166 137.42 29.5857 137.814 29.5463 138.209C31.0933 138.263 32.7254 138.295 34.4044 138.295C35.1397 138.295 35.8935 138.274 36.6411 138.262C36.5843 137.924 36.5362 137.583 36.5362 137.23C36.5362 137.181 36.5498 137.137 36.551 137.087Z" fill="#8EDAE5"/>
<path fill-rule="evenodd" clip-rule="evenodd" d="M21.7302 125.177C21.3194 125.088 20.9395 124.924 20.5965 124.706C20.0821 127.077 19.9254 129.109 19.7909 130.868C19.712 131.902 19.6318 132.789 19.5035 133.588C19.5824 133.582 19.6577 133.564 19.7391 133.564C20.0784 133.564 20.3991 133.627 20.71 133.716C20.8408 132.878 20.9148 131.964 20.9913 130.961C21.1183 129.299 21.2676 127.387 21.7302 125.177Z" fill="#8EDAE5"/>
<path fill-rule="evenodd" clip-rule="evenodd" d="M24.1717 106.564C23.7979 106.698 23.4019 106.784 22.9837 106.784C23.408 110.658 23.7189 114.144 22.5815 118.213C22.9985 118.226 23.3957 118.308 23.7633 118.454C24.9427 114.187 24.6121 110.581 24.1717 106.564Z" fill="#8EDAE5"/>
<path fill-rule="evenodd" clip-rule="evenodd" d="M49.1287 137.231C49.1287 137.289 49.1127 137.345 49.1114 137.403C53.6587 137.88 60.1614 139.813 66.5505 143.717C66.8848 142.991 67.4572 142.405 68.1678 142.044C61.0274 137.595 53.6661 135.479 48.7204 135.062C48.972 135.741 49.1287 136.465 49.1287 137.231Z" fill="#8EDAE5"/>
<path fill-rule="evenodd" clip-rule="evenodd" d="M73.2466 145.664C73.1343 146.478 72.7544 147.203 72.1844 147.742C73.4699 148.819 74.7023 150.025 75.9002 151.293L76.8551 148.944C75.6892 147.771 74.484 146.674 73.2466 145.664Z" fill="#8EDAE5"/>
<path fill-rule="evenodd" clip-rule="evenodd" d="M32.5965 93.584H31.3961C31.369 97.6711 29.6986 100.431 26.274 101.93C26.422 102.3 26.5047 102.701 26.5182 103.119C30.5338 101.452 32.5644 98.2472 32.5965 93.584Z" fill="#8EDAE5"/>
<path fill-rule="evenodd" clip-rule="evenodd" d="M20.5959 105.844C20.0272 105.323 19.6299 104.624 19.4942 103.831C17.5635 104.702 15.3676 104.855 13.3728 104.987C13.2531 104.994 13.147 105.006 13.0298 105.013C13.4653 105.682 13.7799 106.435 13.9366 107.246C16.0054 107.105 18.3901 106.882 20.5959 105.844Z" fill="#8EDAE5"/>
<path fill-rule="evenodd" clip-rule="evenodd" d="M13.5777 121.426C15.1457 122.637 16.9419 123.249 18.8775 123.249C19.0108 123.249 19.1514 123.219 19.2859 123.213C19.1181 122.852 19.0182 122.457 18.9812 122.041C17.2713 122.067 15.7082 121.549 14.3154 120.473C12.3687 118.968 11.0623 116.589 10.3591 114.179C9.99268 114.347 9.60901 114.478 9.2093 114.574C9.98034 117.188 11.4163 119.754 13.5777 121.426Z" fill="#8EDAE5"/>
<path fill-rule="evenodd" clip-rule="evenodd" d="M57.5546 165.498C57.2783 165.535 57.0044 165.583 56.7182 165.583C56.2038 165.583 55.7103 165.503 55.2316 165.387C55.4734 169.363 57.3375 174.267 64.436 179.516L65.3304 177.314C59.5235 172.878 57.8371 168.862 57.5546 165.498Z" fill="#8EDAE5"/>
<path fill-rule="evenodd" clip-rule="evenodd" d="M43.3211 125.644C43.9922 126.029 44.7151 126.335 45.4812 126.577C46.0833 123.039 46.0278 119.228 43.7961 116C43.4346 116.758 42.93 117.427 42.312 117.983C43.6246 120.308 43.722 122.973 43.3211 125.644Z" fill="#8EDAE5"/>
<path fill-rule="evenodd" clip-rule="evenodd" d="M49.113 143.418C48.3284 142.942 47.5784 142.483 46.8801 142.013C46.2324 142.563 45.4774 142.978 44.6435 143.231C45.6736 144.01 46.8049 144.7 47.925 145.379C48.0509 145.455 48.1755 145.532 48.3001 145.607C49.2759 145.259 50.2468 144.969 51.2201 144.737C50.5108 144.27 49.799 143.834 49.113 143.418Z" fill="#8EDAE5"/>
<path fill-rule="evenodd" clip-rule="evenodd" d="M52.5429 145.657C51.5559 145.851 50.5813 146.103 49.6043 146.415C52.1913 148.064 54.4674 149.917 55.4457 153.118C55.8577 153.033 56.2821 152.989 56.7176 152.989C57.0901 152.989 57.4504 153.037 57.8044 153.099C56.9261 149.621 54.8436 147.373 52.5429 145.657Z" fill="#8EDAE5"/>
<path fill-rule="evenodd" clip-rule="evenodd" d="M31.9356 114.639C31.8419 114.208 31.7876 113.764 31.7876 113.305C31.7876 112.867 31.8332 112.439 31.9184 112.026C29.298 113.242 27.0589 115.504 25.2825 117.303C24.8495 117.741 24.4177 118.172 24.0056 118.564C24.7125 118.907 25.2837 119.476 25.6328 120.18C26.0375 119.793 26.4569 119.377 26.9134 118.915C28.6183 117.188 30.2652 115.639 31.9356 114.639Z" fill="#8EDAE5"/>
<path fill-rule="evenodd" clip-rule="evenodd" d="M44.4012 131.155C44.7034 130.089 45.0081 128.944 45.2586 127.755C44.5085 127.525 43.7868 127.242 43.1046 126.887C42.8208 128.296 42.4396 129.685 42.056 131.012C42.3138 130.98 42.5667 130.933 42.8332 130.933C43.3772 130.933 43.8966 131.024 44.4012 131.155Z" fill="#8EDAE5"/>
<path fill-rule="evenodd" clip-rule="evenodd" d="M8.05509 114.733C7.94899 114.738 7.84783 114.764 7.7405 114.764C7.05335 114.764 6.40321 114.627 5.78268 114.423C5.03878 123.082 9.16169 132.033 16.2528 136.516C16.3885 135.715 16.7931 135.012 17.3717 134.489C11.6019 130.668 7.41112 122.796 8.05509 114.733Z" fill="#8EDAE5"/>
<path fill-rule="evenodd" clip-rule="evenodd" d="M71.6647 148.152C71.3242 148.372 70.9442 148.535 70.5359 148.626C71.144 151.313 72.0409 153.972 73.8063 156.449L74.3614 155.084C72.96 152.888 72.1927 150.536 71.6647 148.152Z" fill="#8EDAE5"/>
<path fill-rule="evenodd" clip-rule="evenodd" d="M51.94 128.868C54.3037 129.105 56.7476 129.351 58.9793 130.034C66.3467 132.288 68.1799 136.575 69.2335 141.701C69.4062 141.675 69.5789 141.648 69.759 141.648C70.002 141.648 70.2389 141.673 70.4671 141.719C69.3753 136.259 67.4508 131.366 59.3321 128.882C56.9857 128.164 54.4826 127.913 52.0596 127.67C49.6996 127.434 47.4544 127.198 45.4817 126.576C45.4139 126.972 45.3399 127.366 45.2584 127.754C47.352 128.4 49.6565 128.639 51.94 128.868Z" fill="#8EDAE5"/>
<path fill-rule="evenodd" clip-rule="evenodd" d="M43.1043 126.887C43.187 126.474 43.2585 126.059 43.3215 125.645C41.3599 124.521 39.8487 122.673 39.0295 119.529C38.7248 119.575 38.4213 119.623 38.1055 119.623C38.0019 119.623 37.9044 119.597 37.802 119.592C38.7618 123.471 40.6888 125.631 43.1043 126.887Z" fill="#8EDAE5"/>
<path fill-rule="evenodd" clip-rule="evenodd" d="M43.1043 126.887C43.7878 127.242 44.5095 127.525 45.2583 127.755C45.3397 127.367 45.4138 126.973 45.4816 126.577C44.7155 126.335 43.9926 126.029 43.3215 125.645C43.2586 126.059 43.187 126.474 43.1043 126.887Z" fill="#8EDAE5"/>
<path fill-rule="evenodd" clip-rule="evenodd" d="M29.5466 138.21C28.7472 138.182 27.97 138.148 27.2261 138.108C26.74 142.96 27.8874 147.684 32.3582 151.381C32.5013 150.56 32.9293 149.842 33.5375 149.319C30.0672 146.226 29.1358 142.318 29.5466 138.21Z" fill="#8EDAE5"/>
<path fill-rule="evenodd" clip-rule="evenodd" d="M50.7466 157.386C50.9835 156.643 51.3487 155.966 51.8261 155.371C47.6366 153.125 44.4167 152.814 41.7101 152.566C40.8576 152.487 40.0866 152.399 39.3402 152.276C39.2711 153.111 38.9232 153.865 38.373 154.434C39.4043 154.643 40.4382 154.749 41.5003 154.847C44.1009 155.087 46.9704 155.36 50.7466 157.386Z" fill="#8EDAE5"/>
<path fill-rule="evenodd" clip-rule="evenodd" d="M61.1461 163.756C60.5946 164.302 59.9408 164.746 59.2191 165.06C60.7131 166.681 63.1828 168.678 67.967 170.975L68.7787 168.827L68.8059 168.758C64.604 166.74 62.5093 165.163 61.1461 163.756Z" fill="#8EDAE5"/>
<path fill-rule="evenodd" clip-rule="evenodd" d="M30.6689 132.943C30.0089 132.47 29.3661 131.981 28.7493 131.472C28.1411 133.262 27.6563 135.09 27.3787 136.912C28.109 136.954 28.8714 136.992 29.6795 137.022C29.8941 135.669 30.2371 134.303 30.6689 132.943Z" fill="#8EDAE5"/>
<path fill-rule="evenodd" clip-rule="evenodd" d="M29.6057 129.159C30.2065 129.68 30.8233 130.189 31.471 130.675C32.6849 127.509 34.2431 124.456 35.6001 121.81C36.0306 120.972 36.418 120.207 36.7795 119.477C36.0121 119.313 35.2978 119.006 34.6613 118.589C34.3183 119.277 33.9544 119.995 33.5608 120.764C32.3087 123.204 30.832 126.088 29.6057 129.159Z" fill="#8EDAE5"/>
<path fill-rule="evenodd" clip-rule="evenodd" d="M38.3611 107.015C39.1507 107.047 39.9082 107.208 40.5978 107.506C41.1628 104.199 40.9148 100.211 38.3426 93.585H35.8864C38.5647 100.158 38.8916 103.848 38.3611 107.015Z" fill="#8EDAE5"/>
<path fill-rule="evenodd" clip-rule="evenodd" d="M27.3781 136.913C27.3176 137.312 27.2658 137.71 27.2263 138.109C27.969 138.148 28.7475 138.181 29.5469 138.21C29.5863 137.814 29.616 137.421 29.6801 137.023C28.8708 136.992 28.1097 136.955 27.3781 136.913Z" fill="#8EDAE5"/>
<path fill-rule="evenodd" clip-rule="evenodd" d="M20.8188 140.473C20.4759 140.582 20.1181 140.658 19.7394 140.658C19.69 140.658 19.6444 140.645 19.5963 140.644C20.9903 144.831 23.9844 149.249 28.1394 151.504C29.3027 152.136 30.7547 152.677 32.4264 152.881C32.3499 152.592 32.2968 152.296 32.2968 151.985C32.2968 151.866 32.3203 151.753 32.3326 151.637C31.0989 151.461 29.8875 151.082 28.713 150.446C24.9997 148.431 22.1783 144.361 20.8188 140.473Z" fill="#8EDAE5"/>
<path fill-rule="evenodd" clip-rule="evenodd" d="M51.2207 144.737C51.6649 145.029 52.1078 145.331 52.5432 145.656C56.5317 144.872 60.7508 144.985 66.2455 145.406C66.2406 145.331 66.2221 145.259 66.2221 145.183C66.2221 144.842 66.2863 144.52 66.3763 144.208C60.3486 143.75 55.7224 143.665 51.2207 144.737Z" fill="#8EDAE5"/>
<path fill-rule="evenodd" clip-rule="evenodd" d="M49.6045 146.414C49.1764 146.141 48.7397 145.875 48.3005 145.607C45.8406 146.485 43.3338 147.746 40.5642 149.545C40.0436 149.884 39.5218 150.18 38.9999 150.442C39.1776 150.804 39.2886 151.199 39.333 151.617C39.9499 151.319 40.5778 150.975 41.2218 150.556C44.259 148.583 46.9435 147.264 49.6045 146.414Z" fill="#8EDAE5"/>
<path fill-rule="evenodd" clip-rule="evenodd" d="M72.2743 142.703C72.5729 143.007 72.8147 143.365 72.9899 143.758C74.9563 143.201 76.718 143.962 78.5414 144.795L78.9953 143.676C77.0782 142.803 74.8268 141.804 72.2743 142.703Z" fill="#8EDAE5"/>
<path fill-rule="evenodd" clip-rule="evenodd" d="M51.2207 144.738C50.2474 144.968 49.2765 145.258 48.3007 145.608C48.7398 145.874 49.1766 146.142 49.6046 146.414C50.5817 146.101 51.5563 145.851 52.5432 145.657C52.1077 145.331 51.6649 145.029 51.2207 144.738Z" fill="#8EDAE5"/>
<path fill-rule="evenodd" clip-rule="evenodd" d="M19.9953 119.229C20.5419 118.687 21.2685 118.338 22.0716 118.244C19.9559 112.954 16.7829 110.455 13.9985 109.039C13.922 109.844 13.7024 110.6 13.3508 111.289C15.7232 112.584 18.2534 114.792 19.9953 119.229Z" fill="#8EDAE5"/>
<path fill-rule="evenodd" clip-rule="evenodd" d="M36.6174 136.433C36.7198 135.639 36.9653 134.896 37.3366 134.222C35.2665 133.234 33.2828 132.031 31.4705 130.674C31.1818 131.426 30.9104 132.182 30.6686 132.943C32.5216 134.274 34.5201 135.46 36.6174 136.433Z" fill="#8EDAE5"/>
<path fill-rule="evenodd" clip-rule="evenodd" d="M2.48854 93.584H1.31779L0.193924 93.6259C0.263009 95.4703 0.693558 100.205 3.0955 104.198C3.61734 103.63 4.23787 103.166 4.93366 102.817C2.93019 99.3649 2.55269 95.2371 2.48854 93.584Z" fill="#8EDAE5"/>
<path fill-rule="evenodd" clip-rule="evenodd" d="M28.7491 131.472C29.0143 130.692 29.3017 129.92 29.6052 129.159C27.8213 127.612 26.262 125.924 25.0185 124.171C24.4781 124.733 23.754 125.106 22.9422 125.215C24.4744 127.451 26.4532 129.577 28.7491 131.472Z" fill="#8EDAE5"/>
<path fill-rule="evenodd" clip-rule="evenodd" d="M31.4706 130.674C30.8242 130.188 30.2061 129.68 29.6053 129.158C29.3019 129.921 29.0144 130.692 28.7492 131.471C29.366 131.982 30.0087 132.471 30.6688 132.944C30.9106 132.183 31.182 131.426 31.4706 130.674Z" fill="#8EDAE5"/>
<path fill-rule="evenodd" clip-rule="evenodd" d="M11.6061 93.584H10.3946C10.0985 96.3622 9.35463 99.1675 8.2653 102.183C8.67735 102.217 9.07829 102.289 9.46566 102.4C10.5673 99.323 11.3149 96.4486 11.6061 93.584Z" fill="#8EDAE5"/>
<path fill-rule="evenodd" clip-rule="evenodd" d="M43.6868 162.056C40.5792 160.685 38.4684 157.915 37.2409 155.223C36.8695 155.386 36.4637 155.475 36.0393 155.499C37.3568 158.485 39.7045 161.616 43.1995 163.158C44.6256 163.787 46.143 164.102 47.7221 164.102C49.0939 164.102 50.5163 163.84 51.9659 163.37C51.6932 163.054 51.4551 162.714 51.2491 162.346C48.5425 163.162 46.006 163.082 43.6868 162.056Z" fill="#8EDAE5"/>
<path fill-rule="evenodd" clip-rule="evenodd" d="M39.7262 142.675C39.3734 142.473 39.044 142.24 38.738 141.976C37.1121 143.79 35.3862 145.8 34.9026 148.589C35.2011 148.508 35.5095 148.45 35.834 148.45C35.945 148.45 36.0499 148.472 36.1572 148.483C36.6704 146.134 38.1965 144.384 39.7139 142.69L39.7262 142.675Z" fill="#8EDAE5"/>
<path fill-rule="evenodd" clip-rule="evenodd" d="M63.0146 159.283V159.286C63.0146 159.695 62.9689 160.092 62.8937 160.479C64.8774 160.911 67.5594 161.648 71.2246 162.806L71.6786 161.688C67.9098 160.495 65.1167 159.732 63.0146 159.283Z" fill="#8EDAE5"/>
<path fill-rule="evenodd" clip-rule="evenodd" d="M22.4777 119.062C22.4457 119.062 22.4185 119.079 22.3864 119.081C22.3531 119.082 22.326 119.097 22.2939 119.099C21.4871 119.158 20.8073 119.575 20.3571 120.195C20.0375 120.635 19.8105 121.147 19.8105 121.733C19.8105 121.823 19.8537 121.899 19.8624 121.988C19.9043 122.409 20.0449 122.786 20.2608 123.127C20.4163 123.374 20.5952 123.591 20.8197 123.773C21.1404 124.035 21.5167 124.203 21.9349 124.293C22.0867 124.326 22.2298 124.379 22.3889 124.385C22.421 124.385 22.4469 124.403 22.4777 124.403C23.2993 124.403 24.0062 124.009 24.496 123.424C24.8846 122.96 25.1461 122.383 25.1461 121.733C25.1461 121.405 25.0684 121.098 24.9599 120.809C24.702 120.117 24.1839 119.554 23.5066 119.271C23.4338 119.24 23.345 119.246 23.2685 119.222C23.0144 119.141 22.759 119.062 22.4777 119.062Z" fill="#8EDAE5"/>
<path fill-rule="evenodd" clip-rule="evenodd" d="M20.3291 103.382C20.3291 103.387 20.3315 103.393 20.3315 103.4C20.3846 104.235 20.8238 104.938 21.4702 105.393C21.881 105.683 22.3535 105.883 22.8889 105.903C22.9222 105.904 22.9494 105.921 22.9827 105.921C23.3737 105.921 23.7401 105.827 24.0757 105.676C24.2311 105.607 24.3545 105.492 24.4914 105.396C25.1305 104.948 25.5623 104.257 25.6252 103.435C25.6264 103.422 25.6326 103.411 25.6338 103.397C25.6375 103.342 25.6659 103.295 25.6659 103.237C25.6659 102.876 25.5894 102.535 25.4599 102.22C25.1428 101.452 24.4655 100.905 23.6489 100.69C23.4305 100.632 23.2183 100.555 22.9827 100.555C22.7915 100.555 22.6212 100.626 22.4411 100.664C21.9797 100.763 21.5603 100.949 21.2198 101.252C20.6646 101.744 20.2995 102.441 20.2995 103.237C20.2995 103.288 20.3266 103.332 20.3291 103.382Z" fill="#8EDAE5"/>
<path fill-rule="evenodd" clip-rule="evenodd" d="M37.3155 154.152C37.9841 153.693 38.4406 152.971 38.4838 152.111C38.485 152.067 38.5085 152.029 38.5085 151.984C38.5085 151.976 38.5048 151.969 38.5048 151.962C38.5011 151.535 38.3765 151.148 38.1951 150.79C37.7781 149.971 36.9676 149.406 36.0041 149.342C35.9449 149.338 35.8943 149.307 35.8339 149.307C35.465 149.307 35.1134 149.382 34.7939 149.518C34.578 149.609 34.4041 149.762 34.2215 149.903C33.654 150.345 33.279 150.985 33.2062 151.739C33.1988 151.824 33.1568 151.897 33.1568 151.984C33.1568 151.989 33.1605 151.993 33.1605 151.997C33.1618 152.333 33.237 152.65 33.353 152.946C33.7243 153.904 34.6249 154.576 35.6982 154.633C35.7463 154.635 35.7858 154.66 35.8339 154.66C36.2163 154.66 36.5765 154.574 36.9059 154.428C37.0589 154.36 37.1798 154.245 37.3155 154.152Z" fill="#8EDAE5"/>
<path fill-rule="evenodd" clip-rule="evenodd" d="M7.74001 113.039C7.92013 113.039 8.09037 113.007 8.26432 112.986C8.44814 112.965 8.63072 112.944 8.80713 112.901C9.21424 112.803 9.59298 112.645 9.95074 112.447C10.7415 112.008 11.3843 111.349 11.8012 110.543C12.1294 109.912 12.3329 109.206 12.3329 108.447C12.3329 108.387 12.3169 108.332 12.3144 108.272C12.3033 107.965 12.2626 107.665 12.1935 107.375C11.9937 106.551 11.5816 105.81 11.0043 105.225C10.4257 104.639 9.68797 104.221 8.86511 104.012C8.50365 103.92 8.12985 103.855 7.74001 103.855C7.70177 103.855 7.66599 103.865 7.62898 103.867C7.01338 103.881 6.42739 104.015 5.89445 104.249C5.17769 104.565 4.56826 105.066 4.09824 105.681C3.51101 106.454 3.14832 107.405 3.14832 108.447C3.14832 110.356 4.3203 111.994 5.98204 112.686C6.52362 112.912 7.11701 113.039 7.74001 113.039Z" fill="#8EDAE5"/>
<path fill-rule="evenodd" clip-rule="evenodd" d="M20.5242 139.637C21.4211 139.355 22.0823 138.635 22.3007 137.713C22.3488 137.515 22.4228 137.325 22.4228 137.111C22.4228 136.893 22.3476 136.699 22.2982 136.496C22.0762 135.58 21.4186 134.866 20.5267 134.587C20.2726 134.507 20.0184 134.427 19.7384 134.427C19.5817 134.427 19.4448 134.491 19.2955 134.517C18.8711 134.591 18.4899 134.752 18.1581 135.002C17.5289 135.475 17.1008 136.187 17.0737 137.027C17.0724 137.057 17.0564 137.082 17.0564 137.111C17.0564 138.435 18.0359 139.487 19.2967 139.706C19.446 139.732 19.5817 139.796 19.7384 139.796C20.0172 139.796 20.2713 139.715 20.5242 139.637Z" fill="#8EDAE5"/>
<path fill-rule="evenodd" clip-rule="evenodd" d="M69.4071 142.578C69.3108 142.592 69.2171 142.612 69.1245 142.635C68.2955 142.844 67.6071 143.394 67.2876 144.172C67.2741 144.204 67.2778 144.244 67.2666 144.276C67.163 144.562 67.0828 144.862 67.0828 145.183C67.0828 145.286 67.1309 145.375 67.142 145.475C67.1889 145.881 67.3234 146.246 67.5307 146.575C67.9575 147.255 68.657 147.719 69.4946 147.805C69.5859 147.815 69.6649 147.86 69.7599 147.86C69.9684 147.86 70.1522 147.786 70.3471 147.741C70.7678 147.643 71.149 147.469 71.4673 147.198C71.4734 147.194 71.4808 147.19 71.487 147.185C72.0557 146.694 72.4345 145.993 72.4345 145.183C72.4345 145.119 72.4024 145.064 72.3975 145C72.374 144.667 72.3049 144.35 72.1692 144.061C71.9879 143.674 71.7041 143.362 71.3698 143.103C71.1502 142.931 70.9195 142.783 70.6518 142.687C70.3705 142.586 70.0757 142.507 69.7599 142.507C69.6353 142.507 69.528 142.561 69.4071 142.578Z" fill="#8EDAE5"/>
<path fill-rule="evenodd" clip-rule="evenodd" d="M33.5132 113.306C33.5132 113.493 33.5465 113.672 33.5687 113.853C33.7254 115.149 34.4089 116.276 35.4155 117.009C36.0065 117.44 36.701 117.723 37.4573 117.832C37.4893 117.836 37.5226 117.838 37.5559 117.842C37.7373 117.864 37.9174 117.897 38.1049 117.897C38.3011 117.897 38.4886 117.863 38.6786 117.839C39.7025 117.71 40.629 117.261 41.3285 116.569C41.8984 116.006 42.3056 115.291 42.5202 114.495C42.6238 114.114 42.6966 113.719 42.6966 113.306C42.6966 111.543 41.6863 110.025 40.2244 109.257C39.5878 108.921 38.8735 108.714 38.1049 108.714C38.0667 108.714 38.0321 108.724 37.9939 108.725C36.8429 108.753 35.8017 109.209 35.0097 109.936C34.5803 110.331 34.23 110.804 33.9746 111.335C33.8648 111.565 33.7797 111.805 33.7081 112.053C33.5934 112.454 33.5132 112.869 33.5132 113.306Z" fill="#8EDAE5"/>
<path fill-rule="evenodd" clip-rule="evenodd" d="M57.5149 163.785C57.6975 163.753 57.8714 163.7 58.0454 163.647C58.8028 163.415 59.4814 163.007 60.0168 162.449C60.6151 161.826 61.0395 161.039 61.211 160.16C61.2665 159.876 61.2985 159.585 61.2985 159.286C61.2985 159.173 61.2739 159.067 61.2665 158.956C61.2208 158.345 61.0617 157.771 60.8014 157.251C60.4498 156.55 59.9391 155.944 59.2975 155.505C58.9435 155.263 58.5475 155.088 58.133 154.952C57.6851 154.805 57.2151 154.706 56.718 154.706C56.4108 154.706 56.111 154.739 55.8198 154.797C54.8329 154.994 53.9706 155.517 53.3229 156.239C52.8109 156.809 52.4359 157.499 52.2595 158.27C52.1855 158.598 52.1374 158.936 52.1374 159.286C52.1374 160.198 52.4125 161.044 52.8739 161.758C53.1046 162.116 53.3895 162.43 53.7078 162.71C54.1482 163.097 54.659 163.398 55.224 163.594C55.694 163.758 56.1924 163.866 56.718 163.866C56.9906 163.866 57.2558 163.831 57.5149 163.785Z" fill="#8EDAE5"/>
<path fill-rule="evenodd" clip-rule="evenodd" d="M47.413 137.231C47.413 136.485 47.2169 135.789 46.8986 135.166C46.3015 133.998 45.2295 133.12 43.9292 132.798C43.5763 132.711 43.2124 132.65 42.8337 132.65C42.376 132.65 41.9442 132.738 41.5272 132.863C40.4132 133.197 39.4818 133.936 38.9008 134.919C38.5294 135.55 38.3037 136.269 38.2704 137.043C38.2691 137.078 38.2617 137.111 38.2605 137.147C38.2605 137.175 38.2518 137.203 38.2518 137.231C38.2518 137.578 38.2975 137.912 38.3715 138.236C38.5911 139.211 39.129 140.059 39.863 140.689C40.169 140.953 40.5058 141.179 40.8758 141.355C41.4717 141.639 42.1305 141.81 42.8337 141.81C42.8991 141.81 42.9607 141.794 43.0261 141.791C43.9341 141.752 44.773 141.458 45.47 140.963C46.6272 140.142 47.3896 138.804 47.4081 137.285C47.4081 137.267 47.413 137.249 47.413 137.231Z" fill="#8EDAE5"/>
<path fill-rule="evenodd" clip-rule="evenodd" d="M2.48621 93.5395L1.31793 93.5839H2.48867C2.48867 93.5703 2.48621 93.5518 2.48621 93.5395Z" fill="#8EDAE5"/>
<path fill-rule="evenodd" clip-rule="evenodd" d="M68.8064 168.757L68.778 168.827L68.8101 168.758C68.8089 168.758 68.8076 168.757 68.8064 168.757Z" fill="#8EDAE5"/>
<path fill-rule="evenodd" clip-rule="evenodd" d="M38.4829 81.2578C38.4829 61.7005 47.5923 44.2935 61.7733 32.9684L42.9426 0H41.5449C16.3818 18.2212 0 47.8181 0 81.2578C0 84.1926 0.133236 87.0967 0.381202 89.9674H39.1059C38.7025 87.1201 38.4829 84.2148 38.4829 81.2578Z" fill="#F59C00"/>
<path fill-rule="evenodd" clip-rule="evenodd" d="M200.576 81.2578C200.576 47.8181 184.193 18.2212 159.032 0H84.2797V89.1877H126.124V39.8251H146.054C155.988 50.7949 162.093 65.2966 162.093 81.2578C162.093 84.2148 161.871 87.1201 161.47 89.9674H200.195C200.443 87.0967 200.576 84.1926 200.576 81.2578Z" fill="#F59C00"/>
<path fill-rule="evenodd" clip-rule="evenodd" d="M99.6408 145.985C94.1448 145.985 88.6982 145.252 83.4453 143.822L82.5681 145.975C88.1024 147.507 93.8463 148.285 99.6408 148.285C131.228 148.285 158.093 125.056 162.807 94.0083H160.478C155.789 123.764 129.973 145.985 99.6408 145.985Z" fill="#F59C00"/>
<path fill-rule="evenodd" clip-rule="evenodd" d="M99.683 151.408C93.4654 151.408 87.3131 150.551 81.389 148.87L80.5945 150.823C86.774 152.6 93.1952 153.501 99.683 153.501C134.233 153.501 163.345 128.031 168.075 94.0093H165.958C161.248 126.853 133.088 151.408 99.683 151.408Z" fill="#F59C00"/>
<path fill-rule="evenodd" clip-rule="evenodd" d="M99.7257 156.831C92.7863 156.831 85.9309 155.842 79.3382 153.905L78.6214 155.667C85.4448 157.69 92.5421 158.72 99.7257 158.72C137.241 158.72 168.6 131.006 173.341 94.0083H171.434C166.707 129.944 136.205 156.831 99.7257 156.831Z" fill="#F59C00"/>
<path fill-rule="evenodd" clip-rule="evenodd" d="M99.7679 162.255C92.1081 162.255 84.5507 161.133 77.2893 158.939L76.6515 160.504C84.1164 162.778 91.8897 163.937 99.7679 163.937C140.248 163.937 173.851 133.981 178.604 94.0083H176.908C172.168 133.033 139.323 162.255 99.7679 162.255Z" fill="#F59C00"/>
<path fill-rule="evenodd" clip-rule="evenodd" d="M99.8107 167.677C91.4304 167.677 83.1698 166.423 75.2398 163.968L74.6797 165.345C82.7886 167.868 91.2392 169.156 99.8107 169.156C121.032 169.156 141.328 161.265 156.961 146.937C172.107 133.055 181.606 114.307 183.868 94.0083H182.377C177.625 136.121 142.442 167.677 99.8107 167.677Z" fill="#F59C00"/>
<path fill-rule="evenodd" clip-rule="evenodd" d="M99.854 173.101C90.752 173.101 81.787 171.713 73.1933 168.996L72.7109 170.179C81.4601 172.955 90.5867 174.373 99.854 174.373C122.465 174.373 144.067 165.941 160.685 150.63C176.817 135.763 186.861 115.704 189.128 94.0093H187.845C183.112 138.49 144.803 173.101 99.854 173.101Z" fill="#F59C00"/>
<path fill-rule="evenodd" clip-rule="evenodd" d="M99.898 178.523C90.0744 178.523 80.4086 176.999 71.1463 174.02L70.7429 175.013C80.1335 178.043 89.935 179.59 99.898 179.59C123.898 179.59 146.808 170.616 164.408 154.321C181.527 138.471 192.117 117.1 194.388 94.0083H193.311C188.571 141.528 147.874 178.523 99.898 178.523Z" fill="#F59C00"/>
<path fill-rule="evenodd" clip-rule="evenodd" d="M99.9402 183.946C89.3961 183.946 79.0284 182.288 69.0999 179.045L68.7742 179.847C78.8063 183.131 89.2838 184.81 99.9402 184.81C125.33 184.81 149.546 175.293 168.13 158.014C186.236 141.179 197.371 118.497 199.645 94.0083H198.776C194.029 144.568 150.944 183.946 99.9402 183.946Z" fill="#F59C00"/>
<path fill-rule="evenodd" clip-rule="evenodd" d="M104.999 113.39H91.3151V137.887H84.4744V106.99H111.84V137.887H104.999V113.39Z" fill="white"/>
<path fill-rule="evenodd" clip-rule="evenodd" d="M126.192 113.391V121.778H132.063C136.345 121.778 138.155 120.188 138.155 117.584C138.155 115.157 136.653 113.391 132.328 113.391H126.192ZM119.351 137.887V106.99H132.152C142.656 106.99 145.26 112.553 145.26 117.629C145.26 122.837 141.906 128.178 132.152 128.178H126.192V137.887H119.351Z" fill="white"/>
<path fill-rule="evenodd" clip-rule="evenodd" d="M165.393 131.798C170.25 131.798 174.178 128.178 174.178 122.439C174.178 116.702 169.895 113.082 165.393 113.082C160.715 113.082 156.565 116.702 156.565 122.439C156.565 128.178 160.715 131.798 165.393 131.798ZM165.393 106.461C174.221 106.461 181.284 113.259 181.284 122.44C181.284 131.533 174.221 138.418 165.393 138.418C156.565 138.418 149.459 131.622 149.459 122.44C149.459 113.524 156.433 106.461 165.393 106.461Z" fill="white"/>
<path fill-rule="evenodd" clip-rule="evenodd" d="M207.862 106.626L211.822 107.908L199.049 142.344L195.13 140.83L207.862 106.626Z" fill="white"/>
<path fill-rule="evenodd" clip-rule="evenodd" d="M223.275 106.626L227.235 107.908L214.461 142.344L210.541 140.83L223.275 106.626Z" fill="white"/>
<path fill-rule="evenodd" clip-rule="evenodd" d="M159.921 186.068H153.079V174.458C151.401 175.343 148.444 176.18 145.53 176.18C138.645 176.18 133.262 173.179 133.262 165.585V155.171H140.147V161.26C140.147 167.617 142.044 169.78 146.459 169.78C148.665 169.78 151.314 169.074 153.079 167.926V155.171H159.921V186.068Z" fill="white"/>
<path fill-rule="evenodd" clip-rule="evenodd" d="M164.518 155.171H191.178V161.571H181.247V186.068H174.405V161.571H164.518V155.171Z" fill="white"/>
<path fill-rule="evenodd" clip-rule="evenodd" d="M195.774 155.171H219.388V161.571H202.615V167.308H218.285V173.49H202.615V179.668H219.785V186.068H195.774V155.171Z" fill="white"/>
<path fill-rule="evenodd" clip-rule="evenodd" d="M246.717 173.708H232.989V186.068H226.148V155.171H232.989V167.308H246.717V155.171H253.558V186.068H246.717V173.708Z" fill="white"/>
<path fill-rule="evenodd" clip-rule="evenodd" d="M261.025 186.068V155.171H267.866V174.105L282.83 155.171H288.525V186.068H281.681V167.22L266.629 186.068H261.025Z" fill="white"/>
<path fill-rule="evenodd" clip-rule="evenodd" d="M295.989 155.171H319.603V161.571H302.83V167.308H318.5V173.49H302.83V179.668H320V186.068H295.989V155.171Z" fill="white"/>
<path d="M79.8863 212.366V222.068H81.7343V212.366H86.1563V210.628H75.5083V212.366H79.8863ZM95.9419 218.79C95.2379 219.824 93.9619 220.528 92.6199 220.528C90.2219 220.528 88.5499 219.208 88.4399 216.942H97.4599C97.5259 216.524 97.5699 216.062 97.5699 215.556C97.5699 213.994 97.0639 212.74 96.0739 211.794C95.0839 210.848 93.8079 210.364 92.2899 210.364C90.4419 210.364 89.0119 210.914 87.9999 212.036C86.9659 213.158 86.4599 214.588 86.4599 216.326C86.4599 218.13 87.0099 219.56 88.1319 220.638C89.2539 221.716 90.7279 222.266 92.5539 222.266C94.5559 222.266 96.0739 221.474 97.1299 219.89L95.9419 218.79ZM92.1579 212.058C94.2039 212.058 95.5019 213.246 95.6119 215.27H88.4179C88.7039 213.334 90.0679 212.058 92.1579 212.058ZM107.006 210.628L103.684 214.83L100.384 210.628H98.0736L102.408 216.172L97.8316 222.068H100.032L103.618 217.47L107.16 222.068H109.47L104.872 216.15L109.25 210.628H107.006ZM121.177 222.068V210.628H119.329V215.38H112.729V210.628H110.881V222.068H112.729V217.118H119.329V222.068H121.177ZM123.22 216.326C123.22 218.064 123.792 219.472 124.914 220.594C126.036 221.716 127.488 222.266 129.27 222.266C131.052 222.266 132.526 221.716 133.67 220.594C134.792 219.472 135.364 218.064 135.364 216.326C135.364 214.588 134.792 213.158 133.67 212.036C132.548 210.914 131.074 210.364 129.27 210.364C127.488 210.364 126.036 210.914 124.914 212.036C123.792 213.158 123.22 214.588 123.22 216.326ZM125.178 216.326C125.178 215.072 125.574 214.038 126.344 213.268C127.114 212.498 128.082 212.102 129.27 212.102C130.458 212.102 131.448 212.498 132.24 213.268C133.01 214.06 133.406 215.072 133.406 216.326C133.406 217.58 133.032 218.592 132.262 219.362C131.492 220.132 130.48 220.528 129.27 220.528C128.06 220.528 127.092 220.132 126.322 219.34C125.552 218.548 125.178 217.536 125.178 216.326ZM147.1 222.068V210.628H138.564V212.982C138.564 219.67 137.332 220.308 135.858 220.308V222.068C137.288 222.244 138.322 221.804 139.158 220.484C139.994 219.164 140.412 216.612 140.412 212.916V212.388H145.252V222.068H147.1ZM149.151 216.326C149.151 218.064 149.723 219.472 150.845 220.594C151.967 221.716 153.419 222.266 155.201 222.266C156.983 222.266 158.457 221.716 159.601 220.594C160.723 219.472 161.295 218.064 161.295 216.326C161.295 214.588 160.723 213.158 159.601 212.036C158.479 210.914 157.005 210.364 155.201 210.364C153.419 210.364 151.967 210.914 150.845 212.036C149.723 213.158 149.151 214.588 149.151 216.326ZM151.109 216.326C151.109 215.072 151.505 214.038 152.275 213.268C153.045 212.498 154.013 212.102 155.201 212.102C156.389 212.102 157.379 212.498 158.171 213.268C158.941 214.06 159.337 215.072 159.337 216.326C159.337 217.58 158.963 218.592 158.193 219.362C157.423 220.132 156.411 220.528 155.201 220.528C153.991 220.528 153.023 220.132 152.253 219.34C151.483 218.548 151.109 217.536 151.109 216.326ZM165.194 222.068V212.366H171.684V210.628H163.346V222.068H165.194ZM181.746 213.51V222.068H183.594V210.628H181.878L174.926 219.208V210.628H173.078V222.068H174.772L181.746 213.51ZM190.824 210.628C187.392 210.628 185.874 212.124 185.874 214.302C185.874 216.062 187.04 217.404 188.8 217.734L185.148 222.068H187.392L190.78 218.02H193.574V222.068H195.422V210.628H190.824ZM187.832 214.346C187.832 213.048 188.756 212.388 190.604 212.388H193.574V216.26H190.56C188.888 216.26 187.832 215.468 187.832 214.346ZM214.867 222.068V210.628H204.703V222.068H206.551V212.366H213.019V222.068H214.867ZM216.913 216.326C216.913 218.064 217.485 219.472 218.607 220.594C219.729 221.716 221.181 222.266 222.963 222.266C224.745 222.266 226.219 221.716 227.363 220.594C228.485 219.472 229.057 218.064 229.057 216.326C229.057 214.588 228.485 213.158 227.363 212.036C226.241 210.914 224.767 210.364 222.963 210.364C221.181 210.364 219.729 210.914 218.607 212.036C217.485 213.158 216.913 214.588 216.913 216.326ZM218.871 216.326C218.871 215.072 219.267 214.038 220.037 213.268C220.807 212.498 221.775 212.102 222.963 212.102C224.151 212.102 225.141 212.498 225.933 213.268C226.703 214.06 227.099 215.072 227.099 216.326C227.099 217.58 226.725 218.592 225.955 219.362C225.185 220.132 224.173 220.528 222.963 220.528C221.753 220.528 220.785 220.132 220.015 219.34C219.245 218.548 218.871 217.536 218.871 216.326ZM241.404 222.068V210.628H239.556V215.38H232.956V210.628H231.108V222.068H232.956V217.118H239.556V222.068H241.404ZM252.752 213.51V222.068H254.6V210.628H252.884L245.932 219.208V210.628H244.084V222.068H245.778L252.752 213.51ZM259.124 222.068V213.884L263.172 219.164L267.044 213.884V222.068H268.892V210.628H267.308L263.194 216.216L258.97 210.628H257.276V222.068H259.124ZM272.464 213.378C273.586 212.52 274.73 212.102 275.874 212.102C278.14 212.102 278.932 213.29 278.932 215.512C278.206 215.292 277.326 215.182 276.248 215.182C272.816 215.182 270.77 216.326 270.77 218.724C270.77 220.836 272.442 222.222 274.928 222.222C276.776 222.222 278.206 221.43 278.932 220.374V222.068H280.78V215.006C280.78 212.036 279.152 210.364 276.094 210.364C274.4 210.364 272.574 211.002 271.518 211.992L272.464 213.378ZM275.368 220.55C273.784 220.55 272.728 219.824 272.728 218.658C272.728 217.426 273.982 216.81 276.49 216.81C277.48 216.81 278.294 216.92 278.932 217.14V218.306C278.69 218.856 278.272 219.384 277.634 219.846C276.996 220.308 276.226 220.55 275.368 220.55ZM293.632 222.068V210.628H291.784V215.38H285.184V210.628H283.336V222.068H285.184V217.118H291.784V222.068H293.632ZM304.981 213.51V222.068H306.829V210.628H305.113L298.161 219.208V210.628H296.313V222.068H298.007L304.981 213.51ZM314.058 210.628C310.626 210.628 309.108 212.124 309.108 214.302C309.108 216.062 310.274 217.404 312.034 217.734L308.382 222.068H310.626L314.014 218.02H316.808V222.068H318.656V210.628H314.058ZM311.066 214.346C311.066 213.048 311.99 212.388 313.838 212.388H316.808V216.26H313.794C312.122 216.26 311.066 215.468 311.066 214.346Z" fill="white"/>
</svg>
