<svg xmlns="http://www.w3.org/2000/svg" width="18" height="18" viewBox="0 0 18 18">
    <g fill="none" fill-rule="evenodd" stroke="#799DA4" stroke-width="2">
        <path d="M9.61 2.025c-.168-.169-.39-.253-.61-.253-.221 0-.442.084-.61.253l-.654.652c-.613.614-1.445.958-2.313.959H4.5c-.239 0-.455.097-.611.253-.156.156-.253.372-.253.611v.923c0 .868-.345 1.7-.959 2.313l-.727.738c-.128.166-.186.367-.177.566.01.207.093.412.252.57l.652.652c.613.614.958 1.446.959 2.314l.005 1.022c.024.211.124.4.272.537.154.142.36.229.586.229h.922c.868 0 1.7.344 2.315.958l.653.653c.169.169.39.253.61.253.222 0 .443-.085.612-.253l.652-.653c.614-.614 1.447-.959 2.315-.959l1.02-.005c.212-.023.4-.124.537-.272.142-.154.229-.36.229-.586v-.922c0-.868.344-1.701.958-2.315l.728-.738c.127-.165.186-.367.177-.565-.01-.208-.094-.413-.252-.571l-.653-.653c-.614-.614-.959-1.447-.959-2.315l-.005-1.02c-.023-.21-.124-.399-.272-.536-.154-.142-.36-.23-.586-.23h-.924c-.868 0-1.7-.345-2.314-.958l-.652-.652z"/>
        <path d="M6 9L8 11 12 7"/>
    </g>
</svg>
