<svg xmlns="http://www.w3.org/2000/svg" xmlns:xlink="http://www.w3.org/1999/xlink" width="317" height="80" viewBox="0 0 317 80">
    <defs>
        <path id="prefix__a" d="M0 0H316.61V80H0z"/>
    </defs>
    <g fill="none" fill-rule="evenodd" transform="matrix(-1 0 0 1 317 0)">
        <mask id="prefix__b" fill="#fff">
            <use xlink:href="#prefix__a"/>
        </mask>
        <g mask="url(#prefix__b)">
            <g>
                <path fill="#73C8DA" fill-rule="nonzero" d="M150.867 133.993l.816.049c17.77 1 34.76-2.62 50.525-11.395.248.384.54.734.864 1.046-16.046 8.986-33.359 12.702-51.464 11.683-22.018-1.24-44.184-9.67-61.272-21.307.31-.323.583-.68.813-1.063 16.678 11.342 38.253 19.604 59.718 20.987zm59.256-16.259c.18.313.313.661.388 1.035.019.096.034.192.044.288-1.704 1.16-3.422 2.258-5.156 3.292-.398-.242-.746-.564-1.018-.949 1.934-1.142 3.848-2.364 5.742-3.666zM325.172 3.842l13.42 1.97c.854.123 1.647.236 2.428.344l1.588.219c3.624.492 6.698.856 9.554 1.121l.609.056c7.938.708 14.262.626 19.785-.395l.55-.105.38 1.275c-1.593.64-3.277 1.296-5.107 1.987l-1.606.599c-4.384 1.605-21.023 7.585-26.65 9.746-11.588 4.45-21.618 8.895-31.553 14.181-14.856 7.904-28.84 17.404-42.227 29.068l-.829.725.785.347c11.223 4.963 22.931 6.613 36.096 5.587l.808-.066 1.293-.117c9.276-.885 17.389-2.648 33.232-6.83l7.927-2.094c10.667-2.79 16.142-4.024 22.92-5.095 10.154-1.604 19.103-1.821 27.606-.42l.796.136-.233 1.315c-8.32-1.474-17.078-1.354-27.024.144l-1.665.261c-6.52 1.057-12.035 2.323-22.66 5.108l-8.78 2.32c-15.68 4.113-23.655 5.775-33.298 6.603-13.706 1.176-25.886-.469-37.558-5.63l-1.346-.594-.74.662c-8.282 7.44-16.34 15.731-24.242 25.014l-.847.999-1.26 1.505-1.258 1.522c-7.346 8.948-15.14 16.324-23.313 22.207-.148-.438-.346-.848-.583-1.226 7.742-5.6 15.144-12.564 22.146-20.962l.717-.867c.841-1.024 1.684-2.038 2.53-3.04 7.858-9.315 15.87-17.65 24.1-25.136l1.405-1.268-.514-.225c-26.442-11.542-46.18-18.212-66.06-21.31l-.796-.122c-4.361-.658-8.652-1.117-12.875-1.369l-.263-.015-.214.236c-2.957 3.26-6.162 7.07-10.145 11.969l-4.923 6.072-.518.634c-12.105 14.8-21.078 23.59-34.04 31.869-11.237 7.176-24.546 13.004-40.739 17.54.024-.448-.002-.905-.085-1.364 15.633-4.401 28.534-10.016 39.456-16.891l.648-.411c12.6-8.047 21.395-16.589 33.107-30.833l6.538-8.048c3.153-3.87 5.821-7.056 8.279-9.834l.914-1.027-.54-.023c-20.143-.813-38.757 3.162-56.294 12.664l-.73.399c-4.27 2.354-8.667 4.03-13.213 5.076-8.55 1.965-17.504 1.697-27.338-.474-7.466-1.649-14.507-4.064-25.05-8.304l-8.292-3.338c-12.396-4.96-14.972-5.74-20.694-6.73-9.017-1.559-15.62.232-20.686 6.261C-.883 57.996.553 76.924 11.207 92.39c11.895 17.266 31.997 26.27 55.68 22.14 4.728-.825 9.252-1.728 13.587-2.709.143.441.336.857.572 1.24-4.102.933-8.374 1.796-12.825 2.59l-1.104.194c-24.21 4.222-44.826-5.01-57.01-22.697C-.857 77.23-2.343 57.656 6.978 46.56c5.313-6.322 12.247-8.286 21.459-6.798l1.478.257c5.893 1.07 8.951 2.179 25.285 8.769l3.695 1.49c10.08 4.034 16.91 6.356 24.116 7.948 9.653 2.13 18.411 2.393 26.75.476 4.165-.958 8.203-2.46 12.132-4.546l.735-.398c18.217-10.047 37.579-14.172 58.553-13.192l.821.04.084-.09c3.062-3.326 5.907-6.104 9.138-8.946l.374-.329c9.117-7.96 19.369-14.212 32.068-19.145C242.783 4.67 261.54 1.114 280.93.607c13.974-.367 26.196.66 44.24 3.235zM89.326 111.02l-.736.195.5.36c-.211.395-.5.747-.848 1.034l-.486-.349-.839-.612-.031.008c-1.042.265-2.094.524-3.159.78-.344-.328-.62-.728-.804-1.183.888-.21 1.767-.423 2.637-.64l.706-.179.452-.6.483.362.296-.076c.662-.171 1.32-.344 1.972-.52.056.491.002.973-.143 1.42zM280.966 1.94c-19.242.505-37.847 4.032-56.817 11.401-12.552 4.877-22.67 11.047-31.672 18.907-2.845 2.483-5.377 4.903-8.007 7.674l-.742.787.012.001c3.708.245 7.466.646 11.277 1.2l.88.13c20.001 3.02 39.726 9.597 66.042 21.028l2.228.972.409-.36c13.436-11.827 27.469-21.466 42.372-29.488l.995-.532c9.603-5.11 19.29-9.436 30.365-13.733l2.623-1.005c3.702-1.394 10.023-3.694 15.556-5.7l10.63-3.86.6-.227-.242.02c-4.135.323-8.727.238-14.023-.205l-.8-.069-1.233-.114c-2.909-.282-6.056-.665-9.777-1.177l-2.816-.396-12.833-1.886c-18.534-2.67-30.885-3.738-45.027-3.368z" transform="matrix(1 0 0 -1 -44.237 167.508)"/>
                <path fill="#73C8DA" fill-rule="nonzero" d="M265.243 64.277l.023 1.335c-9.988.17-19.288 1.268-33.153 3.647l-8.464 1.495-3.698.656c-12.994 2.29-19.966 3.306-28.364 3.981l-.46.037c-12.354.97-23.877.586-35.65-1.44-32.093-5.52-88.003 9.857-123.356 35.893l-1.065.792-.803-1.068c35.569-26.727 92.653-42.575 125.45-36.933 11.27 1.939 22.31 2.358 34.098 1.516l1.222-.092c8.248-.647 15.011-1.607 27.313-3.758l10.947-1.943c15.095-2.652 24.892-3.89 35.344-4.107l.616-.011z" transform="matrix(1 0 0 -1 -44.237 167.508)"/>
                <path fill="#73C8DA" fill-rule="nonzero" d="M238.428 7.432l1.334.058c-.485 11.205 3.376 19.327 12.366 30.153l1.101 1.31c1.178 1.387 3.223 3.783 3.775 4.44 1.667 1.986 2.906 3.552 3.984 5.07 3.8 5.352 5.353 9.935 4.517 14.913l-.069.384c-2.261 11.811 12.278 28.584 31.923 36.063 23.227 8.843 47.382 3.458 65.986-18.773l.563-.679 1.033.847c-19.056 23.26-44.076 28.984-68.058 19.853-19.976-7.606-34.868-24.63-32.826-37.183l.067-.38c.904-4.71-.52-9.052-4.225-14.271l-.462-.64c-.79-1.077-1.684-2.21-2.776-3.53l-1.14-1.36c-1.08-1.273-3.311-3.886-3.978-4.68-9.346-11.143-13.493-19.53-13.136-31.035l.02-.56z" transform="matrix(1 0 0 -1 -44.237 167.508)"/>
                <path fill="#F59C00" fill-rule="nonzero" d="M363.54 78.412l.602.14-.31 1.3c-15.693-3.756-28.081-.612-43.742 9.238l-.604.382c-2.005 1.276-4.043 2.636-6.537 4.354l-11.048 7.694-1.647 1.123c-9.767 6.619-17.534 11.051-26.313 14.64-11.651 4.76-23.966 7.367-37.823 7.614-8.588.154-16.468-.725-23.789-2.601.22-.393.393-.811.518-1.247 7.152 1.814 14.852 2.663 23.247 2.513 13.69-.245 25.841-2.816 37.342-7.516 8.921-3.646 16.802-8.184 26.886-15.064l1.644-1.13 8.667-6.048 1.115-.772c2.53-1.747 4.59-3.13 6.593-4.413l.428-.274c16.026-10.2 28.76-13.608 44.771-9.933zm-153.106 41.983l-.047.152c-.134.384-.335.74-.592 1.052-2.055-.602-4.066-1.285-6.036-2.048-.016-.47.065-.926.228-1.346 2.1.824 4.248 1.554 6.447 2.19zm-98.09-86.871c13.516 6.412 22.9 15.789 38.471 35.97l4.908 6.39 1.638 2.12c12.003 15.46 19.79 23.834 29.996 31.122 4.546 3.247 9.297 5.961 14.317 8.128-.164.416-.283.853-.35 1.303-5.172-2.216-10.065-5.003-14.744-8.344-10.645-7.602-18.66-16.334-31.36-32.794l-4.948-6.442c-15.756-20.482-25.086-29.882-38.501-36.246-30.112-14.285-50.517-11.227-63.288 6.456-10.087 13.966-15.108 36.022-17.046 67.08l-.115 1.912-1.334-.077.116-1.927c1.953-31.29 7.02-53.542 17.296-67.77 13.186-18.258 34.294-21.421 64.943-6.881z" transform="matrix(1 0 0 -1 -44.237 167.508)"/>
                <path fill="#73C8DA" d="M210.511 118.77c.363 1.846-.837 3.639-2.685 4.005-1.846.367-3.64-.833-4.002-2.677-.355-1.788.754-3.522 2.498-3.967l.182-.041c1.845-.368 3.639.833 4.007 2.68z" transform="matrix(1 0 0 -1 -44.237 167.508)"/>
                <path fill="#73C8DA" fill-rule="nonzero" d="M329.967 50.587l.247 1.312c-7.58 1.427-12.077 5.002-14.515 10.834l-.2.492c-1.659 4.183-2.185 8.436-2.582 17.71l-.197 4.65-.078 1.498c-.835 14.572-3.658 22.59-12.086 28.322-5.597 3.809-12.978 4.211-22.904 1.815l-1.197-.297c-5.922-1.484-7.69-2.068-22.808-8.043l-8.865-3.508c-14.083-5.537-23.407-8.592-33.106-10.444-15.078-2.878-28.018-1.8-39.524 4.122l-2.008 1.044c-7.736 4.072-12.416 7.234-32.506 21.75l-8.428 6.096c-6.965 5.029-12.188 8.689-17.367 12.122-14.09 9.341-25.678 15.429-36.244 18.537-11.064 3.257-23.045-.117-32.097-8.867-9.394-9.079-14.641-22.858-14.049-38.764l.028-.646 1.334.062c-.743 15.805 4.378 29.46 13.615 38.388 8.718 8.426 20.206 11.662 30.792 8.546 10.216-3.006 21.462-8.869 35.094-17.848l1.823-1.209c4.83-3.227 9.802-6.72 16.29-11.405l12.434-9.022 3.744-2.694c2.352-1.684 4.448-3.165 6.458-4.559l.5-.347c7.84-5.422 14.223-9.411 19.976-12.372 11.8-6.073 25.036-7.176 40.385-4.246 9.8 1.87 19.187 4.947 33.34 10.511l14.476 5.717c10.418 4.078 12.17 4.57 17.68 5.944 9.872 2.463 17.06 2.134 22.383-1.487 7.989-5.435 10.691-13.107 11.504-27.298l.101-1.995.196-4.664c.417-9.43.995-13.662 2.86-18.126 2.564-6.133 7.301-9.975 15.05-11.543l.451-.088z" transform="matrix(1 0 0 -1 -44.237 167.508)"/>
                <path fill="#73C8DA" d="M89.425 109.308c.367 1.847-.834 3.64-2.681 4.007-1.847.366-3.64-.834-4.004-2.679-.355-1.787.754-3.52 2.498-3.965l.182-.042c1.846-.367 3.638.832 4.005 2.679z" transform="matrix(1 0 0 -1 -44.237 167.508)"/>
            </g>
        </g>
    </g>
</svg>
