<svg xmlns="http://www.w3.org/2000/svg" width="14" height="16" viewBox="0 0 14 16">
    <defs>
        <filter id="prefix__a">
            <feColorMatrix in="SourceGraphic" values="0 0 0 0 0.458824 0 0 0 0 0.541176 0 0 0 0 0.580392 0 0 0 1.000000 0"/>
        </filter>
    </defs>
    <g fill="none" fill-rule="evenodd" filter="url(#prefix__a)" transform="translate(-282 -17)">
        <g transform="translate(282 17)">
            <path fill="#535B5E" fill-rule="nonzero" d="M6 3c0 .343.034.677.1 1H2v10h8V7.9c.323.066.657.1 1 .1.343 0 .678-.035 1.001-.1L12 15c0 .552-.448 1-1 1H1c-.552 0-1-.448-1-1V3c0-.552.448-1 1-1l5.1-.001C6.035 2.322 6 2.657 6 3z"/>
            <circle cx="11" cy="3" r="3" fill="#F65D5D"/>
        </g>
    </g>
</svg>
